font.ufo
<glyph name="numbersign.S" format="2">
	<unicode hex="0023"/>
	<advance width="528"/>
	<outline>
		<contour>
			<point x="88" y="-5" type="line"/>
			<point x="173" y="-5" type="line"/>
			<point x="194" y="145" type="line"/>
			<point x="297" y="145" type="line"/>
			<point x="277" y="-5" type="line"/>
			<point x="362" y="-5" type="line"/>
			<point x="383" y="145" type="line"/>
			<point x="478" y="145" type="line"/>
			<point x="478" y="238" type="line"/>
			<point x="394" y="238" type="line"/>
			<point x="407" y="349" type="line"/>
			<point x="498" y="349" type="line"/>
			<point x="498" y="443" type="line"/>
			<point x="419" y="443" type="line"/>
			<point x="436" y="571" type="line"/>
			<point x="352" y="571" type="line"/>
			<point x="334" y="443" type="line"/>
			<point x="230" y="443" type="line"/>
			<point x="247" y="571" type="line"/>
			<point x="163" y="571" type="line"/>
			<point x="145" y="443" type="line"/>
			<point x="54" y="443" type="line"/>
			<point x="54" y="349" type="line"/>
			<point x="133" y="349" type="line"/>
			<point x="119" y="238" type="line"/>
			<point x="34" y="238" type="line"/>
			<point x="34" y="145" type="line"/>
			<point x="108" y="145" type="line"/>
		</contour>
		<contour>
			<point x="205" y="238" type="line"/>
			<point x="218" y="349" type="line"/>
			<point x="322" y="349" type="line"/>
			<point x="308" y="238" type="line"/>
		</contour>
	</outline>
</glyph>
<glyph name="dollar.S" format="2">
	<unicode hex="0024"/>
	<advance width="528"/>
	<outline>
		<contour>
			<point x="259" y="-12" type="curve" smooth="yes"/>
			<point x="387" y="-12"/>
			<point x="464" y="60"/>
			<point x="464" y="159" type="curve" smooth="yes"/>
			<point x="464" y="347"/>
			<point x="204" y="331"/>
			<point x="204" y="415" type="curve" smooth="yes"/>
			<point x="204" y="445"/>
			<point x="227" y="460"/>
			<point x="265" y="460" type="curve" smooth="yes"/>
			<point x="309" y="460"/>
			<point x="342" y="453"/>
			<point x="392" y="425" type="curve"/>
			<point x="450" y="516" type="line"/>
			<point x="394" y="561"/>
			<point x="332" y="576"/>
			<point x="260" y="576" type="curve" smooth="yes"/>
			<point x="144" y="576"/>
			<point x="64" y="513"/>
			<point x="64" y="413" type="curve" smooth="yes"/>
			<point x="64" y="230"/>
			<point x="324" y="245"/>
			<point x="324" y="152" type="curve" smooth="yes"/>
			<point x="324" y="122"/>
			<point x="302" y="104"/>
			<point x="246" y="104" type="curve" smooth="yes"/>
			<point x="198" y="104"/>
			<point x="158" y="111"/>
			<point x="97" y="153" type="curve"/>
			<point x="39" y="61" type="line"/>
			<point x="105" y="8"/>
			<point x="183" y="-12"/>
		</contour>
		<contour>
			<point x="215" y="-110" type="line"/>
			<point x="312" y="-110" type="line"/>
			<point x="312" y="48" type="line"/>
			<point x="215" y="48" type="line"/>
		</contour>
		<contour>
			<point x="210" y="530" type="line"/>
			<point x="307" y="530" type="line"/>
			<point x="307" y="674" type="line"/>
			<point x="210" y="674" type="line"/>
		</contour>
	</outline>
</glyph>
<glyph name="gampersand" format="2">
	<unicode hex="0026"/>
	<advance width="583"/>
	<outline>
		<contour>
			<point x="12" y="-104" type="curve"/>
			<point x="150" y="-90" type="line"/>
			<point x="152" y="142"/>
			<point x="295" y="221"/>
			<point x="367" y="221" type="curve" smooth="yes"/>
			<point x="415" y="221"/>
			<point x="441" y="204"/>
			<point x="441" y="170" type="curve" smooth="yes"/>
			<point x="441" y="128"/>
			<point x="403" y="109"/>
			<point x="359" y="109" type="curve" smooth="yes"/>
			<point x="303" y="109"/>
			<point x="224" y="135"/>
			<point x="224" y="257" type="curve" smooth="yes"/>
			<point x="224" y="360"/>
			<point x="306" y="404"/>
			<point x="423" y="404" type="curve" smooth="yes"/>
			<point x="476" y="404" type="line"/>
			<point x="499" y="508" type="line"/>
			<point x="396" y="554"/>
			<point x="339" y="589"/>
			<point x="306" y="679" type="curve"/>
			<point x="160" y="657" type="line"/>
			<point x="196" y="562"/>
			<point x="264" y="532"/>
			<point x="358" y="494" type="curve"/>
			<point x="409" y="526" type="line"/>
			<point x="256" y="526"/>
			<point x="114" y="436"/>
			<point x="114" y="257" type="curve" smooth="yes"/>
			<point x="114" y="66"/>
			<point x="244" y="-12"/>
			<point x="362" y="-12" type="curve" smooth="yes"/>
			<point x="471" y="-12"/>
			<point x="552" y="53"/>
			<point x="552" y="165" type="curve" smooth="yes"/>
			<point x="552" y="276"/>
			<point x="480" y="326"/>
			<point x="375" y="326" type="curve" smooth="yes"/>
			<point x="224" y="326"/>
			<point x="16" y="179"/>
		</contour>
	</outline>
</glyph>
<glyph name="zero.S" format="2">
	<unicode hex="0030"/>
	<advance width="528"/>
	<outline>
		<contour>
			<point x="264" y="-12" type="curve" smooth="yes"/>
			<point x="397" y="-12"/>
			<point x="486" y="92"/>
			<point x="486" y="286" type="curve" smooth="yes"/>
			<point x="486" y="478"/>
			<point x="397" y="576"/>
			<point x="264" y="576" type="curve" smooth="yes"/>
			<point x="131" y="576"/>
			<point x="42" y="479"/>
			<point x="42" y="286" type="curve" smooth="yes"/>
			<point x="42" y="92"/>
			<point x="131" y="-12"/>
		</contour>
		<contour>
			<point x="264" y="117" type="curve" smooth="yes"/>
			<point x="210" y="117"/>
			<point x="166" y="161"/>
			<point x="166" y="286" type="curve" smooth="yes"/>
			<point x="166" y="412"/>
			<point x="210" y="447"/>
			<point x="264" y="447" type="curve" smooth="yes"/>
			<point x="318" y="447"/>
			<point x="362" y="412"/>
			<point x="362" y="286" type="curve" smooth="yes"/>
			<point x="362" y="161"/>
			<point x="318" y="117"/>
		</contour>
	</outline>
</glyph>
<glyph name="one.S" format="2">
	<unicode hex="0031"/>
	<advance width="528"/>
	<outline>
		<contour>
			<point x="70" y="0" type="line"/>
			<point x="474" y="0" type="line"/>
			<point x="474" y="124" type="line"/>
			<point x="355" y="124" type="line"/>
			<point x="355" y="564" type="line"/>
			<point x="247" y="564" type="line"/>
			<point x="202" y="537"/>
			<point x="158" y="519"/>
			<point x="89" y="506" type="curve"/>
			<point x="89" y="410" type="line"/>
			<point x="208" y="410" type="line"/>
			<point x="208" y="124" type="line"/>
			<point x="70" y="124" type="line"/>
		</contour>
	</outline>
</glyph>
<glyph name="two.S" format="2">
	<unicode hex="0032"/>
	<advance width="528"/>
	<outline>
		<contour>
			<point x="51" y="0" type="line"/>
			<point x="475" y="0" type="line"/>
			<point x="475" y="124" type="line"/>
			<point x="357" y="124" type="line" smooth="yes"/>
			<point x="327" y="124"/>
			<point x="280" y="120"/>
			<point x="247" y="116" type="curve"/>
			<point x="355" y="220"/>
			<point x="438" y="305"/>
			<point x="438" y="407" type="curve" smooth="yes"/>
			<point x="438" y="508"/>
			<point x="360" y="576"/>
			<point x="237" y="576" type="curve" smooth="yes"/>
			<point x="159" y="576"/>
			<point x="103" y="558"/>
			<point x="41" y="512" type="curve"/>
			<point x="92" y="401" type="line"/>
			<point x="144" y="435"/>
			<point x="178" y="447"/>
			<point x="229" y="447" type="curve" smooth="yes"/>
			<point x="281" y="447"/>
			<point x="314" y="422"/>
			<point x="314" y="379" type="curve" smooth="yes"/>
			<point x="314" y="325"/>
			<point x="248" y="249"/>
			<point x="51" y="93" type="curve"/>
		</contour>
	</outline>
</glyph>
<glyph name="three.S" format="2">
	<unicode hex="0033"/>
	<advance width="528"/>
	<outline>
		<contour>
			<point x="235" y="-52" type="curve" smooth="yes"/>
			<point x="366" y="-52"/>
			<point x="473" y="7"/>
			<point x="473" y="127" type="curve" smooth="yes"/>
			<point x="473" y="212"/>
			<point x="423" y="251"/>
			<point x="352" y="269" type="curve"/>
			<point x="352" y="273" type="line"/>
			<point x="415" y="299"/>
			<point x="453" y="346"/>
			<point x="453" y="417" type="curve" smooth="yes"/>
			<point x="453" y="524"/>
			<point x="363" y="576"/>
			<point x="237" y="576" type="curve" smooth="yes"/>
			<point x="164" y="576"/>
			<point x="114" y="565"/>
			<point x="48" y="529" type="curve"/>
			<point x="82" y="426" type="line"/>
			<point x="139" y="454"/>
			<point x="175" y="461"/>
			<point x="225" y="461" type="curve" smooth="yes"/>
			<point x="279" y="461"/>
			<point x="311" y="439"/>
			<point x="311" y="397" type="curve" smooth="yes"/>
			<point x="311" y="346"/>
			<point x="274" y="316"/>
			<point x="160" y="316" type="curve"/>
			<point x="160" y="212" type="line"/>
			<point x="297" y="212"/>
			<point x="331" y="182"/>
			<point x="331" y="138" type="curve" smooth="yes"/>
			<point x="331" y="91"/>
			<point x="292" y="63"/>
			<point x="224" y="63" type="curve" smooth="yes"/>
			<point x="166" y="63"/>
			<point x="130" y="68"/>
			<point x="68" y="98" type="curve"/>
			<point x="35" y="-5" type="line"/>
			<point x="103" y="-43"/>
			<point x="156" y="-52"/>
		</contour>
	</outline>
</glyph>
<glyph name="four.S" format="2">
	<unicode hex="0034"/>
	<advance width="528"/>
	<outline>
		<contour>
			<point x="304" y="-40" type="line"/>
			<point x="431" y="-40" type="line"/>
			<point x="431" y="564" type="line"/>
			<point x="251" y="564" type="line"/>
			<point x="20" y="191" type="line"/>
			<point x="20" y="99" type="line"/>
			<point x="504" y="99" type="line"/>
			<point x="504" y="222" type="line"/>
			<point x="167" y="222" type="line"/>
			<point x="244" y="343" type="line"/>
			<point x="264" y="377"/>
			<point x="288" y="423"/>
			<point x="306" y="457" type="curve"/>
			<point x="310" y="457" type="line"/>
			<point x="308" y="416"/>
			<point x="304" y="356"/>
			<point x="304" y="315" type="curve" smooth="yes"/>
		</contour>
	</outline>
</glyph>
<glyph name="five.S" format="2">
	<unicode hex="0035"/>
	<advance width="528"/>
	<outline>
		<contour>
			<point x="240" y="-52" type="curve" smooth="yes"/>
			<point x="368" y="-52"/>
			<point x="472" y="26"/>
			<point x="472" y="160" type="curve" smooth="yes"/>
			<point x="472" y="290"/>
			<point x="379" y="347"/>
			<point x="261" y="347" type="curve" smooth="yes"/>
			<point x="243" y="347"/>
			<point x="223" y="344"/>
			<point x="205" y="336" type="curve"/>
			<point x="214" y="441" type="line"/>
			<point x="449" y="441" type="line"/>
			<point x="449" y="564" type="line"/>
			<point x="92" y="564" type="line"/>
			<point x="75" y="260" type="line"/>
			<point x="140" y="218" type="line"/>
			<point x="177" y="235"/>
			<point x="199" y="242"/>
			<point x="233" y="242" type="curve" smooth="yes"/>
			<point x="294" y="242"/>
			<point x="330" y="209"/>
			<point x="330" y="153" type="curve" smooth="yes"/>
			<point x="330" y="93"/>
			<point x="286" y="63"/>
			<point x="229" y="63" type="curve" smooth="yes"/>
			<point x="171" y="63"/>
			<point x="134" y="68"/>
			<point x="73" y="98" type="curve"/>
			<point x="40" y="-5" type="line"/>
			<point x="108" y="-43"/>
			<point x="162" y="-52"/>
		</contour>
	</outline>
</glyph>
<glyph name="six.S" format="2">
	<unicode hex="0036"/>
	<advance width="528"/>
	<outline>
		<contour>
			<point x="282" y="-12" type="curve" smooth="yes"/>
			<point x="394" y="-12"/>
			<point x="485" y="64"/>
			<point x="485" y="200" type="curve" smooth="yes"/>
			<point x="485" y="327"/>
			<point x="405" y="387"/>
			<point x="305" y="387" type="curve" smooth="yes"/>
			<point x="244" y="387"/>
			<point x="187" y="365"/>
			<point x="154" y="316" type="curve"/>
			<point x="161" y="207" type="line"/>
			<point x="196" y="260"/>
			<point x="236" y="280"/>
			<point x="281" y="280" type="curve" smooth="yes"/>
			<point x="331" y="280"/>
			<point x="358" y="250"/>
			<point x="358" y="196" type="curve" smooth="yes"/>
			<point x="358" y="137"/>
			<point x="325" y="98"/>
			<point x="279" y="98" type="curve" smooth="yes"/>
			<point x="224" y="98"/>
			<point x="180" y="140"/>
			<point x="180" y="293" type="curve" smooth="yes"/>
			<point x="180" y="443"/>
			<point x="242" y="497"/>
			<point x="318" y="497" type="curve" smooth="yes"/>
			<point x="358" y="497"/>
			<point x="385" y="493"/>
			<point x="431" y="474" type="curve"/>
			<point x="464" y="580" type="line"/>
			<point x="409" y="609"/>
			<point x="370" y="616"/>
			<point x="310" y="616" type="curve" smooth="yes"/>
			<point x="168" y="616"/>
			<point x="45" y="522"/>
			<point x="45" y="293" type="curve" smooth="yes"/>
			<point x="45" y="73"/>
			<point x="159" y="-12"/>
		</contour>
	</outline>
</glyph>
<glyph name="seven.S" format="2">
	<unicode hex="0037"/>
	<advance width="528"/>
	<outline>
		<contour>
			<point x="168" y="-40" type="curve"/>
			<point x="306" y="-40" type="line"/>
			<point x="316" y="192"/>
			<point x="343" y="290"/>
			<point x="486" y="460" type="curve"/>
			<point x="486" y="564" type="line"/>
			<point x="44" y="564" type="line"/>
			<point x="44" y="434" type="line"/>
			<point x="338" y="434" type="line"/>
			<point x="221" y="282"/>
			<point x="180" y="168"/>
		</contour>
	</outline>
</glyph>
<glyph name="eight.S" format="2">
	<unicode hex="0038"/>
	<advance width="528"/>
	<outline>
		<contour>
			<point x="268" y="-12" type="curve" smooth="yes"/>
			<point x="402" y="-12"/>
			<point x="487" y="59"/>
			<point x="487" y="157" type="curve" smooth="yes"/>
			<point x="487" y="237"/>
			<point x="442" y="274"/>
			<point x="378" y="309" type="curve"/>
			<point x="378" y="313" type="line"/>
			<point x="427" y="341"/>
			<point x="465" y="389"/>
			<point x="465" y="453" type="curve" smooth="yes"/>
			<point x="465" y="555"/>
			<point x="386" y="618"/>
			<point x="265" y="618" type="curve" smooth="yes"/>
			<point x="147" y="618"/>
			<point x="62" y="556"/>
			<point x="62" y="453" type="curve" smooth="yes"/>
			<point x="62" y="386"/>
			<point x="97" y="348"/>
			<point x="151" y="309" type="curve"/>
			<point x="151" y="305" type="line"/>
			<point x="90" y="275"/>
			<point x="42" y="232"/>
			<point x="42" y="152" type="curve" smooth="yes"/>
			<point x="42" y="49"/>
			<point x="136" y="-12"/>
		</contour>
		<contour>
			<point x="303" y="353" type="curve"/>
			<point x="238" y="380"/>
			<point x="195" y="402"/>
			<point x="195" y="453" type="curve" smooth="yes"/>
			<point x="195" y="492"/>
			<point x="221" y="516"/>
			<point x="261" y="516" type="curve" smooth="yes"/>
			<point x="312" y="516"/>
			<point x="342" y="487"/>
			<point x="342" y="440" type="curve" smooth="yes"/>
			<point x="342" y="410"/>
			<point x="330" y="383"/>
		</contour>
		<contour>
			<point x="271" y="90" type="curve" smooth="yes"/>
			<point x="216" y="90"/>
			<point x="171" y="118"/>
			<point x="171" y="174" type="curve" smooth="yes"/>
			<point x="171" y="214"/>
			<point x="190" y="236"/>
			<point x="219" y="260" type="curve"/>
			<point x="292" y="223"/>
			<point x="352" y="210"/>
			<point x="352" y="157" type="curve" smooth="yes"/>
			<point x="352" y="120"/>
			<point x="326" y="90"/>
		</contour>
	</outline>
</glyph>
<glyph name="nine.S" format="2">
	<unicode hex="0039"/>
	<advance width="528"/>
	<outline>
		<contour>
			<point x="226" y="-52" type="curve" smooth="yes"/>
			<point x="364" y="-52"/>
			<point x="483" y="41"/>
			<point x="483" y="271" type="curve" smooth="yes"/>
			<point x="483" y="491"/>
			<point x="369" y="576"/>
			<point x="246" y="576" type="curve" smooth="yes"/>
			<point x="134" y="576"/>
			<point x="43" y="500"/>
			<point x="43" y="364" type="curve" smooth="yes"/>
			<point x="43" y="234"/>
			<point x="123" y="173"/>
			<point x="223" y="173" type="curve" smooth="yes"/>
			<point x="284" y="173"/>
			<point x="341" y="196"/>
			<point x="374" y="245" type="curve"/>
			<point x="367" y="357" type="line"/>
			<point x="332" y="304"/>
			<point x="292" y="284"/>
			<point x="247" y="284" type="curve" smooth="yes"/>
			<point x="194" y="284"/>
			<point x="167" y="314"/>
			<point x="167" y="368" type="curve" smooth="yes"/>
			<point x="167" y="418"/>
			<point x="203" y="451"/>
			<point x="249" y="451" type="curve" smooth="yes"/>
			<point x="306" y="451"/>
			<point x="361" y="411"/>
			<point x="361" y="271" type="curve" smooth="yes"/>
			<point x="361" y="124"/>
			<point x="297" y="74"/>
			<point x="218" y="74" type="curve" smooth="yes"/>
			<point x="175" y="74"/>
			<point x="146" y="79"/>
			<point x="104" y="102" type="curve"/>
			<point x="53" y="-6" type="line"/>
			<point x="106" y="-39"/>
			<point x="155" y="-52"/>
		</contour>
	</outline>
</glyph>
<glyph name="question.S" format="2">
	<unicode hex="003F"/>
	<advance width="463"/>
	<outline>
		<contour>
			<point x="152" y="244" type="curve"/>
			<point x="154" y="240" type="line"/>
			<point x="283" y="240" type="line"/>
			<point x="344" y="308"/>
			<point x="403" y="375"/>
			<point x="403" y="466" type="curve" smooth="yes"/>
			<point x="403" y="561"/>
			<point x="321" y="606"/>
			<point x="218" y="606" type="curve" smooth="yes"/>
			<point x="146" y="606"/>
			<point x="91" y="583"/>
			<point x="43" y="540" type="curve"/>
			<point x="109" y="442" type="line"/>
			<point x="144" y="468"/>
			<point x="168" y="481"/>
			<point x="208" y="481" type="curve" smooth="yes"/>
			<point x="254" y="481"/>
			<point x="279" y="457"/>
			<point x="279" y="425" type="curve" smooth="yes"/>
			<point x="279" y="378"/>
			<point x="234" y="325"/>
		</contour>
		<contour>
			<point x="218" y="-12" type="curve" smooth="yes"/>
			<point x="269" y="-12"/>
			<point x="307" y="28"/>
			<point x="307" y="80" type="curve" smooth="yes"/>
			<point x="307" y="133"/>
			<point x="269" y="173"/>
			<point x="218" y="173" type="curve" smooth="yes"/>
			<point x="167" y="173"/>
			<point x="130" y="133"/>
			<point x="130" y="80" type="curve" smooth="yes"/>
			<point x="130" y="28"/>
			<point x="167" y="-12"/>
		</contour>
	</outline>
</glyph>
<glyph name="at.S" format="2">
	<unicode hex="0040"/>
	<advance width="793"/>
	<outline>
		<contour>
			<point x="367" y="-82" type="curve" smooth="yes"/>
			<point x="436" y="-82"/>
			<point x="492" y="-71"/>
			<point x="550" y="-44" type="curve"/>
			<point x="516" y="37" type="line"/>
			<point x="480" y="20"/>
			<point x="424" y="11"/>
			<point x="379" y="11" type="curve" smooth="yes"/>
			<point x="248" y="11"/>
			<point x="136" y="76"/>
			<point x="136" y="250" type="curve" smooth="yes"/>
			<point x="136" y="434"/>
			<point x="279" y="552"/>
			<point x="427" y="552" type="curve" smooth="yes"/>
			<point x="598" y="552"/>
			<point x="660" y="455"/>
			<point x="660" y="349" type="curve" smooth="yes"/>
			<point x="660" y="234"/>
			<point x="604" y="177"/>
			<point x="555" y="177" type="curve" smooth="yes"/>
			<point x="521" y="177"/>
			<point x="508" y="203"/>
			<point x="520" y="256" type="curve" smooth="yes"/>
			<point x="566" y="450" type="line"/>
			<point x="494" y="450" type="line"/>
			<point x="477" y="408" type="line"/>
			<point x="475" y="408" type="line"/>
			<point x="462" y="445"/>
			<point x="436" y="458"/>
			<point x="405" y="458" type="curve" smooth="yes"/>
			<point x="317" y="458"/>
			<point x="233" y="357"/>
			<point x="233" y="224" type="curve" smooth="yes"/>
			<point x="233" y="141"/>
			<point x="278" y="97"/>
			<point x="336" y="97" type="curve" smooth="yes"/>
			<point x="374" y="97"/>
			<point x="418" y="126"/>
			<point x="443" y="164" type="curve"/>
			<point x="445" y="164" type="line"/>
			<point x="455" y="117"/>
			<point x="489" y="86"/>
			<point x="541" y="86" type="curve" smooth="yes"/>
			<point x="648" y="86"/>
			<point x="745" y="179"/>
			<point x="745" y="354" type="curve" smooth="yes"/>
			<point x="745" y="521"/>
			<point x="627" y="645"/>
			<point x="438" y="645" type="curve" smooth="yes"/>
			<point x="225" y="645"/>
			<point x="49" y="489"/>
			<point x="49" y="246" type="curve" smooth="yes"/>
			<point x="49" y="15"/>
			<point x="198" y="-82"/>
		</contour>
		<contour>
			<point x="371" y="197" type="curve" smooth="yes"/>
			<point x="345" y="197"/>
			<point x="327" y="219"/>
			<point x="327" y="257" type="curve" smooth="yes"/>
			<point x="327" y="312"/>
			<point x="359" y="359"/>
			<point x="403" y="359" type="curve" smooth="yes"/>
			<point x="427" y="359"/>
			<point x="436" y="351"/>
			<point x="448" y="340" type="curve"/>
			<point x="425" y="230" type="line"/>
			<point x="405" y="208"/>
			<point x="388" y="197"/>
		</contour>
	</outline>
</glyph>
<glyph name="I" format="2">
	<unicode hex="0049"/>
	<advance width="301"/>
	<outline>
		<contour>
			<point x="77" y="0" type="line"/>
			<point x="224" y="0" type="line"/>
			<point x="224" y="652" type="line"/>
			<point x="77" y="652" type="line"/>
		</contour>
	</outline>
	<anchor name="aboveUC" x="151" y="672"/>
	<anchor name="belowLC" x="151" y="-20"/>
	<anchor name="ogonekUC" x="131" y="0"/>
	<anchor name="baseLC" x="152" y="0"/>
</glyph>
<glyph name="L" format="2">
	<unicode hex="004C"/>
	<advance width="518"/>
	<outline>
		<contour>
			<point x="77" y="0" type="line"/>
			<point x="482" y="0" type="line"/>
			<point x="482" y="124" type="line"/>
			<point x="224" y="124" type="line"/>
			<point x="224" y="652" type="line"/>
			<point x="77" y="652" type="line"/>
		</contour>
	</outline>
	<anchor name="aboveUC" x="154" y="672"/>
	<anchor name="belowLC" x="290" y="-20"/>
	<anchor name="center" x="169" y="288"/>
	<anchor name="baseLC" x="279" y="0"/>
</glyph>
<glyph name="i" format="2">
	<unicode hex="0069"/>
	<advance width="276"/>
	<outline>
		<contour>
			<point x="65" y="0" type="line"/>
			<point x="212" y="0" type="line"/>
			<point x="212" y="496" type="line"/>
			<point x="65" y="496" type="line"/>
		</contour>
		<contour>
			<point x="138" y="569" type="curve" smooth="yes"/>
			<point x="186" y="569"/>
			<point x="220" y="601"/>
			<point x="220" y="646" type="curve" smooth="yes"/>
			<point x="220" y="691"/>
			<point x="186" y="723"/>
			<point x="138" y="723" type="curve" smooth="yes"/>
			<point x="91" y="723"/>
			<point x="57" y="691"/>
			<point x="57" y="646" type="curve" smooth="yes"/>
			<point x="57" y="601"/>
			<point x="91" y="569"/>
		</contour>
	</outline>
	<anchor name="belowLC" x="138" y="-20"/>
	<anchor name="ogonekLC" x="179" y="0"/>
	<anchor name="aboveUC" x="138" y="690"/>
	<anchor name="baseLC" x="138" y="0"/>
</glyph>
<glyph name="l" format="2">
	<unicode hex="006C"/>
	<advance width="286"/>
	<outline>
		<contour>
			<point x="200" y="-12" type="curve" smooth="yes"/>
			<point x="233" y="-12"/>
			<point x="258" y="-7"/>
			<point x="274" y="0" type="curve"/>
			<point x="256" y="109" type="line"/>
			<point x="248" y="107"/>
			<point x="244" y="107"/>
			<point x="238" y="107" type="curve" smooth="yes"/>
			<point x="226" y="107"/>
			<point x="212" y="117"/>
			<point x="212" y="148" type="curve" smooth="yes"/>
			<point x="212" y="701" type="line"/>
			<point x="65" y="701" type="line"/>
			<point x="65" y="154" type="line" smooth="yes"/>
			<point x="65" y="54"/>
			<point x="99" y="-12"/>
		</contour>
	</outline>
	<anchor name="aboveUC" x="138" y="730"/>
	<anchor name="belowLC" x="164" y="-20"/>
	<anchor name="center" x="139" y="297"/>
	<anchor name="baseLC" x="143" y="0"/>
</glyph>
<glyph name="cent.S" format="2">
	<unicode hex="00A2"/>
	<advance width="528"/>
	<outline>
		<contour>
			<point x="327" y="27" type="curve" smooth="yes"/>
			<point x="392" y="27"/>
			<point x="449" y="48"/>
			<point x="501" y="88" type="curve"/>
			<point x="443" y="193" type="line"/>
			<point x="405" y="168"/>
			<point x="370" y="156"/>
			<point x="332" y="156" type="curve" smooth="yes"/>
			<point x="248" y="156"/>
			<point x="188" y="201"/>
			<point x="188" y="283" type="curve" smooth="yes"/>
			<point x="188" y="364"/>
			<point x="247" y="408"/>
			<point x="326" y="408" type="curve" smooth="yes"/>
			<point x="363" y="408"/>
			<point x="393" y="399"/>
			<point x="431" y="375" type="curve"/>
			<point x="489" y="480" type="line"/>
			<point x="441" y="517"/>
			<point x="384" y="537"/>
			<point x="322" y="537" type="curve" smooth="yes"/>
			<point x="174" y="537"/>
			<point x="65" y="444"/>
			<point x="65" y="278" type="curve" smooth="yes"/>
			<point x="65" y="117"/>
			<point x="174" y="27"/>
		</contour>
		<contour>
			<point x="276" y="-65" type="line"/>
			<point x="357" y="-65" type="line"/>
			<point x="357" y="631" type="line"/>
			<point x="276" y="631" type="line"/>
		</contour>
	</outline>
</glyph>
<glyph name="cent" format="2">
	<unicode hex="00A2"/>
	<advance width="528"/>
	<outline>
		<contour>
			<point x="314" y="51" type="curve" smooth="yes"/>
			<point x="384" y="51"/>
			<point x="442" y="77"/>
			<point x="487" y="118" type="curve"/>
			<point x="430" y="206" type="line"/>
			<point x="399" y="182"/>
			<point x="365" y="170"/>
			<point x="325" y="170" type="curve" smooth="yes"/>
			<point x="253" y="170"/>
			<point x="203" y="223"/>
			<point x="203" y="307" type="curve" smooth="yes"/>
			<point x="203" y="391"/>
			<point x="253" y="444"/>
			<point x="329" y="444" type="curve" smooth="yes"/>
			<point x="364" y="444"/>
			<point x="391" y="436"/>
			<point x="414" y="417" type="curve"/>
			<point x="480" y="503" type="line"/>
			<point x="442" y="541"/>
			<point x="388" y="563"/>
			<point x="320" y="563" type="curve" smooth="yes"/>
			<point x="183" y="563"/>
			<point x="62" y="470"/>
			<point x="62" y="307" type="curve" smooth="yes"/>
			<point x="62" y="145"/>
			<point x="172" y="51"/>
		</contour>
		<contour>
			<point x="275" y="-41" type="line"/>
			<point x="356" y="-41" type="line"/>
			<point x="356" y="655" type="line"/>
			<point x="275" y="655" type="line"/>
		</contour>
	</outline>
</glyph>
<glyph name="sterling.S" format="2">
	<unicode hex="00A3"/>
	<advance width="528"/>
	<outline>
		<contour>
			<point x="48" y="0" type="line"/>
			<point x="497" y="0" type="line"/>
			<point x="497" y="123" type="line"/>
			<point x="239" y="123" type="line"/>
			<point x="239" y="127" type="line"/>
			<point x="263" y="161"/>
			<point x="274" y="196"/>
			<point x="274" y="238" type="curve" smooth="yes"/>
			<point x="274" y="290"/>
			<point x="245" y="322"/>
			<point x="245" y="380" type="curve" smooth="yes"/>
			<point x="245" y="433"/>
			<point x="274" y="457"/>
			<point x="320" y="457" type="curve" smooth="yes"/>
			<point x="356" y="457"/>
			<point x="383" y="447"/>
			<point x="428" y="423" type="curve"/>
			<point x="485" y="518" type="line"/>
			<point x="432" y="561"/>
			<point x="373" y="576"/>
			<point x="307" y="576" type="curve" smooth="yes"/>
			<point x="187" y="576"/>
			<point x="104" y="514"/>
			<point x="104" y="407" type="curve" smooth="yes"/>
			<point x="104" y="342"/>
			<point x="146" y="301"/>
			<point x="146" y="233" type="curve" smooth="yes"/>
			<point x="146" y="166"/>
			<point x="104" y="116"/>
			<point x="48" y="91" type="curve"/>
		</contour>
		<contour>
			<point x="52" y="237" type="line"/>
			<point x="410" y="237" type="line"/>
			<point x="410" y="327" type="line"/>
			<point x="120" y="327" type="line"/>
			<point x="52" y="322" type="line"/>
		</contour>
	</outline>
</glyph>
<glyph name="yen.S" format="2">
	<unicode hex="00A5"/>
	<advance width="528"/>
	<outline>
		<contour>
			<point x="190" y="0" type="line"/>
			<point x="337" y="0" type="line"/>
			<point x="337" y="127" type="line"/>
			<point x="491" y="127" type="line"/>
			<point x="491" y="202" type="line"/>
			<point x="337" y="202" type="line"/>
			<point x="337" y="252" type="line"/>
			<point x="491" y="252" type="line"/>
			<point x="491" y="326" type="line"/>
			<point x="369" y="326" type="line"/>
			<point x="516" y="564" type="line"/>
			<point x="368" y="564" type="line"/>
			<point x="324" y="474" type="line" smooth="yes"/>
			<point x="305" y="431"/>
			<point x="285" y="390"/>
			<point x="268" y="346" type="curve"/>
			<point x="264" y="346" type="line"/>
			<point x="246" y="390"/>
			<point x="227" y="432"/>
			<point x="208" y="474" type="curve" smooth="yes"/>
			<point x="164" y="564" type="line"/>
			<point x="12" y="564" type="line"/>
			<point x="159" y="326" type="line"/>
			<point x="37" y="326" type="line"/>
			<point x="37" y="252" type="line"/>
			<point x="190" y="252" type="line"/>
			<point x="190" y="202" type="line"/>
			<point x="37" y="202" type="line"/>
			<point x="37" y="127" type="line"/>
			<point x="190" y="127" type="line"/>
		</contour>
	</outline>
</glyph>
<glyph name="copyright.S" format="2">
	<unicode hex="00A9"/>
	<advance width="750"/>
	<outline>
		<contour>
			<point x="375" y="-50" type="curve" smooth="yes"/>
			<point x="557" y="-50"/>
			<point x="704" y="77"/>
			<point x="704" y="284" type="curve" smooth="yes"/>
			<point x="704" y="490"/>
			<point x="557" y="614"/>
			<point x="375" y="614" type="curve" smooth="yes"/>
			<point x="193" y="614"/>
			<point x="46" y="490"/>
			<point x="46" y="284" type="curve" smooth="yes"/>
			<point x="46" y="77"/>
			<point x="193" y="-50"/>
		</contour>
		<contour>
			<point x="375" y="16" type="curve" smooth="yes"/>
			<point x="221" y="16"/>
			<point x="108" y="123"/>
			<point x="108" y="284" type="curve" smooth="yes"/>
			<point x="108" y="444"/>
			<point x="221" y="548"/>
			<point x="375" y="548" type="curve" smooth="yes"/>
			<point x="529" y="548"/>
			<point x="642" y="444"/>
			<point x="642" y="284" type="curve" smooth="yes"/>
			<point x="642" y="123"/>
			<point x="529" y="16"/>
		</contour>
		<contour>
			<point x="388" y="87" type="curve" smooth="yes"/>
			<point x="436" y="87"/>
			<point x="475" y="102"/>
			<point x="514" y="134" type="curve"/>
			<point x="469" y="214" type="line"/>
			<point x="442" y="195"/>
			<point x="422" y="185"/>
			<point x="391" y="185" type="curve" smooth="yes"/>
			<point x="332" y="185"/>
			<point x="292" y="222"/>
			<point x="292" y="282" type="curve" smooth="yes"/>
			<point x="292" y="344"/>
			<point x="331" y="380"/>
			<point x="389" y="380" type="curve" smooth="yes"/>
			<point x="416" y="380"/>
			<point x="435" y="372"/>
			<point x="459" y="355" type="curve"/>
			<point x="504" y="432" type="line"/>
			<point x="470" y="460"/>
			<point x="431" y="478"/>
			<point x="385" y="478" type="curve" smooth="yes"/>
			<point x="277" y="478"/>
			<point x="198" y="404"/>
			<point x="198" y="279" type="curve" smooth="yes"/>
			<point x="198" y="159"/>
			<point x="278" y="87"/>
		</contour>
	</outline>
</glyph>
<glyph name="paragraph.S" format="2">
	<unicode hex="00B6"/>
	<advance width="636"/>
	<outline>
		<contour>
			<point x="393" y="-120" type="line"/>
			<point x="540" y="-120" type="line"/>
			<point x="540" y="564" type="line"/>
			<point x="393" y="564" type="line"/>
		</contour>
		<contour>
			<point x="297" y="110" type="curve" smooth="yes"/>
			<point x="337" y="110" type="line"/>
			<point x="337" y="564" type="line"/>
			<point x="293" y="564" type="line" smooth="yes"/>
			<point x="154" y="564"/>
			<point x="39" y="509"/>
			<point x="39" y="342" type="curve" smooth="yes"/>
			<point x="39" y="188"/>
			<point x="155" y="110"/>
		</contour>
	</outline>
</glyph>
<glyph name="Eth" format="2">
	<unicode hex="00D0"/>
	<advance width="655"/>
	<outline>
		<contour>
			<point x="22" y="289" type="line"/>
			<point x="369" y="289" type="line"/>
			<point x="369" y="386" type="line"/>
			<point x="99" y="386" type="line"/>
			<point x="22" y="380" type="line"/>
		</contour>
		<component base="D" xOffset="20"/>
	</outline>
	<anchor name="aboveUC" x="345" y="674"/>
	<anchor name="belowLC" x="335" y="-22"/>
</glyph>
<glyph name="Hbar" format="2">
	<unicode hex="0126"/>
	<advance width="714"/>
	<outline>
		<contour>
			<point x="22" y="475" type="line"/>
			<point x="691" y="475" type="line"/>
			<point x="691" y="572" type="line"/>
			<point x="102" y="572" type="line"/>
			<point x="22" y="566" type="line"/>
		</contour>
		<component base="H" xOffset="20"/>
	</outline>
</glyph>
<glyph name="hbar" format="2">
	<unicode hex="0127"/>
	<advance width="575"/>
	<outline>
		<contour>
			<point x="68" y="0" type="line"/>
			<point x="215" y="0" type="line"/>
			<point x="215" y="288" type="line"/>
			<point x="248" y="319"/>
			<point x="270" y="336"/>
			<point x="307" y="336" type="curve" smooth="yes"/>
			<point x="350" y="336"/>
			<point x="369" y="314"/>
			<point x="369" y="242" type="curve" smooth="yes"/>
			<point x="369" y="0" type="line"/>
			<point x="516" y="0" type="line"/>
			<point x="516" y="261" type="line" smooth="yes"/>
			<point x="516" y="385"/>
			<point x="470" y="461"/>
			<point x="362" y="461" type="curve" smooth="yes"/>
			<point x="294" y="461"/>
			<point x="246" y="427"/>
			<point x="209" y="393" type="curve"/>
			<point x="215" y="483" type="line"/>
			<point x="215" y="701" type="line"/>
			<point x="68" y="701" type="line"/>
		</contour>
		<contour>
			<point x="-3" y="530" type="line"/>
			<point x="384" y="530" type="line"/>
			<point x="384" y="627" type="line"/>
			<point x="76" y="627" type="line"/>
			<point x="-3" y="621" type="line"/>
		</contour>
	</outline>
</glyph>
<glyph name="dotlessi" format="2">
	<unicode hex="0131"/>
	<advance width="276"/>
	<outline>
		<contour>
			<point x="65" y="0" type="line"/>
			<point x="212" y="0" type="line"/>
			<point x="212" y="496" type="line"/>
			<point x="65" y="496" type="line"/>
		</contour>
	</outline>
	<anchor name="aboveLC" x="138" y="516"/>
	<anchor name="belowLC" x="138" y="-20"/>
	<anchor name="ogonekLC" x="179" y="0"/>
	<anchor name="baseLC" x="138" y="0"/>
</glyph>
<glyph name="dezh" format="2">
	<unicode hex="02A4"/>
	<advance width="936"/>
	<outline>
		<contour>
			<point x="416" y="381" type="line"/>
			<point x="624" y="381" type="line"/>
			<point x="624" y="496" type="line"/>
			<point x="416" y="496" type="line"/>
		</contour>
		<component base="d"/>
		<component base="ezh" xOffset="476"/>
	</outline>
	<anchor name="aboveUC" x="468" y="730"/>
	<anchor name="belowLC" x="445" y="-20"/>
</glyph>
<glyph name="primemod" format="2">
	<unicode hex="02B9"/>
	<advance width="300"/>
	<outline>
		<contour>
			<point x="168" y="411" type="line"/>
			<point x="227" y="579" type="line"/>
			<point x="256" y="702" type="line"/>
			<point x="111" y="714" type="line"/>
			<point x="72" y="418" type="line"/>
		</contour>
	</outline>
</glyph>
<glyph name="dotaccentcmb" format="2">
	<unicode hex="0307"/>
	<outline>
		<contour>
			<point x="0" y="569" type="curve" smooth="yes"/>
			<point x="48" y="569"/>
			<point x="81" y="601"/>
			<point x="81" y="646" type="curve" smooth="yes"/>
			<point x="81" y="691"/>
			<point x="48" y="723"/>
			<point x="0" y="723" type="curve" smooth="yes"/>
			<point x="-48" y="723"/>
			<point x="-81" y="691"/>
			<point x="-81" y="646" type="curve" smooth="yes"/>
			<point x="-81" y="601"/>
			<point x="-48" y="569"/>
		</contour>
	</outline>
	<anchor name="_aboveLC" x="0" y="516"/>
	<anchor name="aboveLC" x="0" y="720"/>
</glyph>
<glyph name="heHatafSegol" format="2">
	<unicode hex="05B1"/>
	<outline>
		<contour>
			<point x="128" y="-278" type="curve" smooth="yes"/>
			<point x="152" y="-278"/>
			<point x="167" y="-260"/>
			<point x="167" y="-239" type="curve" smooth="yes"/>
			<point x="167" y="-216"/>
			<point x="152" y="-200"/>
			<point x="128" y="-200" type="curve" smooth="yes"/>
			<point x="105" y="-200"/>
			<point x="90" y="-216"/>
			<point x="90" y="-239" type="curve" smooth="yes"/>
			<point x="90" y="-260"/>
			<point x="105" y="-278"/>
		</contour>
		<contour>
			<point x="128" y="-152" type="curve" smooth="yes"/>
			<point x="152" y="-152"/>
			<point x="167" y="-137"/>
			<point x="167" y="-115" type="curve" smooth="yes"/>
			<point x="167" y="-92"/>
			<point x="152" y="-75"/>
			<point x="128" y="-75" type="curve" smooth="yes"/>
			<point x="105" y="-75"/>
			<point x="90" y="-92"/>
			<point x="90" y="-115" type="curve" smooth="yes"/>
			<point x="90" y="-137"/>
			<point x="105" y="-152"/>
		</contour>
		<contour>
			<point x="1" y="-152" type="curve" smooth="yes"/>
			<point x="24" y="-152"/>
			<point x="39" y="-137"/>
			<point x="39" y="-115" type="curve" smooth="yes"/>
			<point x="39" y="-92"/>
			<point x="24" y="-75"/>
			<point x="1" y="-75" type="curve" smooth="yes"/>
			<point x="-20" y="-75"/>
			<point x="-38" y="-92"/>
			<point x="-38" y="-115" type="curve" smooth="yes"/>
			<point x="-38" y="-137"/>
			<point x="-20" y="-152"/>
		</contour>
		<contour>
			<point x="-62" y="-278" type="curve" smooth="yes"/>
			<point x="-42" y="-278"/>
			<point x="-26" y="-260"/>
			<point x="-26" y="-239" type="curve" smooth="yes"/>
			<point x="-26" y="-216"/>
			<point x="-42" y="-200"/>
			<point x="-62" y="-200" type="curve" smooth="yes"/>
			<point x="-85" y="-200"/>
			<point x="-102" y="-216"/>
			<point x="-102" y="-239" type="curve" smooth="yes"/>
			<point x="-102" y="-260"/>
			<point x="-85" y="-278"/>
		</contour>
		<contour>
			<point x="-128" y="-152" type="curve" smooth="yes"/>
			<point x="-105" y="-152"/>
			<point x="-92" y="-137"/>
			<point x="-92" y="-115" type="curve" smooth="yes"/>
			<point x="-92" y="-92"/>
			<point x="-105" y="-75"/>
			<point x="-128" y="-75" type="curve" smooth="yes"/>
			<point x="-150" y="-75"/>
			<point x="-165" y="-92"/>
			<point x="-165" y="-115" type="curve" smooth="yes"/>
			<point x="-165" y="-137"/>
			<point x="-150" y="-152"/>
		</contour>
	</outline>
	<anchor name="_belowPrimaryHE" x="0" y="-30"/>
	<anchor name="_belowLeftHE" x="-147" y="-30"/>
	<anchor name="belowPrimaryHE" x="-241" y="-30"/>
	<anchor name="_belowSecondaryHE" x="70" y="-30"/>
</glyph>
<glyph name="heHatafPatah" format="2">
	<unicode hex="05B2"/>
	<outline>
		<contour>
			<point x="-138" y="-131" type="line"/>
			<point x="18" y="-131" type="line"/>
			<point x="18" y="-82" type="line"/>
			<point x="-138" y="-82" type="line"/>
		</contour>
		<contour>
			<point x="111" y="-160" type="curve" smooth="yes"/>
			<point x="134" y="-160"/>
			<point x="154" y="-144"/>
			<point x="154" y="-118" type="curve" smooth="yes"/>
			<point x="154" y="-93"/>
			<point x="134" y="-75"/>
			<point x="111" y="-75" type="curve" smooth="yes"/>
			<point x="89" y="-75"/>
			<point x="69" y="-93"/>
			<point x="69" y="-118" type="curve" smooth="yes"/>
			<point x="69" y="-143"/>
			<point x="89" y="-160"/>
		</contour>
		<contour>
			<point x="111" y="-285" type="curve" smooth="yes"/>
			<point x="134" y="-285"/>
			<point x="154" y="-269"/>
			<point x="154" y="-243" type="curve" smooth="yes"/>
			<point x="154" y="-218"/>
			<point x="134" y="-200"/>
			<point x="111" y="-200" type="curve" smooth="yes"/>
			<point x="89" y="-200"/>
			<point x="69" y="-218"/>
			<point x="69" y="-243" type="curve" smooth="yes"/>
			<point x="69" y="-268"/>
			<point x="89" y="-285"/>
		</contour>
	</outline>
	<anchor name="_belowPrimaryHE" x="0" y="-30"/>
	<anchor name="_belowLeftHE" x="-136" y="-30"/>
	<anchor name="belowPrimaryHE" x="-205" y="-30"/>
	<anchor name="_belowSecondaryHE" x="50" y="-30"/>
</glyph>
<glyph name="heQamats" format="2">
	<unicode hex="05B8"/>
	<outline>
		<contour>
			<point x="-30" y="-240" type="line"/>
			<point x="30" y="-240" type="line"/>
			<point x="30" y="-143" type="line"/>
			<point x="106" y="-143" type="line"/>
			<point x="106" y="-82" type="line"/>
			<point x="-106" y="-82" type="line"/>
			<point x="-106" y="-143" type="line"/>
			<point x="-30" y="-143" type="line"/>
		</contour>
	</outline>
	<anchor name="_belowPrimaryHE" x="0" y="-23"/>
	<anchor name="_belowLeftHE" x="-107" y="-23"/>
	<anchor name="_belowRightHE" x="107" y="-23"/>
	<anchor name="belowPrimaryHE" x="-176" y="-23"/>
	<anchor name="_belowSecondaryHE" x="0" y="-23"/>
	<guideline y="46" identifier="Ota23jXeoc"/>
	<guideline x="-87" identifier="sFmUGK18RC"/>
	<guideline x="-176" identifier="prZ02GHauW"/>
</glyph>
<glyph name="heHolam" format="2">
	<unicode hex="05B9"/>
	<outline>
		<contour>
			<point x="0" y="580" type="curve" smooth="yes"/>
			<point x="22" y="580"/>
			<point x="42" y="596"/>
			<point x="42" y="623" type="curve" smooth="yes"/>
			<point x="42" y="648"/>
			<point x="22" y="665"/>
			<point x="0" y="665" type="curve" smooth="yes"/>
			<point x="-22" y="665"/>
			<point x="-42" y="648"/>
			<point x="-42" y="623" type="curve" smooth="yes"/>
			<point x="-42" y="597"/>
			<point x="-22" y="580"/>
		</contour>
	</outline>
	<anchor name="_aboveLeftHE" x="0" y="541"/>
</glyph>
<glyph name="heHolamHaser" format="2">
	<unicode hex="05BA"/>
	<outline>
		<contour>
			<point x="0" y="580" type="curve" smooth="yes"/>
			<point x="22" y="580"/>
			<point x="42" y="596"/>
			<point x="42" y="623" type="curve" smooth="yes"/>
			<point x="42" y="648"/>
			<point x="22" y="665"/>
			<point x="0" y="665" type="curve" smooth="yes"/>
			<point x="-22" y="665"/>
			<point x="-42" y="648"/>
			<point x="-42" y="623" type="curve" smooth="yes"/>
			<point x="-42" y="597"/>
			<point x="-22" y="580"/>
		</contour>
	</outline>
	<anchor name="_holamHE" x="0" y="541"/>
</glyph>
<glyph name="heQubuts" format="2">
	<unicode hex="05BB"/>
	<outline>
		<contour>
			<point x="-79" y="-151" type="curve" smooth="yes"/>
			<point x="-57" y="-151"/>
			<point x="-39" y="-135"/>
			<point x="-39" y="-110" type="curve" smooth="yes"/>
			<point x="-39" y="-88"/>
			<point x="-57" y="-71"/>
			<point x="-79" y="-71" type="curve" smooth="yes"/>
			<point x="-103" y="-71"/>
			<point x="-119" y="-89"/>
			<point x="-119" y="-111" type="curve" smooth="yes"/>
			<point x="-119" y="-135"/>
			<point x="-103" y="-151"/>
		</contour>
		<contour>
			<point x="0" y="-243" type="curve" smooth="yes"/>
			<point x="22" y="-243"/>
			<point x="41" y="-223"/>
			<point x="41" y="-202" type="curve" smooth="yes"/>
			<point x="41" y="-179"/>
			<point x="22" y="-161"/>
			<point x="0" y="-161" type="curve" smooth="yes"/>
			<point x="-22" y="-161"/>
			<point x="-41" y="-179"/>
			<point x="-41" y="-202" type="curve" smooth="yes"/>
			<point x="-41" y="-223"/>
			<point x="-22" y="-243"/>
		</contour>
		<contour>
			<point x="79" y="-336" type="curve" smooth="yes"/>
			<point x="99" y="-336"/>
			<point x="118" y="-321"/>
			<point x="118" y="-296" type="curve" smooth="yes"/>
			<point x="118" y="-275"/>
			<point x="99" y="-256"/>
			<point x="79" y="-256" type="curve" smooth="yes"/>
			<point x="55" y="-256"/>
			<point x="38" y="-275"/>
			<point x="38" y="-296" type="curve" smooth="yes"/>
			<point x="38" y="-321"/>
			<point x="55" y="-336"/>
		</contour>
	</outline>
	<anchor name="_belowPrimaryHE" x="0" y="-30"/>
	<anchor name="_belowLeftHE" x="-111" y="-30"/>
	<anchor name="_belowRightHE" x="65" y="-30"/>
	<anchor name="belowPrimaryHE" x="-186" y="-30"/>
	<anchor name="_belowSecondaryHE" x="0" y="-30"/>
	<guideline x="-195" identifier="q1OXs8zNLH"/>
</glyph>
<glyph name="heDagesh" format="2">
	<unicode hex="05BC"/>
	<outline>
		<contour>
			<point x="0" y="214" type="curve" smooth="yes"/>
			<point x="22" y="214"/>
			<point x="42" y="230"/>
			<point x="42" y="256" type="curve" smooth="yes"/>
			<point x="42" y="281"/>
			<point x="22" y="299"/>
			<point x="0" y="299" type="curve" smooth="yes"/>
			<point x="-22" y="299"/>
			<point x="-42" y="281"/>
			<point x="-42" y="256" type="curve" smooth="yes"/>
			<point x="-42" y="230"/>
			<point x="-22" y="214"/>
		</contour>
	</outline>
	<anchor name="_centerHE" x="0" y="256"/>
	<anchor name="centerSecondaryHE" x="0" y="198"/>
	<anchor name="_centerSecondaryHE" x="0" y="342"/>
	<guideline y="285" identifier="znpAucETLd"/>
</glyph>
<glyph name="heMeteg" format="2">
	<unicode hex="05BD"/>
	<outline>
		<contour>
			<point x="-19" y="-271" type="line"/>
			<point x="19" y="-271" type="line"/>
			<point x="19" y="-84" type="line"/>
			<point x="-19" y="-84" type="line"/>
		</contour>
	</outline>
	<anchor name="_belowPrimaryHE" x="0" y="-30"/>
	<anchor name="_belowLeftHE" x="-24" y="-30"/>
	<anchor name="_belowRightHE" x="24" y="-30"/>
	<anchor name="_belowSecondaryHE" x="0" y="-30"/>
</glyph>
<glyph name="heMaqaf" format="2">
	<unicode hex="05BE"/>
	<advance width="339"/>
	<outline>
		<contour>
			<point x="38" y="437" type="line"/>
			<point x="301" y="437" type="line"/>
			<point x="301" y="564" type="line"/>
			<point x="38" y="564" type="line"/>
		</contour>
	</outline>
</glyph>
<glyph name="heRafe" format="2">
	<unicode hex="05BF"/>
	<outline>
		<contour>
			<point x="-109" y="591" type="line"/>
			<point x="109" y="591" type="line"/>
			<point x="109" y="641" type="line"/>
			<point x="-109" y="641" type="line"/>
		</contour>
	</outline>
	<anchor name="_aboveHE" x="0" y="536"/>
</glyph>
<glyph name="hePaseq" format="2">
	<unicode hex="05C0"/>
	<advance width="307"/>
	<outline>
		<contour>
			<point x="100" y="-106" type="line"/>
			<point x="196" y="-106" type="line"/>
			<point x="196" y="625" type="line"/>
			<point x="100" y="625" type="line"/>
		</contour>
	</outline>
</glyph>
<glyph name="heQamatsQatan" format="2">
	<unicode hex="05C7"/>
	<outline>
		<contour>
			<point x="-27" y="-302" type="line"/>
			<point x="27" y="-302" type="line"/>
			<point x="22" y="-131" type="line"/>
			<point x="97" y="-131" type="line"/>
			<point x="97" y="-82" type="line"/>
			<point x="-99" y="-82" type="line"/>
			<point x="-99" y="-131" type="line"/>
			<point x="-22" y="-131" type="line"/>
		</contour>
	</outline>
	<anchor name="_belowPrimaryHE" x="0" y="-30"/>
	<anchor name="_belowLeftHE" x="-107" y="-30"/>
	<anchor name="_belowRightHE" x="107" y="-30"/>
	<anchor name="belowPrimaryHE" x="-165" y="-30"/>
	<anchor name="_belowSecondaryHE" x="0" y="-30"/>
	<guideline y="46" identifier="0QQY0Nsl6b"/>
</glyph>
<glyph name="heAlef" format="2">
	<unicode hex="05D0"/>
	<advance width="633"/>
	<outline>
		<contour>
			<point x="457" y="186" type="line"/>
			<point x="560" y="274"/>
			<point x="600" y="343"/>
			<point x="600" y="428" type="curve" smooth="yes"/>
			<point x="600" y="524"/>
			<point x="550" y="564"/>
			<point x="437" y="564" type="curve" smooth="yes"/>
			<point x="356" y="564" type="line"/>
			<point x="356" y="417" type="line"/>
			<point x="382" y="417" type="line" smooth="yes"/>
			<point x="449" y="417"/>
			<point x="473" y="401"/>
			<point x="473" y="366" type="curve" smooth="yes"/>
			<point x="473" y="337"/>
			<point x="452" y="300"/>
			<point x="400" y="258" type="curve"/>
		</contour>
		<contour>
			<point x="62" y="0" type="curve"/>
			<point x="219" y="0" type="line"/>
			<point x="214" y="35"/>
			<point x="210" y="70"/>
			<point x="210" y="103" type="curve" smooth="yes"/>
			<point x="210" y="186"/>
			<point x="216" y="264"/>
			<point x="250" y="350" type="curve"/>
			<point x="164" y="376" type="line"/>
			<point x="102" y="299"/>
			<point x="60" y="178"/>
			<point x="60" y="48" type="curve" smooth="yes"/>
			<point x="60" y="31"/>
			<point x="60" y="17"/>
		</contour>
		<contour>
			<point x="487" y="-12" type="curve"/>
			<point x="619" y="69" type="line"/>
			<point x="455" y="199"/>
			<point x="274" y="391"/>
			<point x="187" y="567" type="curve"/>
			<point x="41" y="514" type="line"/>
			<point x="144" y="339"/>
			<point x="334" y="115"/>
		</contour>
	</outline>
	<anchor name="aboveHE" x="273" y="541"/>
	<anchor name="belowPrimaryHE" x="308" y="-30"/>
	<anchor name="aboveLeftHE" x="1" y="541"/>
	<anchor name="centerHE" x="266" y="94"/>
</glyph>
<glyph name="heBet" format="2">
	<unicode hex="05D1"/>
	<advance width="548"/>
	<outline>
		<contour>
			<point x="46" y="0" type="line"/>
			<point x="513" y="0" type="line"/>
			<point x="513" y="127" type="line"/>
			<point x="46" y="127" type="line"/>
		</contour>
		<contour>
			<point x="452" y="0" type="line"/>
			<point x="462" y="103"/>
			<point x="468" y="190"/>
			<point x="468" y="302" type="curve" smooth="yes"/>
			<point x="468" y="485"/>
			<point x="391" y="564"/>
			<point x="237" y="564" type="curve" smooth="yes"/>
			<point x="66" y="564" type="line"/>
			<point x="66" y="437" type="line"/>
			<point x="150" y="437" type="line" smooth="yes"/>
			<point x="279" y="437"/>
			<point x="321" y="390"/>
			<point x="321" y="256" type="curve" smooth="yes"/>
			<point x="321" y="205"/>
			<point x="321" y="166"/>
			<point x="318" y="116" type="curve"/>
		</contour>
	</outline>
	<anchor name="aboveHE" x="253" y="590"/>
	<anchor name="belowPrimaryHE" x="266" y="-23"/>
	<anchor name="centerHE" x="194" y="280"/>
	<anchor name="aboveLeftHE" x="38" y="590"/>
</glyph>
<glyph name="heGimel" format="2">
	<unicode hex="05D2"/>
	<advance width="419"/>
	<outline>
		<contour>
			<point x="224" y="0" type="line"/>
			<point x="371" y="0" type="line"/>
			<point x="337" y="394" type="line" smooth="yes"/>
			<point x="327" y="505"/>
			<point x="278" y="564"/>
			<point x="157" y="564" type="curve" smooth="yes"/>
			<point x="66" y="564" type="line"/>
			<point x="66" y="437" type="line"/>
			<point x="111" y="437" type="line" smooth="yes"/>
			<point x="163" y="437"/>
			<point x="194" y="409"/>
			<point x="199" y="344" type="curve" smooth="yes"/>
		</contour>
		<contour>
			<point x="46" y="-8" type="line"/>
			<point x="156" y="-3"/>
			<point x="244" y="81"/>
			<point x="249" y="158" type="curve"/>
			<point x="231" y="247" type="line"/>
			<point x="218" y="173"/>
			<point x="141" y="134"/>
			<point x="46" y="129" type="curve"/>
		</contour>
	</outline>
	<anchor name="aboveHE" x="209" y="590"/>
	<anchor name="belowPrimaryHE" x="203" y="-23"/>
	<anchor name="centerHE" x="136" y="292"/>
	<anchor name="aboveLeftHE" x="56" y="590"/>
	<anchor name="belowPrimaryHECXT" x="225" y="-23"/>
</glyph>
<glyph name="heDalet" format="2">
	<unicode hex="05D3"/>
	<advance width="553"/>
	<outline>
		<contour>
			<point x="12" y="417" type="line"/>
			<point x="515" y="417" type="line"/>
			<point x="515" y="564" type="line"/>
			<point x="12" y="564" type="line"/>
		</contour>
		<contour>
			<point x="291" y="0" type="line"/>
			<point x="418" y="0" type="line"/>
			<point x="418" y="417" type="line"/>
			<point x="312" y="417" type="line"/>
			<point x="299" y="376"/>
			<point x="291" y="333"/>
			<point x="291" y="278" type="curve" smooth="yes"/>
		</contour>
	</outline>
</glyph>
<glyph name="heHe" format="2">
	<unicode hex="05D4"/>
	<advance width="691"/>
	<outline>
		<contour>
			<point x="487" y="0" type="line"/>
			<point x="614" y="0" type="line"/>
			<point x="614" y="352" type="line" smooth="yes"/>
			<point x="614" y="506"/>
			<point x="533" y="564"/>
			<point x="413" y="564" type="curve" smooth="yes"/>
			<point x="61" y="564" type="line"/>
			<point x="61" y="417" type="line"/>
			<point x="353" y="417" type="line" smooth="yes"/>
			<point x="436" y="417"/>
			<point x="487" y="387"/>
			<point x="487" y="283" type="curve" smooth="yes"/>
		</contour>
		<contour>
			<point x="106" y="0" type="line"/>
			<point x="233" y="0" type="line"/>
			<point x="233" y="320" type="line"/>
			<point x="127" y="320" type="line"/>
			<point x="114" y="279"/>
			<point x="106" y="236"/>
			<point x="106" y="180" type="curve" smooth="yes"/>
		</contour>
	</outline>
</glyph>
<glyph name="heVav" format="2">
	<unicode hex="05D5"/>
	<advance width="366"/>
	<outline>
		<contour>
			<point x="142" y="0" type="line"/>
			<point x="289" y="0" type="line"/>
			<point x="289" y="375" type="line" smooth="yes"/>
			<point x="289" y="514"/>
			<point x="219" y="564"/>
			<point x="112" y="564" type="curve" smooth="yes"/>
			<point x="20" y="564" type="line"/>
			<point x="20" y="437" type="line"/>
			<point x="32" y="437" type="line" smooth="yes"/>
			<point x="101" y="437"/>
			<point x="142" y="414"/>
			<point x="142" y="327" type="curve" smooth="yes"/>
		</contour>
	</outline>
	<anchor name="aboveHE" x="156" y="590"/>
	<anchor name="belowSecondaryHE" x="209" y="-23"/>
	<anchor name="centerHE" x="48" y="227"/>
	<anchor name="holamHE" x="0" y="590"/>
	<anchor name="aboveLeftHE" x="156" y="590"/>
</glyph>
<glyph name="heZayin" format="2">
	<unicode hex="05D6"/>
	<advance width="376"/>
	<outline>
		<contour>
			<point x="12" y="417" type="line"/>
			<point x="340" y="417" type="line"/>
			<point x="340" y="564" type="line"/>
			<point x="12" y="564" type="line"/>
		</contour>
		<contour>
			<point x="135" y="0" type="curve"/>
			<point x="262" y="0" type="line"/>
			<point x="244" y="159"/>
			<point x="233" y="230"/>
			<point x="233" y="316" type="curve" smooth="yes"/>
			<point x="233" y="360"/>
			<point x="233" y="382"/>
			<point x="239" y="417" type="curve"/>
			<point x="133" y="417" type="line"/>
			<point x="119" y="387"/>
			<point x="108" y="350"/>
			<point x="108" y="304" type="curve" smooth="yes"/>
			<point x="108" y="246"/>
			<point x="119" y="146"/>
		</contour>
	</outline>
	<anchor name="aboveHE" x="154" y="539"/>
	<anchor name="belowPrimaryHE" x="143" y="-30"/>
	<anchor name="centerHE" x="-6" y="202"/>
	<anchor name="aboveLeftHE" x="-32" y="541"/>
</glyph>
<glyph name="heHet" format="2">
	<unicode hex="05D7"/>
	<advance width="673"/>
	<outline>
		<contour>
			<point x="469" y="0" type="line"/>
			<point x="596" y="0" type="line"/>
			<point x="596" y="352" type="line" smooth="yes"/>
			<point x="596" y="506"/>
			<point x="514" y="564"/>
			<point x="395" y="564" type="curve" smooth="yes"/>
			<point x="59" y="564" type="line"/>
			<point x="59" y="417" type="line"/>
			<point x="334" y="417" type="line" smooth="yes"/>
			<point x="417" y="417"/>
			<point x="469" y="387"/>
			<point x="469" y="283" type="curve" smooth="yes"/>
		</contour>
		<contour>
			<point x="98" y="0" type="line"/>
			<point x="224" y="0" type="line"/>
			<point x="224" y="417" type="line"/>
			<point x="118" y="417" type="line"/>
			<point x="106" y="376"/>
			<point x="98" y="333"/>
			<point x="98" y="278" type="curve" smooth="yes"/>
		</contour>
	</outline>
	<anchor name="aboveHE" x="276" y="541"/>
	<anchor name="belowPrimaryHE" x="286" y="-30"/>
	<anchor name="centerHE" x="287" y="201"/>
	<anchor name="aboveLeftHE" x="-12" y="541"/>
</glyph>
<glyph name="heTet" format="2">
	<unicode hex="05D8"/>
	<advance width="636"/>
	<outline>
		<contour>
			<point x="332" y="-12" type="curve" smooth="yes"/>
			<point x="489" y="-12"/>
			<point x="603" y="129"/>
			<point x="603" y="363" type="curve" smooth="yes"/>
			<point x="603" y="505"/>
			<point x="554" y="564"/>
			<point x="415" y="564" type="curve" smooth="yes"/>
			<point x="337" y="564" type="line"/>
			<point x="337" y="417" type="line"/>
			<point x="378" y="417" type="line" smooth="yes"/>
			<point x="450" y="417"/>
			<point x="476" y="391"/>
			<point x="476" y="330" type="curve" smooth="yes"/>
			<point x="476" y="207"/>
			<point x="417" y="134"/>
			<point x="347" y="134" type="curve" smooth="yes"/>
			<point x="271" y="134"/>
			<point x="225" y="183"/>
			<point x="225" y="319" type="curve" smooth="yes"/>
			<point x="225" y="348"/>
			<point x="227" y="378"/>
			<point x="227" y="407" type="curve" smooth="yes"/>
			<point x="227" y="529"/>
			<point x="167" y="564"/>
			<point x="65" y="564" type="curve" smooth="yes"/>
			<point x="24" y="564" type="line"/>
			<point x="24" y="417" type="line"/>
			<point x="38" y="417" type="line" smooth="yes"/>
			<point x="83" y="417"/>
			<point x="100" y="408"/>
			<point x="100" y="338" type="curve" smooth="yes"/>
			<point x="100" y="314"/>
			<point x="98" y="290"/>
			<point x="98" y="266" type="curve" smooth="yes"/>
			<point x="98" y="75"/>
			<point x="195" y="-12"/>
		</contour>
	</outline>
	<anchor name="aboveHE" x="311" y="541"/>
	<anchor name="belowPrimaryHE" x="321" y="-30"/>
	<anchor name="centerHE" x="311" y="267"/>
	<anchor name="aboveLeftHE" x="12" y="541"/>
</glyph>
<glyph name="heYod" format="2">
	<unicode hex="05D9"/>
	<advance width="314"/>
	<outline>
		<contour>
			<point x="161" y="183" type="line"/>
			<point x="234" y="270"/>
			<point x="273" y="346"/>
			<point x="273" y="412" type="curve" smooth="yes"/>
			<point x="273" y="518"/>
			<point x="229" y="564"/>
			<point x="101" y="564" type="curve" smooth="yes"/>
			<point x="20" y="564" type="line"/>
			<point x="20" y="437" type="line"/>
			<point x="48" y="437" type="line" smooth="yes"/>
			<point x="100" y="437"/>
			<point x="121" y="415"/>
			<point x="121" y="366" type="curve" smooth="yes"/>
			<point x="121" y="330"/>
			<point x="100" y="281"/>
			<point x="66" y="232" type="curve"/>
		</contour>
	</outline>
	<anchor name="aboveHE" x="146" y="590"/>
	<anchor name="belowPrimaryHE" x="153" y="-23"/>
	<anchor name="centerHE" x="48" y="328"/>
	<anchor name="aboveLeftHE" x="-2" y="590"/>
</glyph>
<glyph name="heKafFin" format="2">
	<unicode hex="05DA"/>
	<advance width="518"/>
	<outline>
		<contour>
			<point x="314" y="-200" type="line"/>
			<point x="441" y="-200" type="line"/>
			<point x="441" y="352" type="line" smooth="yes"/>
			<point x="441" y="506"/>
			<point x="360" y="564"/>
			<point x="240" y="564" type="curve" smooth="yes"/>
			<point x="12" y="564" type="line"/>
			<point x="12" y="417" type="line"/>
			<point x="180" y="417" type="line" smooth="yes"/>
			<point x="262" y="417"/>
			<point x="314" y="387"/>
			<point x="314" y="283" type="curve" smooth="yes"/>
		</contour>
	</outline>
	<anchor name="aboveHE" x="206" y="541"/>
	<anchor name="centerSecondaryHE" x="162" y="316"/>
	<anchor name="aboveLeftHE" x="-10" y="541"/>
	<anchor name="belowPrimaryHE" x="162" y="-30"/>
</glyph>
<glyph name="heKaf" format="2">
	<unicode hex="05DB"/>
	<advance width="532"/>
	<outline>
		<contour>
			<point x="46" y="0" type="line"/>
			<point x="413" y="0" type="line"/>
			<point x="464" y="105"/>
			<point x="484" y="198"/>
			<point x="484" y="302" type="curve" smooth="yes"/>
			<point x="484" y="485"/>
			<point x="401" y="564"/>
			<point x="237" y="564" type="curve" smooth="yes"/>
			<point x="66" y="564" type="line"/>
			<point x="66" y="437" type="line"/>
			<point x="178" y="437" type="line" smooth="yes"/>
			<point x="287" y="437"/>
			<point x="332" y="389"/>
			<point x="332" y="281" type="curve" smooth="yes"/>
			<point x="332" y="224"/>
			<point x="323" y="174"/>
			<point x="305" y="127" type="curve"/>
			<point x="46" y="127" type="line"/>
		</contour>
	</outline>
	<anchor name="aboveHE" x="253" y="590"/>
	<anchor name="belowPrimaryHE" x="253" y="-23"/>
	<anchor name="centerHE" x="210" y="280"/>
	<anchor name="aboveLeftHE" x="38" y="590"/>
</glyph>
<glyph name="heLamed" format="2">
	<unicode hex="05DC"/>
	<advance width="499"/>
	<outline>
		<contour>
			<point x="123" y="-12" type="line"/>
			<point x="387" y="95"/>
			<point x="466" y="264"/>
			<point x="466" y="422" type="curve" smooth="yes"/>
			<point x="466" y="521"/>
			<point x="416" y="564"/>
			<point x="262" y="564" type="curve" smooth="yes"/>
			<point x="163" y="564" type="line"/>
			<point x="163" y="738" type="line"/>
			<point x="36" y="738" type="line"/>
			<point x="36" y="417" type="line"/>
			<point x="232" y="417" type="line" smooth="yes"/>
			<point x="297" y="417"/>
			<point x="322" y="404"/>
			<point x="322" y="355" type="curve" smooth="yes"/>
			<point x="322" y="279"/>
			<point x="252" y="189"/>
			<point x="74" y="138" type="curve"/>
		</contour>
	</outline>
	<anchor name="aboveHE" x="254" y="541"/>
	<anchor name="belowLeftHE" x="126" y="-30"/>
	<anchor name="centerHE" x="181" y="282"/>
	<anchor name="aboveLeftHE" x="-68" y="541"/>
</glyph>
<glyph name="heMemFin" format="2">
	<unicode hex="05DD"/>
	<advance width="710"/>
	<outline>
		<contour>
			<point x="162" y="0" type="line"/>
			<point x="633" y="0" type="line"/>
			<point x="633" y="352" type="line" smooth="yes"/>
			<point x="633" y="506"/>
			<point x="552" y="564"/>
			<point x="432" y="564" type="curve" smooth="yes"/>
			<point x="42" y="564" type="line"/>
			<point x="42" y="417" type="line"/>
			<point x="372" y="417" type="line" smooth="yes"/>
			<point x="454" y="417"/>
			<point x="506" y="387"/>
			<point x="506" y="283" type="curve" smooth="yes"/>
			<point x="506" y="147" type="line"/>
			<point x="162" y="147" type="line"/>
		</contour>
		<contour>
			<point x="106" y="0" type="line"/>
			<point x="233" y="0" type="line"/>
			<point x="233" y="417" type="line"/>
			<point x="127" y="417" type="line"/>
			<point x="114" y="376"/>
			<point x="106" y="333"/>
			<point x="106" y="278" type="curve" smooth="yes"/>
		</contour>
	</outline>
</glyph>
<glyph name="heMem" format="2">
	<unicode hex="05DE"/>
	<advance width="696"/>
	<outline>
		<contour>
			<point x="328" y="0" type="line"/>
			<point x="614" y="0" type="line"/>
			<point x="624" y="118"/>
			<point x="626" y="192"/>
			<point x="626" y="280" type="curve" smooth="yes"/>
			<point x="626" y="503"/>
			<point x="548" y="576"/>
			<point x="415" y="576" type="curve" smooth="yes"/>
			<point x="221" y="576"/>
			<point x="88" y="294"/>
			<point x="88" y="0" type="curve"/>
			<point x="215" y="0" type="line"/>
			<point x="215" y="225"/>
			<point x="288" y="427"/>
			<point x="396" y="427" type="curve" smooth="yes"/>
			<point x="464" y="427"/>
			<point x="499" y="395"/>
			<point x="499" y="280" type="curve" smooth="yes"/>
			<point x="499" y="232"/>
			<point x="499" y="202"/>
			<point x="494" y="140" type="curve"/>
			<point x="333" y="142" type="line"/>
		</contour>
		<contour>
			<point x="129" y="278" type="curve"/>
			<point x="183" y="268" type="line"/>
			<point x="201" y="315"/>
			<point x="217" y="369"/>
			<point x="217" y="396" type="curve" smooth="yes"/>
			<point x="217" y="513"/>
			<point x="174" y="564"/>
			<point x="62" y="564" type="curve" smooth="yes"/>
			<point x="36" y="564" type="line"/>
			<point x="36" y="417" type="line"/>
			<point x="54" y="417" type="line" smooth="yes"/>
			<point x="114" y="417"/>
			<point x="140" y="397"/>
			<point x="140" y="356" type="curve" smooth="yes"/>
			<point x="140" y="333"/>
			<point x="136" y="303"/>
		</contour>
	</outline>
	<anchor name="aboveHE" x="365" y="539"/>
	<anchor name="belowPrimaryHE" x="342" y="-30"/>
	<anchor name="centerHE" x="339" y="256"/>
	<anchor name="aboveLeftHE" x="3" y="541"/>
</glyph>
<glyph name="heNunFin" format="2">
	<unicode hex="05DF"/>
	<advance width="350"/>
	<outline>
		<contour>
			<point x="146" y="-200" type="line"/>
			<point x="273" y="-200" type="line"/>
			<point x="273" y="375" type="line" smooth="yes"/>
			<point x="273" y="514"/>
			<point x="203" y="564"/>
			<point x="96" y="564" type="curve" smooth="yes"/>
			<point x="12" y="564" type="line"/>
			<point x="12" y="417" type="line"/>
			<point x="35" y="417" type="line" smooth="yes"/>
			<point x="105" y="417"/>
			<point x="146" y="394"/>
			<point x="146" y="307" type="curve" smooth="yes"/>
		</contour>
	</outline>
</glyph>
<glyph name="heNun" format="2">
	<unicode hex="05E0"/>
	<advance width="441"/>
	<outline>
		<contour>
			<point x="46" y="0" type="line"/>
			<point x="364" y="0" type="line"/>
			<point x="364" y="373" type="line" smooth="yes"/>
			<point x="364" y="514"/>
			<point x="290" y="564"/>
			<point x="177" y="564" type="curve" smooth="yes"/>
			<point x="82" y="564" type="line"/>
			<point x="82" y="437" type="line"/>
			<point x="105" y="437" type="line" smooth="yes"/>
			<point x="176" y="437"/>
			<point x="217" y="413"/>
			<point x="217" y="325" type="curve" smooth="yes"/>
			<point x="217" y="127" type="line"/>
			<point x="46" y="127" type="line"/>
		</contour>
	</outline>
	<anchor name="aboveHE" x="220" y="590"/>
	<anchor name="belowPrimaryHE" x="201" y="-23"/>
	<anchor name="centerHE" x="138" y="280"/>
	<anchor name="aboveLeftHE" x="51" y="590"/>
	<anchor name="belowPrimaryHECXT" x="238" y="-23"/>
</glyph>
<glyph name="heSamekh" format="2">
	<unicode hex="05E1"/>
	<advance width="617"/>
	<outline>
		<contour>
			<point x="325" y="-12" type="curve" smooth="yes"/>
			<point x="476" y="-12"/>
			<point x="584" y="159"/>
			<point x="584" y="369" type="curve" smooth="yes"/>
			<point x="584" y="506"/>
			<point x="541" y="564"/>
			<point x="418" y="564" type="curve" smooth="yes"/>
			<point x="4" y="564" type="line"/>
			<point x="4" y="417" type="line"/>
			<point x="381" y="417" type="line" smooth="yes"/>
			<point x="436" y="417"/>
			<point x="457" y="392"/>
			<point x="457" y="336" type="curve" smooth="yes"/>
			<point x="457" y="228"/>
			<point x="410" y="134"/>
			<point x="340" y="134" type="curve" smooth="yes"/>
			<point x="269" y="134"/>
			<point x="204" y="203"/>
			<point x="201" y="484" type="curve"/>
			<point x="74" y="442" type="line"/>
			<point x="76" y="127"/>
			<point x="185" y="-12"/>
		</contour>
	</outline>
	<anchor name="aboveHE" x="301" y="541"/>
	<anchor name="belowPrimaryHE" x="311" y="-30"/>
	<anchor name="centerHE" x="301" y="267"/>
	<anchor name="aboveLeftHE" x="2" y="541"/>
</glyph>
<glyph name="heAyin" format="2">
	<unicode hex="05E2"/>
	<advance width="587"/>
	<outline>
		<contour>
			<point x="186" y="16" type="curve"/>
			<point x="309" y="38" type="line"/>
			<point x="285" y="226"/>
			<point x="218" y="440"/>
			<point x="158" y="570" type="curve"/>
			<point x="29" y="539" type="line"/>
			<point x="90" y="405"/>
			<point x="163" y="198"/>
		</contour>
		<contour>
			<point x="46" y="0" type="line"/>
			<point x="101" y="0" type="line" smooth="yes"/>
			<point x="411" y="0"/>
			<point x="554" y="195"/>
			<point x="554" y="367" type="curve" smooth="yes"/>
			<point x="554" y="506"/>
			<point x="506" y="564"/>
			<point x="366" y="564" type="curve" smooth="yes"/>
			<point x="296" y="564" type="line"/>
			<point x="296" y="417" type="line"/>
			<point x="329" y="417" type="line" smooth="yes"/>
			<point x="401" y="417"/>
			<point x="427" y="392"/>
			<point x="427" y="334" type="curve" smooth="yes"/>
			<point x="427" y="244"/>
			<point x="337" y="140"/>
			<point x="146" y="140" type="curve" smooth="yes"/>
			<point x="46" y="140" type="line"/>
		</contour>
	</outline>
	<anchor name="aboveHE" x="244" y="541"/>
	<anchor name="belowPrimaryHE" x="287" y="-30"/>
	<anchor name="aboveLeftHE" x="-18" y="541"/>
</glyph>
<glyph name="hePeFin" format="2">
	<unicode hex="05E3"/>
	<advance width="604"/>
	<outline>
		<contour>
			<point x="530" y="-200" type="line"/>
			<point x="530" y="352" type="line" smooth="yes"/>
			<point x="530" y="506"/>
			<point x="448" y="564"/>
			<point x="329" y="564" type="curve" smooth="yes"/>
			<point x="71" y="564" type="line"/>
			<point x="71" y="417" type="line"/>
			<point x="268" y="417" type="line" smooth="yes"/>
			<point x="351" y="417"/>
			<point x="403" y="387"/>
			<point x="403" y="283" type="curve" smooth="yes"/>
			<point x="403" y="-200" type="line"/>
		</contour>
		<contour>
			<point x="247" y="172" type="curve" smooth="yes"/>
			<point x="297" y="172" type="line"/>
			<point x="297" y="320" type="line"/>
			<point x="267" y="320" type="line" smooth="yes"/>
			<point x="223" y="320"/>
			<point x="204" y="331"/>
			<point x="204" y="362" type="curve" smooth="yes"/>
			<point x="204" y="393"/>
			<point x="228" y="417"/>
			<point x="265" y="417" type="curve"/>
			<point x="265" y="480" type="line"/>
			<point x="166" y="480"/>
			<point x="77" y="410"/>
			<point x="77" y="314" type="curve" smooth="yes"/>
			<point x="77" y="226"/>
			<point x="131" y="172"/>
		</contour>
	</outline>
	<anchor name="aboveHE" x="264" y="541"/>
	<anchor name="belowRightHE" x="295" y="-30"/>
	<anchor name="centerHE" x="287" y="169"/>
	<anchor name="aboveLeftHE" x="16" y="541"/>
</glyph>
<glyph name="hePe" format="2">
	<unicode hex="05E4"/>
	<advance width="632"/>
	<outline>
		<contour>
			<point x="46" y="0" type="line"/>
			<point x="542" y="0" type="line"/>
			<point x="554" y="101"/>
			<point x="562" y="190"/>
			<point x="562" y="302" type="curve" smooth="yes"/>
			<point x="562" y="485"/>
			<point x="485" y="564"/>
			<point x="331" y="564" type="curve" smooth="yes"/>
			<point x="71" y="564" type="line"/>
			<point x="71" y="417" type="line"/>
			<point x="264" y="417" type="line" smooth="yes"/>
			<point x="393" y="417"/>
			<point x="435" y="365"/>
			<point x="435" y="217" type="curve" smooth="yes"/>
			<point x="435" y="191"/>
			<point x="433" y="164"/>
			<point x="430" y="140" type="curve"/>
			<point x="46" y="140" type="line"/>
		</contour>
		<contour>
			<point x="247" y="202" type="curve" smooth="yes"/>
			<point x="297" y="202" type="line"/>
			<point x="297" y="333" type="line"/>
			<point x="267" y="333" type="line" smooth="yes"/>
			<point x="223" y="333"/>
			<point x="204" y="343"/>
			<point x="204" y="372" type="curve" smooth="yes"/>
			<point x="204" y="398"/>
			<point x="222" y="417"/>
			<point x="245" y="417" type="curve"/>
			<point x="245" y="480" type="line"/>
			<point x="156" y="480"/>
			<point x="77" y="415"/>
			<point x="77" y="330" type="curve" smooth="yes"/>
			<point x="77" y="250"/>
			<point x="131" y="202"/>
		</contour>
	</outline>
	<anchor name="aboveHE" x="287" y="541"/>
	<anchor name="belowPrimaryHE" x="267" y="-30"/>
	<anchor name="centerHE" x="299" y="233"/>
	<anchor name="aboveLeftHE" x="14" y="541"/>
</glyph>
<glyph name="heTsadiFin" format="2">
	<unicode hex="05E5"/>
	<advance width="555"/>
	<outline>
		<contour>
			<point x="231" y="76" type="line"/>
			<point x="426" y="175"/>
			<point x="522" y="301"/>
			<point x="522" y="420" type="curve" smooth="yes"/>
			<point x="522" y="521"/>
			<point x="473" y="564"/>
			<point x="358" y="564" type="curve" smooth="yes"/>
			<point x="297" y="564" type="line"/>
			<point x="297" y="417" type="line"/>
			<point x="319" y="417" type="line" smooth="yes"/>
			<point x="377" y="417"/>
			<point x="395" y="399"/>
			<point x="395" y="363" type="curve" smooth="yes"/>
			<point x="395" y="307"/>
			<point x="338" y="246"/>
			<point x="134" y="169" type="curve"/>
		</contour>
		<contour>
			<point x="108" y="-200" type="line"/>
			<point x="235" y="-200" type="line"/>
			<point x="235" y="395" type="line" smooth="yes"/>
			<point x="235" y="520"/>
			<point x="165" y="564"/>
			<point x="61" y="564" type="curve" smooth="yes"/>
			<point x="12" y="564" type="line"/>
			<point x="12" y="417" type="line"/>
			<point x="34" y="417" type="line" smooth="yes"/>
			<point x="80" y="417"/>
			<point x="108" y="398"/>
			<point x="108" y="327" type="curve" smooth="yes"/>
		</contour>
	</outline>
	<anchor name="aboveHE" x="230" y="541"/>
	<anchor name="belowLeftHE" x="329" y="-30"/>
	<anchor name="aboveLeftHE" x="3" y="541"/>
</glyph>
<glyph name="heTsadi" format="2">
	<unicode hex="05E6"/>
	<advance width="679"/>
	<outline>
		<contour>
			<point x="45" y="0" type="line"/>
			<point x="571" y="0" type="line"/>
			<point x="596" y="147" type="line"/>
			<point x="45" y="147" type="line"/>
		</contour>
		<contour>
			<point x="485" y="68" type="curve"/>
			<point x="596" y="147" type="line"/>
			<point x="379" y="244"/>
			<point x="258" y="373"/>
			<point x="138" y="566" type="curve"/>
			<point x="26" y="488" type="line"/>
			<point x="147" y="289"/>
			<point x="273" y="157"/>
		</contour>
		<contour>
			<point x="464" y="217" type="line"/>
			<point x="559" y="298"/>
			<point x="592" y="357"/>
			<point x="592" y="420" type="curve" smooth="yes"/>
			<point x="592" y="521"/>
			<point x="544" y="564"/>
			<point x="428" y="564" type="curve" smooth="yes"/>
			<point x="340" y="564" type="line"/>
			<point x="340" y="417" type="line"/>
			<point x="373" y="417" type="line" smooth="yes"/>
			<point x="443" y="417"/>
			<point x="465" y="399"/>
			<point x="465" y="363" type="curve" smooth="yes"/>
			<point x="465" y="334"/>
			<point x="442" y="306"/>
			<point x="353" y="258" type="curve"/>
		</contour>
	</outline>
</glyph>
<glyph name="heQof" format="2">
	<unicode hex="05E7"/>
	<advance width="619"/>
	<outline>
		<contour>
			<point x="330" y="-12" type="line"/>
			<point x="523" y="103"/>
			<point x="586" y="264"/>
			<point x="586" y="422" type="curve" smooth="yes"/>
			<point x="586" y="521"/>
			<point x="536" y="564"/>
			<point x="382" y="564" type="curve" smooth="yes"/>
			<point x="69" y="564" type="line"/>
			<point x="69" y="417" type="line"/>
			<point x="352" y="417" type="line" smooth="yes"/>
			<point x="417" y="417"/>
			<point x="442" y="404"/>
			<point x="442" y="355" type="curve" smooth="yes"/>
			<point x="442" y="279"/>
			<point x="391" y="204"/>
			<point x="281" y="138" type="curve"/>
		</contour>
		<contour>
			<point x="98" y="-200" type="line"/>
			<point x="224" y="-200" type="line"/>
			<point x="224" y="320" type="line"/>
			<point x="118" y="320" type="line"/>
			<point x="106" y="279"/>
			<point x="98" y="236"/>
			<point x="98" y="180" type="curve" smooth="yes"/>
		</contour>
	</outline>
	<anchor name="aboveHE" x="277" y="541"/>
	<anchor name="belowLeftHE" x="258" y="-30"/>
	<anchor name="centerHE" x="272" y="272"/>
	<anchor name="aboveLeftHE" x="0" y="541"/>
	<anchor name="belowLeftHECXT" x="339" y="-30"/>
</glyph>
<glyph name="heResh" format="2">
	<unicode hex="05E8"/>
	<advance width="518"/>
	<outline>
		<contour>
			<point x="314" y="0" type="line"/>
			<point x="441" y="0" type="line"/>
			<point x="441" y="352" type="line" smooth="yes"/>
			<point x="441" y="506"/>
			<point x="360" y="564"/>
			<point x="240" y="564" type="curve" smooth="yes"/>
			<point x="12" y="564" type="line"/>
			<point x="12" y="417" type="line"/>
			<point x="180" y="417" type="line" smooth="yes"/>
			<point x="262" y="417"/>
			<point x="314" y="387"/>
			<point x="314" y="283" type="curve" smooth="yes"/>
		</contour>
	</outline>
	<anchor name="aboveHE" x="195" y="541"/>
	<anchor name="belowSecondaryHE" x="342" y="-30"/>
	<anchor name="centerHE" x="161" y="201"/>
	<anchor name="aboveLeftHE" x="-8" y="541"/>
</glyph>
<glyph name="heShin" format="2">
	<unicode hex="05E9"/>
	<advance width="773"/>
	<outline>
		<contour>
			<point x="372" y="-12" type="curve" smooth="yes"/>
			<point x="569" y="-12"/>
			<point x="723" y="147"/>
			<point x="723" y="363" type="curve" smooth="yes"/>
			<point x="723" y="505"/>
			<point x="676" y="564"/>
			<point x="540" y="564" type="curve" smooth="yes"/>
			<point x="514" y="564" type="line"/>
			<point x="514" y="417" type="line"/>
			<point x="536" y="417" type="line" smooth="yes"/>
			<point x="580" y="417"/>
			<point x="596" y="391"/>
			<point x="596" y="330" type="curve" smooth="yes"/>
			<point x="596" y="226"/>
			<point x="493" y="137"/>
			<point x="387" y="137" type="curve" smooth="yes"/>
			<point x="270" y="137"/>
			<point x="208" y="189"/>
			<point x="208" y="342" type="curve" smooth="yes"/>
			<point x="208" y="381" type="line"/>
			<point x="81" y="320" type="line"/>
			<point x="81" y="290" type="line" smooth="yes"/>
			<point x="81" y="77"/>
			<point x="198" y="-12"/>
		</contour>
		<contour>
			<point x="338" y="119" type="line"/>
			<point x="418" y="221"/>
			<point x="467" y="310"/>
			<point x="467" y="416" type="curve" smooth="yes"/>
			<point x="467" y="520"/>
			<point x="431" y="564"/>
			<point x="320" y="564" type="curve" smooth="yes"/>
			<point x="278" y="564" type="line"/>
			<point x="278" y="417" type="line"/>
			<point x="290" y="417" type="line" smooth="yes"/>
			<point x="341" y="417"/>
			<point x="356" y="396"/>
			<point x="356" y="351" type="curve" smooth="yes"/>
			<point x="356" y="297"/>
			<point x="320" y="228"/>
			<point x="246" y="162" type="curve"/>
		</contour>
		<contour>
			<point x="81" y="301" type="line"/>
			<point x="208" y="358" type="line"/>
			<point x="208" y="407" type="line" smooth="yes"/>
			<point x="208" y="529"/>
			<point x="148" y="564"/>
			<point x="46" y="564" type="curve" smooth="yes"/>
			<point x="8" y="564" type="line"/>
			<point x="8" y="417" type="line"/>
			<point x="19" y="417" type="line" smooth="yes"/>
			<point x="64" y="417"/>
			<point x="81" y="408"/>
			<point x="81" y="338" type="curve" smooth="yes"/>
		</contour>
	</outline>
</glyph>
<glyph name="heTav" format="2">
	<unicode hex="05EA"/>
	<advance width="758"/>
	<outline>
		<contour>
			<point x="54" y="0" type="line"/>
			<point x="312" y="0" type="line"/>
			<point x="295" y="130"/>
			<point x="280" y="240"/>
			<point x="280" y="332" type="curve" smooth="yes"/>
			<point x="280" y="412"/>
			<point x="296" y="483"/>
			<point x="320" y="518" type="curve"/>
			<point x="194" y="518" type="line"/>
			<point x="171" y="483"/>
			<point x="154" y="414"/>
			<point x="154" y="334" type="curve" smooth="yes"/>
			<point x="154" y="283"/>
			<point x="160" y="223"/>
			<point x="172" y="147" type="curve"/>
			<point x="54" y="147" type="line"/>
		</contour>
		<contour>
			<point x="554" y="0" type="line"/>
			<point x="681" y="0" type="line"/>
			<point x="681" y="352" type="line" smooth="yes"/>
			<point x="681" y="506"/>
			<point x="599" y="564"/>
			<point x="480" y="564" type="curve" smooth="yes"/>
			<point x="90" y="564" type="line"/>
			<point x="90" y="417" type="line"/>
			<point x="420" y="417" type="line" smooth="yes"/>
			<point x="502" y="417"/>
			<point x="554" y="387"/>
			<point x="554" y="283" type="curve" smooth="yes"/>
		</contour>
	</outline>
</glyph>
<glyph name="heGeresh" format="2">
	<unicode hex="05F3"/>
	<advance width="270"/>
	<outline>
		<contour>
			<point x="41" y="324" type="line"/>
			<point x="136" y="328" type="line"/>
			<point x="243" y="586" type="line"/>
			<point x="113" y="580" type="line"/>
		</contour>
	</outline>
</glyph>
<glyph name="heGershayim" format="2">
	<unicode hex="05F4"/>
	<advance width="483"/>
	<outline>
		<contour>
			<point x="254" y="324" type="line"/>
			<point x="349" y="328" type="line"/>
			<point x="455" y="586" type="line"/>
			<point x="326" y="580" type="line"/>
		</contour>
		<contour>
			<point x="41" y="324" type="line"/>
			<point x="136" y="328" type="line"/>
			<point x="243" y="586" type="line"/>
			<point x="113" y="580" type="line"/>
		</contour>
	</outline>
</glyph>
<glyph name="fraction.S" format="2">
	<unicode hex="2044"/>
	<advance width="96"/>
	<outline>
		<contour>
			<point x="-160" y="-12" type="line"/>
			<point x="-76" y="-12" type="line"/>
			<point x="256" y="576" type="line"/>
			<point x="172" y="576" type="line"/>
		</contour>
	</outline>
</glyph>
<glyph name="newsheqel" format="2">
	<unicode hex="20AA"/>
	<advance width="528"/>
	<outline>
		<contour>
			<point x="11" y="0" type="line"/>
			<point x="123" y="0" type="line"/>
			<point x="123" y="533" type="line"/>
			<point x="186" y="533" type="line" smooth="yes"/>
			<point x="247" y="533"/>
			<point x="285" y="510"/>
			<point x="285" y="436" type="curve" smooth="yes"/>
			<point x="285" y="190" type="line"/>
			<point x="360" y="190" type="line"/>
			<point x="360" y="471" type="line" smooth="yes"/>
			<point x="360" y="591"/>
			<point x="294" y="635"/>
			<point x="189" y="635" type="curve" smooth="yes"/>
			<point x="11" y="635" type="line"/>
		</contour>
		<contour>
			<point x="168" y="0" type="line"/>
			<point x="345" y="0" type="line" smooth="yes"/>
			<point x="450" y="0"/>
			<point x="517" y="44"/>
			<point x="517" y="164" type="curve" smooth="yes"/>
			<point x="517" y="635" type="line"/>
			<point x="405" y="635" type="line"/>
			<point x="405" y="199" type="line" smooth="yes"/>
			<point x="405" y="125"/>
			<point x="365" y="102"/>
			<point x="302" y="102" type="curve" smooth="yes"/>
			<point x="243" y="102" type="line"/>
			<point x="243" y="445" type="line"/>
			<point x="168" y="445" type="line"/>
		</contour>
	</outline>
	<guideline x="264" y="282" angle="90" identifier="51LWLohGsJ"/>
</glyph>
<glyph name="Euro.S" format="2">
	<unicode hex="20AC"/>
	<advance width="528"/>
	<outline>
		<contour>
			<point x="339" y="-12" type="curve" smooth="yes"/>
			<point x="400" y="-12"/>
			<point x="453" y="6"/>
			<point x="501" y="44" type="curve"/>
			<point x="460" y="132" type="line"/>
			<point x="425" y="109"/>
			<point x="389" y="95"/>
			<point x="352" y="95" type="curve" smooth="yes"/>
			<point x="276" y="95"/>
			<point x="221" y="155"/>
			<point x="221" y="283" type="curve" smooth="yes"/>
			<point x="221" y="410"/>
			<point x="276" y="469"/>
			<point x="346" y="469" type="curve" smooth="yes"/>
			<point x="382" y="469"/>
			<point x="411" y="458"/>
			<point x="448" y="436" type="curve"/>
			<point x="489" y="522" type="line"/>
			<point x="442" y="561"/>
			<point x="391" y="576"/>
			<point x="333" y="576" type="curve" smooth="yes"/>
			<point x="185" y="576"/>
			<point x="75" y="470"/>
			<point x="75" y="278" type="curve" smooth="yes"/>
			<point x="75" y="91"/>
			<point x="185" y="-12"/>
		</contour>
		<contour>
			<point x="21" y="183" type="line"/>
			<point x="405" y="183" type="line"/>
			<point x="405" y="257" type="line"/>
			<point x="95" y="257" type="line"/>
			<point x="21" y="251" type="line"/>
		</contour>
		<contour>
			<point x="21" y="307" type="line"/>
			<point x="445" y="307" type="line"/>
			<point x="445" y="382" type="line"/>
			<point x="95" y="382" type="line"/>
			<point x="21" y="376" type="line"/>
		</contour>
	</outline>
</glyph>
<glyph name="ruble" format="2">
	<unicode hex="20BD"/>
	<advance width="528"/>
	<outline>
		<contour>
			<point x="112" y="0" type="line"/>
			<point x="259" y="0" type="line"/>
			<point x="259" y="266" type="line"/>
			<point x="287" y="266" type="line" smooth="yes"/>
			<point x="401" y="266"/>
			<point x="503" y="321"/>
			<point x="503" y="458" type="curve" smooth="yes"/>
			<point x="503" y="582"/>
			<point x="406" y="635"/>
			<point x="287" y="635" type="curve" smooth="yes"/>
			<point x="112" y="635" type="line"/>
		</contour>
		<contour>
			<point x="259" y="340" type="line"/>
			<point x="259" y="521" type="line"/>
			<point x="282" y="521" type="line" smooth="yes"/>
			<point x="334" y="521"/>
			<point x="367" y="497"/>
			<point x="367" y="438" type="curve" smooth="yes"/>
			<point x="367" y="379"/>
			<point x="334" y="340"/>
			<point x="282" y="340" type="curve" smooth="yes"/>
		</contour>
		<contour>
			<point x="33" y="141" type="line"/>
			<point x="437" y="141" type="line"/>
			<point x="437" y="215" type="line"/>
			<point x="112" y="215" type="line"/>
			<point x="33" y="210" type="line"/>
		</contour>
		<contour>
			<point x="33" y="266" type="line"/>
			<point x="168" y="266" type="line"/>
			<point x="168" y="340" type="line"/>
			<point x="112" y="340" type="line"/>
			<point x="33" y="334" type="line"/>
		</contour>
	</outline>
</glyph>
<glyph name="arrowleft.S" format="2">
	<unicode hex="2190"/>
	<advance width="617"/>
	<outline>
		<contour>
			<point x="300" y="13" type="line"/>
			<point x="369" y="92" type="line"/>
			<point x="219" y="223" type="line"/>
			<point x="577" y="223" type="line"/>
			<point x="577" y="340" type="line"/>
			<point x="219" y="340" type="line"/>
			<point x="369" y="472" type="line"/>
			<point x="300" y="551" type="line"/>
			<point x="22" y="284" type="line"/>
			<point x="22" y="280" type="line"/>
		</contour>
	</outline>
</glyph>
<glyph name="arrowright.S" format="2">
	<unicode hex="2192"/>
	<advance width="617"/>
	<outline>
		<contour>
			<point x="317" y="13" type="line"/>
			<point x="595" y="280" type="line"/>
			<point x="595" y="284" type="line"/>
			<point x="317" y="551" type="line"/>
			<point x="247" y="472" type="line"/>
			<point x="397" y="340" type="line"/>
			<point x="40" y="340" type="line"/>
			<point x="40" y="223" type="line"/>
			<point x="397" y="223" type="line"/>
			<point x="247" y="92" type="line"/>
		</contour>
	</outline>
</glyph>
<glyph name="arrowdown.S" format="2">
	<unicode hex="2193"/>
	<advance width="617"/>
	<outline>
		<contour>
			<point x="306" y="4" type="line"/>
			<point x="310" y="4" type="line"/>
			<point x="578" y="282" type="line"/>
			<point x="498" y="352" type="line"/>
			<point x="367" y="202" type="line"/>
			<point x="367" y="559" type="line"/>
			<point x="250" y="559" type="line"/>
			<point x="250" y="202" type="line"/>
			<point x="118" y="352" type="line"/>
			<point x="39" y="282" type="line"/>
		</contour>
	</outline>
</glyph>
<glyph name="arrowupleft.S" format="2">
	<unicode hex="2196"/>
	<advance width="617"/>
	<outline>
		<contour>
			<point x="454" y="44" type="line"/>
			<point x="537" y="127" type="line"/>
			<point x="284" y="380" type="line"/>
			<point x="483" y="367" type="line"/>
			<point x="490" y="472" type="line"/>
			<point x="105" y="480" type="line"/>
			<point x="102" y="477" type="line"/>
			<point x="109" y="91" type="line"/>
			<point x="214" y="98" type="line"/>
			<point x="201" y="297" type="line"/>
		</contour>
	</outline>
</glyph>
<glyph name="arrowupright.S" format="2">
	<unicode hex="2197"/>
	<advance width="617"/>
	<outline>
		<contour>
			<point x="154" y="44" type="line"/>
			<point x="406" y="297" type="line"/>
			<point x="393" y="98" type="line"/>
			<point x="499" y="91" type="line"/>
			<point x="506" y="476" type="line"/>
			<point x="503" y="479" type="line"/>
			<point x="118" y="472" type="line"/>
			<point x="125" y="367" type="line"/>
			<point x="324" y="380" type="line"/>
			<point x="71" y="127" type="line"/>
		</contour>
	</outline>
</glyph>
<glyph name="arrowdownright.S" format="2">
	<unicode hex="2198"/>
	<advance width="617"/>
	<outline>
		<contour>
			<point x="512" y="84" type="line"/>
			<point x="515" y="87" type="line"/>
			<point x="508" y="472" type="line"/>
			<point x="402" y="466" type="line"/>
			<point x="415" y="267" type="line"/>
			<point x="163" y="520" type="line"/>
			<point x="79" y="436" type="line"/>
			<point x="332" y="184" type="line"/>
			<point x="133" y="197" type="line"/>
			<point x="127" y="91" type="line"/>
		</contour>
	</outline>
</glyph>
<glyph name="arrowdownleft.S" format="2">
	<unicode hex="2199"/>
	<advance width="617"/>
	<outline>
		<contour>
			<point x="114" y="84" type="line"/>
			<point x="499" y="91" type="line"/>
			<point x="492" y="197" type="line"/>
			<point x="293" y="184" type="line"/>
			<point x="546" y="436" type="line"/>
			<point x="463" y="519" type="line"/>
			<point x="211" y="266" type="line"/>
			<point x="223" y="466" type="line"/>
			<point x="118" y="472" type="line"/>
			<point x="111" y="87" type="line"/>
		</contour>
	</outline>
</glyph>
<glyph name="arrowdblleft.S" format="2">
	<unicode hex="21D0"/>
	<advance width="617"/>
	<outline>
		<contour>
			<point x="300" y="13" type="line"/>
			<point x="369" y="92" type="line"/>
			<point x="153" y="280" type="line"/>
			<point x="153" y="284" type="line"/>
			<point x="369" y="472" type="line"/>
			<point x="300" y="551" type="line"/>
			<point x="22" y="284" type="line"/>
			<point x="22" y="280" type="line"/>
		</contour>
		<contour>
			<point x="166" y="318" type="line"/>
			<point x="577" y="318" type="line"/>
			<point x="577" y="404" type="line"/>
			<point x="166" y="404" type="line"/>
		</contour>
		<contour>
			<point x="166" y="160" type="line"/>
			<point x="577" y="160" type="line"/>
			<point x="577" y="245" type="line"/>
			<point x="166" y="245" type="line"/>
		</contour>
	</outline>
</glyph>
<glyph name="arrowdblup.S" format="2">
	<unicode hex="21D1"/>
	<advance width="617"/>
	<outline>
		<contour>
			<point x="118" y="212" type="line"/>
			<point x="306" y="428" type="line"/>
			<point x="310" y="428" type="line"/>
			<point x="498" y="212" type="line"/>
			<point x="578" y="281" type="line"/>
			<point x="310" y="559" type="line"/>
			<point x="306" y="559" type="line"/>
			<point x="39" y="281" type="line"/>
		</contour>
		<contour>
			<point x="345" y="4" type="line"/>
			<point x="431" y="4" type="line"/>
			<point x="431" y="415" type="line"/>
			<point x="345" y="415" type="line"/>
		</contour>
		<contour>
			<point x="186" y="4" type="line"/>
			<point x="272" y="4" type="line"/>
			<point x="272" y="415" type="line"/>
			<point x="186" y="415" type="line"/>
		</contour>
	</outline>
</glyph>
<glyph name="arrowdblright.S" format="2">
	<unicode hex="21D2"/>
	<advance width="617"/>
	<outline>
		<contour>
			<point x="317" y="13" type="line"/>
			<point x="595" y="280" type="line"/>
			<point x="595" y="284" type="line"/>
			<point x="317" y="551" type="line"/>
			<point x="247" y="472" type="line"/>
			<point x="463" y="284" type="line"/>
			<point x="463" y="280" type="line"/>
			<point x="247" y="92" type="line"/>
		</contour>
		<contour>
			<point x="40" y="160" type="line"/>
			<point x="451" y="160" type="line"/>
			<point x="451" y="245" type="line"/>
			<point x="40" y="245" type="line"/>
		</contour>
		<contour>
			<point x="40" y="318" type="line"/>
			<point x="451" y="318" type="line"/>
			<point x="451" y="404" type="line"/>
			<point x="40" y="404" type="line"/>
		</contour>
	</outline>
</glyph>
<glyph name="arrowdbldown.S" format="2">
	<unicode hex="21D3"/>
	<advance width="617"/>
	<outline>
		<contour>
			<point x="306" y="4" type="line"/>
			<point x="310" y="4" type="line"/>
			<point x="578" y="282" type="line"/>
			<point x="498" y="352" type="line"/>
			<point x="310" y="135" type="line"/>
			<point x="306" y="135" type="line"/>
			<point x="118" y="352" type="line"/>
			<point x="39" y="282" type="line"/>
		</contour>
		<contour>
			<point x="186" y="148" type="line"/>
			<point x="272" y="148" type="line"/>
			<point x="272" y="559" type="line"/>
			<point x="186" y="559" type="line"/>
		</contour>
		<contour>
			<point x="345" y="148" type="line"/>
			<point x="431" y="148" type="line"/>
			<point x="431" y="559" type="line"/>
			<point x="345" y="559" type="line"/>
		</contour>
	</outline>
</glyph>
<glyph name="heVarikaJud" format="2">
	<unicode hex="FB1E"/>
	<outline>
		<contour>
			<point x="0" y="581" type="curve" smooth="yes"/>
			<point x="89" y="581"/>
			<point x="137" y="640"/>
			<point x="141" y="716" type="curve"/>
			<point x="63" y="716" type="line"/>
			<point x="59" y="688"/>
			<point x="45" y="659"/>
			<point x="1" y="659" type="curve" smooth="yes"/>
			<point x="-37" y="659"/>
			<point x="-55" y="684"/>
			<point x="-61" y="716" type="curve"/>
			<point x="-140" y="716" type="line"/>
			<point x="-138" y="645"/>
			<point x="-95" y="581"/>
		</contour>
	</outline>
	<anchor name="_aboveHE" x="0" y="536"/>
	<guideline y="629" identifier="004QOttTDm"/>
</glyph>
<glyph name="heAlefWide" format="2">
	<unicode hex="FB21"/>
	<advance width="1428"/>
	<outline>
		<contour>
			<point x="1168" y="85" type="line"/>
			<point x="1345" y="237"/>
			<point x="1400" y="301"/>
			<point x="1400" y="428" type="curve" smooth="yes"/>
			<point x="1400" y="524"/>
			<point x="1350" y="564"/>
			<point x="1236" y="564" type="curve" smooth="yes"/>
			<point x="1156" y="564" type="line"/>
			<point x="1156" y="417" type="line"/>
			<point x="1180" y="417" type="line" smooth="yes"/>
			<point x="1249" y="417"/>
			<point x="1273" y="401"/>
			<point x="1273" y="366" type="curve" smooth="yes"/>
			<point x="1273" y="316"/>
			<point x="1230" y="259"/>
			<point x="1110" y="157" type="curve"/>
		</contour>
		<contour>
			<point x="64" y="0" type="curve"/>
			<point x="216" y="0" type="line"/>
			<point x="210" y="35"/>
			<point x="207" y="70"/>
			<point x="207" y="103" type="curve" smooth="yes"/>
			<point x="207" y="214"/>
			<point x="216" y="299"/>
			<point x="285" y="420" type="curve"/>
			<point x="202" y="446" type="line"/>
			<point x="106" y="348"/>
			<point x="62" y="211"/>
			<point x="62" y="48" type="curve" smooth="yes"/>
			<point x="62" y="31"/>
			<point x="62" y="17"/>
		</contour>
		<contour>
			<point x="1237" y="-11" type="curve"/>
			<point x="1426" y="37" type="line"/>
			<point x="812" y="268"/>
			<point x="627" y="354"/>
			<point x="217" y="571" type="curve"/>
			<point x="32" y="532" type="line"/>
			<point x="513" y="261"/>
			<point x="750" y="146"/>
		</contour>
	</outline>
	<anchor name="aboveHE" x="397" y="590"/>
	<anchor name="belowPrimaryHE" x="382" y="-23"/>
	<anchor name="aboveLeftHE" x="24" y="590"/>
	<anchor name="centerHE" x="307" y="95"/>
</glyph>
<glyph name="heDaletWide" format="2">
	<unicode hex="FB22"/>
	<advance width="1326"/>
	<outline>
		<contour>
			<point x="12" y="417" type="line"/>
			<point x="1290" y="417" type="line"/>
			<point x="1290" y="564" type="line"/>
			<point x="12" y="564" type="line"/>
		</contour>
		<contour>
			<point x="1071" y="0" type="line"/>
			<point x="1198" y="0" type="line"/>
			<point x="1198" y="417" type="line"/>
			<point x="1092" y="417" type="line"/>
			<point x="1079" y="376"/>
			<point x="1071" y="333"/>
			<point x="1071" y="278" type="curve" smooth="yes"/>
		</contour>
	</outline>
	<anchor name="aboveHE" x="626" y="590"/>
	<anchor name="belowSecondaryHE" x="1136" y="-23"/>
	<anchor name="centerHE" x="544" y="227"/>
	<anchor name="aboveLeftHE" x="-8" y="590"/>
</glyph>
<glyph name="heHeWide" format="2">
	<unicode hex="FB23"/>
	<advance width="1463"/>
	<outline>
		<contour>
			<point x="1259" y="0" type="line"/>
			<point x="1386" y="0" type="line"/>
			<point x="1386" y="352" type="line" smooth="yes"/>
			<point x="1386" y="506"/>
			<point x="1305" y="564"/>
			<point x="1185" y="564" type="curve" smooth="yes"/>
			<point x="69" y="564" type="line"/>
			<point x="69" y="417" type="line"/>
			<point x="1125" y="417" type="line" smooth="yes"/>
			<point x="1207" y="417"/>
			<point x="1259" y="387"/>
			<point x="1259" y="283" type="curve" smooth="yes"/>
		</contour>
		<contour>
			<point x="98" y="0" type="line"/>
			<point x="224" y="0" type="line"/>
			<point x="224" y="320" type="line"/>
			<point x="118" y="320" type="line"/>
			<point x="106" y="279"/>
			<point x="98" y="236"/>
			<point x="98" y="180" type="curve" smooth="yes"/>
		</contour>
	</outline>
	<anchor name="aboveHE" x="725" y="590"/>
	<anchor name="belowPrimaryHE" x="735" y="-23"/>
	<anchor name="centerHE" x="735" y="227"/>
	<anchor name="aboveLeftHE" x="36" y="590"/>
</glyph>
<glyph name="heKafWide" format="2">
	<unicode hex="FB24"/>
	<advance width="1354"/>
	<outline>
		<contour>
			<point x="46" y="0" type="line"/>
			<point x="1264" y="0" type="line"/>
			<point x="1276" y="101"/>
			<point x="1284" y="190"/>
			<point x="1284" y="302" type="curve" smooth="yes"/>
			<point x="1284" y="485"/>
			<point x="1207" y="564"/>
			<point x="1053" y="564" type="curve" smooth="yes"/>
			<point x="66" y="564" type="line"/>
			<point x="66" y="417" type="line"/>
			<point x="986" y="417" type="line" smooth="yes"/>
			<point x="1115" y="417"/>
			<point x="1157" y="365"/>
			<point x="1157" y="217" type="curve" smooth="yes"/>
			<point x="1157" y="189"/>
			<point x="1155" y="167"/>
			<point x="1152" y="142" type="curve"/>
			<point x="46" y="142" type="line"/>
		</contour>
	</outline>
	<anchor name="aboveHE" x="653" y="590"/>
	<anchor name="belowPrimaryHE" x="653" y="-23"/>
	<anchor name="centerHE" x="610" y="280"/>
	<anchor name="aboveLeftHE" x="38" y="590"/>
</glyph>
<glyph name="heLamedWide" format="2">
	<unicode hex="FB25"/>
	<advance width="1315"/>
	<outline>
		<contour>
			<point x="559" y="-12" type="line"/>
			<point x="1060" y="130"/>
			<point x="1274" y="216"/>
			<point x="1274" y="406" type="curve" smooth="yes"/>
			<point x="1274" y="512"/>
			<point x="1224" y="564"/>
			<point x="1071" y="564" type="curve" smooth="yes"/>
			<point x="188" y="564" type="line"/>
			<point x="188" y="724" type="line"/>
			<point x="61" y="724" type="line"/>
			<point x="61" y="417" type="line"/>
			<point x="1056" y="417" type="line" smooth="yes"/>
			<point x="1122" y="417"/>
			<point x="1147" y="404"/>
			<point x="1147" y="355" type="curve" smooth="yes"/>
			<point x="1147" y="286"/>
			<point x="966" y="211"/>
			<point x="510" y="116" type="curve"/>
		</contour>
	</outline>
	<anchor name="aboveHE" x="745" y="590"/>
	<anchor name="belowLeftHE" x="562" y="-23"/>
	<anchor name="centerHE" x="595" y="287"/>
	<anchor name="aboveLeftHE" x="-31" y="590"/>
</glyph>
<glyph name="heMemFinWide" format="2">
	<unicode hex="FB26"/>
	<advance width="1469"/>
	<outline>
		<contour>
			<point x="153" y="0" type="line"/>
			<point x="1392" y="0" type="line"/>
			<point x="1392" y="352" type="line" smooth="yes"/>
			<point x="1392" y="506"/>
			<point x="1311" y="564"/>
			<point x="1192" y="564" type="curve" smooth="yes"/>
			<point x="59" y="564" type="line"/>
			<point x="59" y="417" type="line"/>
			<point x="1131" y="417" type="line" smooth="yes"/>
			<point x="1214" y="417"/>
			<point x="1265" y="387"/>
			<point x="1265" y="283" type="curve" smooth="yes"/>
			<point x="1265" y="140" type="line"/>
			<point x="153" y="140" type="line"/>
		</contour>
		<contour>
			<point x="98" y="0" type="line"/>
			<point x="224" y="0" type="line"/>
			<point x="224" y="417" type="line"/>
			<point x="118" y="417" type="line"/>
			<point x="106" y="376"/>
			<point x="98" y="333"/>
			<point x="98" y="278" type="curve" smooth="yes"/>
		</contour>
	</outline>
	<anchor name="aboveHE" x="736" y="590"/>
	<anchor name="belowPrimaryHE" x="738" y="-23"/>
	<anchor name="centerHE" x="738" y="280"/>
	<anchor name="aboveLeftHE" x="33" y="590"/>
</glyph>
<glyph name="heReshWide" format="2">
	<unicode hex="FB27"/>
	<advance width="1301"/>
	<outline>
		<contour>
			<point x="1098" y="0" type="line"/>
			<point x="1225" y="0" type="line"/>
			<point x="1225" y="352" type="line" smooth="yes"/>
			<point x="1225" y="506"/>
			<point x="1143" y="564"/>
			<point x="1024" y="564" type="curve" smooth="yes"/>
			<point x="12" y="564" type="line"/>
			<point x="12" y="417" type="line"/>
			<point x="963" y="417" type="line" smooth="yes"/>
			<point x="1046" y="417"/>
			<point x="1098" y="387"/>
			<point x="1098" y="283" type="curve" smooth="yes"/>
		</contour>
	</outline>
	<anchor name="aboveHE" x="619" y="590"/>
	<anchor name="belowSecondaryHE" x="1165" y="-23"/>
	<anchor name="centerHE" x="550" y="227"/>
	<anchor name="aboveLeftHE" x="-8" y="590"/>
</glyph>
<glyph name="heTavWide" format="2">
	<unicode hex="FB28"/>
	<advance width="1486"/>
	<outline>
		<contour>
			<point x="1282" y="0" type="line"/>
			<point x="1409" y="0" type="line"/>
			<point x="1409" y="352" type="line" smooth="yes"/>
			<point x="1409" y="506"/>
			<point x="1328" y="564"/>
			<point x="1208" y="564" type="curve" smooth="yes"/>
			<point x="82" y="564" type="line"/>
			<point x="82" y="417" type="line"/>
			<point x="1148" y="417" type="line" smooth="yes"/>
			<point x="1230" y="417"/>
			<point x="1282" y="387"/>
			<point x="1282" y="283" type="curve" smooth="yes"/>
		</contour>
		<contour>
			<point x="46" y="0" type="line"/>
			<point x="251" y="0" type="line"/>
			<point x="270" y="103" type="line"/>
			<point x="256" y="199"/>
			<point x="248" y="275"/>
			<point x="248" y="365" type="curve" smooth="yes"/>
			<point x="248" y="417" type="line"/>
			<point x="142" y="417" type="line"/>
			<point x="133" y="389"/>
			<point x="126" y="355"/>
			<point x="126" y="312" type="curve" smooth="yes"/>
			<point x="126" y="265"/>
			<point x="129" y="214"/>
			<point x="136" y="140" type="curve"/>
			<point x="46" y="140" type="line"/>
		</contour>
	</outline>
	<anchor name="aboveHE" x="746" y="590"/>
	<anchor name="belowPrimaryHE" x="758" y="-23"/>
	<anchor name="centerHE" x="758" y="227"/>
	<anchor name="aboveLeftHE" x="53" y="590"/>
</glyph>
<glyph name="plusalt" format="2">
	<unicode hex="FB29"/>
	<advance width="528"/>
	<outline>
		<contour>
			<point x="34" y="278" type="line"/>
			<point x="494" y="278" type="line"/>
			<point x="494" y="382" type="line"/>
			<point x="318" y="382" type="line"/>
			<point x="318" y="566" type="line"/>
			<point x="210" y="566" type="line"/>
			<point x="210" y="382" type="line"/>
			<point x="34" y="382" type="line"/>
		</contour>
	</outline>
</glyph>
<glyph name="heAlefLamed" format="2">
	<unicode hex="FB4F"/>
	<advance width="530"/>
	<outline>
		<contour>
			<point x="345" y="0" type="curve" smooth="yes"/>
			<point x="477" y="0" type="line"/>
			<point x="477" y="147" type="line"/>
			<point x="356" y="147" type="line" smooth="yes"/>
			<point x="279" y="147"/>
			<point x="209" y="190"/>
			<point x="209" y="283" type="curve"/>
			<point x="209" y="379"/>
			<point x="261" y="417"/>
			<point x="384" y="417" type="curve" smooth="yes"/>
			<point x="457" y="417" type="line"/>
			<point x="457" y="564" type="line"/>
			<point x="365" y="564" type="line" smooth="yes"/>
			<point x="292" y="564"/>
			<point x="232" y="539"/>
			<point x="193" y="477" type="curve"/>
			<point x="208" y="464" type="line"/>
			<point x="208" y="724" type="line"/>
			<point x="81" y="724" type="line"/>
			<point x="81" y="276" type="line" smooth="yes"/>
			<point x="81" y="88"/>
			<point x="198" y="0"/>
		</contour>
	</outline>
</glyph>
<glyph name="ugAlpa" format="2">
	<unicode hex="10380"/>
	<advance width="740"/>
	<outline>
		<contour>
			<point x="44" y="175" type="line"/>
			<point x="134" y="236"/>
			<point x="275" y="249"/>
			<point x="503" y="249" type="curve"/>
			<point x="503" y="315" type="line"/>
			<point x="275" y="315"/>
			<point x="134" y="328"/>
			<point x="44" y="389" type="curve"/>
		</contour>
		<contour>
			<point x="310" y="175" type="line"/>
			<point x="392" y="232"/>
			<point x="514" y="249"/>
			<point x="713" y="249" type="curve"/>
			<point x="713" y="315" type="line"/>
			<point x="514" y="315"/>
			<point x="392" y="333"/>
			<point x="310" y="389" type="curve"/>
		</contour>
	</outline>
</glyph>
<glyph name="ugBeta" format="2">
	<unicode hex="10381"/>
	<advance width="740"/>
	<outline>
		<contour>
			<point x="143" y="215" type="curve"/>
			<point x="214" y="215" type="line"/>
			<point x="214" y="416"/>
			<point x="231" y="539"/>
			<point x="288" y="621" type="curve"/>
			<point x="70" y="621" type="line"/>
			<point x="127" y="539"/>
			<point x="143" y="416"/>
		</contour>
		<contour>
			<point x="410" y="215" type="curve"/>
			<point x="480" y="215" type="line"/>
			<point x="480" y="416"/>
			<point x="497" y="539"/>
			<point x="554" y="621" type="curve"/>
			<point x="336" y="621" type="line"/>
			<point x="393" y="539"/>
			<point x="410" y="416"/>
		</contour>
		<component base="ugAlpa" yOffset="-46"/>
	</outline>
</glyph>
<glyph name="ugGamla" format="2">
	<unicode hex="10382"/>
	<advance width="359"/>
	<outline>
		<contour>
			<point x="143" y="-56" type="curve"/>
			<point x="215" y="-56" type="line"/>
			<point x="215" y="280"/>
			<point x="215" y="505"/>
			<point x="289" y="621" type="curve"/>
			<point x="70" y="621" type="line"/>
			<point x="143" y="505"/>
			<point x="143" y="280"/>
		</contour>
	</outline>
</glyph>
<glyph name="ugKha" format="2">
	<unicode hex="10383"/>
	<advance width="359"/>
	<outline>
		<contour>
			<point x="143" y="-56" type="curve"/>
			<point x="215" y="-56" type="line"/>
			<point x="215" y="21"/>
			<point x="244" y="143"/>
			<point x="289" y="204" type="curve"/>
			<point x="70" y="204" type="line"/>
			<point x="115" y="143"/>
			<point x="143" y="21"/>
		</contour>
		<contour>
			<point x="143" y="364" type="curve"/>
			<point x="215" y="364" type="line"/>
			<point x="215" y="440"/>
			<point x="244" y="561"/>
			<point x="289" y="621" type="curve"/>
			<point x="70" y="621" type="line"/>
			<point x="115" y="561"/>
			<point x="143" y="440"/>
		</contour>
		<contour>
			<point x="143" y="150" type="curve"/>
			<point x="215" y="150" type="line"/>
			<point x="215" y="226"/>
			<point x="244" y="347"/>
			<point x="289" y="408" type="curve"/>
			<point x="70" y="408" type="line"/>
			<point x="115" y="347"/>
			<point x="143" y="226"/>
		</contour>
	</outline>
</glyph>
<glyph name="ugDelta" format="2">
	<unicode hex="10384"/>
	<advance width="770"/>
	<outline>
		<contour>
			<point x="119" y="215" type="curve"/>
			<point x="190" y="215" type="line"/>
			<point x="190" y="416"/>
			<point x="208" y="539"/>
			<point x="254" y="621" type="curve"/>
			<point x="46" y="621" type="line"/>
			<point x="104" y="536"/>
			<point x="119" y="416"/>
		</contour>
		<contour>
			<point x="341" y="215" type="curve"/>
			<point x="411" y="215" type="line"/>
			<point x="411" y="416"/>
			<point x="430" y="539"/>
			<point x="475" y="621" type="curve"/>
			<point x="277" y="621" type="line"/>
			<point x="323" y="539"/>
			<point x="341" y="416"/>
		</contour>
		<contour>
			<point x="563" y="215" type="curve"/>
			<point x="633" y="215" type="line"/>
			<point x="633" y="416"/>
			<point x="648" y="536"/>
			<point x="707" y="621" type="curve"/>
			<point x="499" y="621" type="line"/>
			<point x="545" y="539"/>
			<point x="563" y="416"/>
		</contour>
		<component base="ugNun" yOffset="-46"/>
	</outline>
</glyph>
<glyph name="ugWo" format="2">
	<unicode hex="10386"/>
	<advance width="1009"/>
	<outline>
		<contour>
			<point x="44" y="49" type="line"/>
			<point x="120" y="96"/>
			<point x="252" y="123"/>
			<point x="359" y="123" type="curve"/>
			<point x="359" y="189" type="line"/>
			<point x="252" y="189"/>
			<point x="120" y="216"/>
			<point x="44" y="263" type="curve"/>
		</contour>
		<contour>
			<point x="44" y="310" type="line"/>
			<point x="120" y="357"/>
			<point x="252" y="384"/>
			<point x="359" y="384" type="curve"/>
			<point x="359" y="450" type="line"/>
			<point x="252" y="450"/>
			<point x="120" y="476"/>
			<point x="44" y="523" type="curve"/>
		</contour>
		<contour>
			<point x="377" y="175" type="line"/>
			<point x="457" y="224"/>
			<point x="599" y="249"/>
			<point x="713" y="249" type="curve"/>
			<point x="713" y="315" type="line"/>
			<point x="599" y="315"/>
			<point x="457" y="340"/>
			<point x="377" y="389" type="curve"/>
		</contour>
		<contour>
			<point x="646" y="175" type="line"/>
			<point x="725" y="224"/>
			<point x="868" y="249"/>
			<point x="982" y="249" type="curve"/>
			<point x="982" y="315" type="line"/>
			<point x="868" y="315"/>
			<point x="725" y="340"/>
			<point x="646" y="389" type="curve"/>
		</contour>
	</outline>
</glyph>
<glyph name="ugZeta" format="2">
	<unicode hex="10387"/>
	<advance width="359"/>
	<outline>
		<contour>
			<point x="143" y="166" type="curve"/>
			<point x="215" y="166" type="line"/>
			<point x="215" y="392"/>
			<point x="226" y="529"/>
			<point x="289" y="621" type="curve"/>
			<point x="70" y="621" type="line"/>
			<point x="133" y="529"/>
			<point x="143" y="392"/>
		</contour>
		<contour>
			<point x="143" y="-56" type="curve"/>
			<point x="215" y="-56" type="line"/>
			<point x="215" y="150"/>
			<point x="230" y="273"/>
			<point x="289" y="360" type="curve"/>
			<point x="70" y="360" type="line"/>
			<point x="129" y="273"/>
			<point x="143" y="150"/>
		</contour>
	</outline>
</glyph>
<glyph name="ugHota" format="2">
	<unicode hex="10388"/>
	<advance width="733"/>
	<outline>
		<contour>
			<point x="329" y="283" type="curve"/>
			<point x="400" y="283" type="line"/>
			<point x="400" y="450"/>
			<point x="421" y="546"/>
			<point x="474" y="621" type="curve"/>
			<point x="255" y="621" type="line"/>
			<point x="308" y="546"/>
			<point x="329" y="450"/>
		</contour>
		<contour>
			<point x="255" y="-56" type="curve"/>
			<point x="474" y="-56" type="line"/>
			<point x="422" y="20"/>
			<point x="400" y="115"/>
			<point x="400" y="283" type="curve"/>
			<point x="329" y="283" type="line"/>
			<point x="329" y="115"/>
			<point x="307" y="20"/>
		</contour>
		<contour>
			<point x="44" y="176" type="line"/>
			<point x="118" y="226"/>
			<point x="207" y="250"/>
			<point x="365" y="250" type="curve"/>
			<point x="365" y="316" type="line"/>
			<point x="207" y="316"/>
			<point x="118" y="339"/>
			<point x="44" y="390" type="curve"/>
		</contour>
		<contour>
			<point x="689" y="176" type="curve"/>
			<point x="689" y="390" type="line"/>
			<point x="615" y="339"/>
			<point x="524" y="316"/>
			<point x="365" y="316" type="curve"/>
			<point x="365" y="250" type="line"/>
			<point x="524" y="250"/>
			<point x="615" y="226"/>
		</contour>
	</outline>
</glyph>
<glyph name="ugTet" format="2">
	<unicode hex="10389"/>
	<advance width="733"/>
	<outline>
		<contour>
			<point x="329" y="166" type="curve"/>
			<point x="400" y="166" type="line"/>
			<point x="400" y="392"/>
			<point x="407" y="526"/>
			<point x="474" y="621" type="curve"/>
			<point x="255" y="621" type="line"/>
			<point x="322" y="526"/>
			<point x="329" y="392"/>
		</contour>
		<contour>
			<point x="44" y="176" type="line"/>
			<point x="118" y="226"/>
			<point x="207" y="250"/>
			<point x="365" y="250" type="curve"/>
			<point x="365" y="316" type="line"/>
			<point x="207" y="316"/>
			<point x="118" y="339"/>
			<point x="44" y="390" type="curve"/>
		</contour>
		<contour>
			<point x="689" y="176" type="curve"/>
			<point x="689" y="390" type="line"/>
			<point x="616" y="339"/>
			<point x="524" y="316"/>
			<point x="365" y="316" type="curve"/>
			<point x="365" y="250" type="line"/>
			<point x="524" y="250"/>
			<point x="616" y="226"/>
		</contour>
	</outline>
</glyph>
<glyph name="ugKaf" format="2">
	<unicode hex="1038B"/>
	<advance width="740"/>
	<outline>
		<contour>
			<point x="44" y="49" type="line"/>
			<point x="120" y="96"/>
			<point x="252" y="123"/>
			<point x="359" y="123" type="curve"/>
			<point x="359" y="189" type="line"/>
			<point x="252" y="189"/>
			<point x="120" y="216"/>
			<point x="44" y="263" type="curve"/>
		</contour>
		<contour>
			<point x="44" y="310" type="line"/>
			<point x="120" y="357"/>
			<point x="252" y="384"/>
			<point x="359" y="384" type="curve"/>
			<point x="359" y="450" type="line"/>
			<point x="252" y="450"/>
			<point x="120" y="476"/>
			<point x="44" y="523" type="curve"/>
		</contour>
		<contour>
			<point x="377" y="175" type="line"/>
			<point x="457" y="224"/>
			<point x="599" y="249"/>
			<point x="713" y="249" type="curve"/>
			<point x="713" y="315" type="line"/>
			<point x="599" y="315"/>
			<point x="457" y="340"/>
			<point x="377" y="389" type="curve"/>
		</contour>
	</outline>
</glyph>
<glyph name="ugMem" format="2">
	<unicode hex="1038E"/>
	<advance width="660"/>
	<outline>
		<contour>
			<point x="44" y="176" type="line"/>
			<point x="137" y="239"/>
			<point x="276" y="250"/>
			<point x="503" y="250" type="curve"/>
			<point x="503" y="316" type="line"/>
			<point x="276" y="316"/>
			<point x="137" y="327"/>
			<point x="44" y="390" type="curve"/>
		</contour>
		<component base="ugGamla" xOffset="302"/>
	</outline>
</glyph>
<glyph name="ugDhal" format="2">
	<unicode hex="1038F"/>
	<advance width="771"/>
	<outline>
		<contour>
			<point x="358" y="-53" type="curve"/>
			<point x="430" y="-53" type="line"/>
			<point x="599" y="196"/>
			<point x="735" y="383"/>
			<point x="854" y="428" type="curve"/>
			<point x="681" y="563" type="line"/>
			<point x="668" y="436"/>
			<point x="550" y="252"/>
			<point x="394" y="21" type="curve"/>
			<point x="239" y="252"/>
			<point x="121" y="436"/>
			<point x="108" y="563" type="curve"/>
			<point x="-65" y="427" type="line"/>
			<point x="54" y="383"/>
			<point x="189" y="196"/>
		</contour>
	</outline>
</glyph>
<glyph name="ugNun" format="2">
	<unicode hex="10390"/>
	<advance width="770"/>
	<outline>
		<contour>
			<point x="473" y="175" type="line"/>
			<point x="544" y="221"/>
			<point x="667" y="249"/>
			<point x="742" y="249" type="curve"/>
			<point x="742" y="315" type="line"/>
			<point x="667" y="315"/>
			<point x="544" y="344"/>
			<point x="473" y="389" type="curve"/>
		</contour>
		<contour>
			<point x="44" y="175" type="line"/>
			<point x="114" y="221"/>
			<point x="236" y="249"/>
			<point x="311" y="249" type="curve"/>
			<point x="311" y="315" type="line"/>
			<point x="236" y="315"/>
			<point x="114" y="344"/>
			<point x="44" y="389" type="curve"/>
		</contour>
		<contour>
			<point x="264" y="175" type="line"/>
			<point x="334" y="221"/>
			<point x="456" y="249"/>
			<point x="531" y="249" type="curve"/>
			<point x="531" y="315" type="line"/>
			<point x="456" y="315"/>
			<point x="334" y="344"/>
			<point x="264" y="389" type="curve"/>
		</contour>
	</outline>
</glyph>
<glyph name="ugZu" format="2">
	<unicode hex="10391"/>
	<advance width="627"/>
	<outline>
		<contour>
			<point x="44" y="310" type="line"/>
			<point x="142" y="370"/>
			<point x="302" y="384"/>
			<point x="520" y="384" type="curve"/>
			<point x="520" y="450" type="line"/>
			<point x="302" y="450"/>
			<point x="142" y="464"/>
			<point x="44" y="523" type="curve"/>
		</contour>
		<contour>
			<point x="44" y="49" type="line"/>
			<point x="142" y="109"/>
			<point x="302" y="123"/>
			<point x="520" y="123" type="curve"/>
			<point x="520" y="189" type="line"/>
			<point x="302" y="189"/>
			<point x="142" y="203"/>
			<point x="44" y="263" type="curve"/>
		</contour>
		<contour>
			<point x="594" y="39" type="line"/>
			<point x="599" y="43" type="line"/>
			<point x="561" y="105"/>
			<point x="529" y="186"/>
			<point x="529" y="285" type="curve" smooth="yes"/>
			<point x="529" y="385"/>
			<point x="561" y="466"/>
			<point x="599" y="527" type="curve"/>
			<point x="594" y="531" type="line"/>
			<point x="332" y="285" type="line"/>
		</contour>
	</outline>
</glyph>
<glyph name="ugSamka" format="2">
	<unicode hex="10392"/>
	<advance width="600"/>
	<outline>
		<contour>
			<point x="143" y="304" type="curve"/>
			<point x="215" y="304" type="line"/>
			<point x="215" y="461"/>
			<point x="238" y="550"/>
			<point x="289" y="621" type="curve"/>
			<point x="70" y="621" type="line"/>
			<point x="121" y="550"/>
			<point x="143" y="461"/>
		</contour>
		<contour>
			<point x="284" y="-57" type="curve"/>
			<point x="356" y="-57" type="line"/>
			<point x="356" y="113"/>
			<point x="377" y="211"/>
			<point x="430" y="287" type="curve"/>
			<point x="210" y="287" type="line"/>
			<point x="263" y="211"/>
			<point x="284" y="113"/>
		</contour>
		<contour>
			<point x="424" y="304" type="curve"/>
			<point x="496" y="304" type="line"/>
			<point x="496" y="461"/>
			<point x="519" y="550"/>
			<point x="570" y="621" type="curve"/>
			<point x="351" y="621" type="line"/>
			<point x="402" y="550"/>
			<point x="424" y="461"/>
		</contour>
	</outline>
	<guideline x="266" y="282" angle="90" identifier="n037E1FBxO"/>
</glyph>
<glyph name="ugAin" format="2">
	<unicode hex="10393"/>
	<advance width="534"/>
	<outline>
		<contour>
			<point x="21" y="159" type="line"/>
			<point x="25" y="153" type="line"/>
			<point x="106" y="212"/>
			<point x="187" y="242"/>
			<point x="267" y="242" type="curve" smooth="yes"/>
			<point x="347" y="242"/>
			<point x="428" y="212"/>
			<point x="509" y="153" type="curve"/>
			<point x="513" y="159" type="line"/>
			<point x="267" y="435" type="line"/>
		</contour>
	</outline>
</glyph>
<glyph name="ugQopa" format="2">
	<unicode hex="10396"/>
	<advance width="633"/>
	<outline>
		<contour>
			<point x="44" y="175" type="line"/>
			<point x="117" y="227"/>
			<point x="194" y="249"/>
			<point x="316" y="249" type="curve"/>
			<point x="316" y="315" type="line"/>
			<point x="194" y="315"/>
			<point x="117" y="338"/>
			<point x="44" y="389" type="curve"/>
		</contour>
		<contour>
			<point x="589" y="175" type="curve"/>
			<point x="589" y="389" type="line"/>
			<point x="522" y="343"/>
			<point x="439" y="315"/>
			<point x="316" y="315" type="curve"/>
			<point x="316" y="249" type="line"/>
			<point x="439" y="249"/>
			<point x="522" y="222"/>
		</contour>
	</outline>
	<guideline x="276" y="282" angle="90" identifier="VFyrfB9JO7"/>
</glyph>
<glyph name="ugRasha" format="2">
	<unicode hex="10397"/>
	<advance width="1016"/>
	<outline>
		<contour>
			<point x="44" y="303" type="line"/>
			<point x="114" y="344"/>
			<point x="201" y="367"/>
			<point x="353" y="367" type="curve"/>
			<point x="353" y="433" type="line"/>
			<point x="201" y="433"/>
			<point x="117" y="454"/>
			<point x="44" y="507" type="curve"/>
		</contour>
		<contour>
			<point x="300" y="303" type="line"/>
			<point x="364" y="339"/>
			<point x="448" y="367"/>
			<point x="593" y="367" type="curve"/>
			<point x="593" y="433" type="line"/>
			<point x="448" y="433"/>
			<point x="367" y="459"/>
			<point x="300" y="507" type="curve"/>
		</contour>
		<contour>
			<point x="44" y="57" type="line"/>
			<point x="117" y="110"/>
			<point x="201" y="131"/>
			<point x="353" y="131" type="curve"/>
			<point x="353" y="197" type="line"/>
			<point x="201" y="197"/>
			<point x="114" y="221"/>
			<point x="44" y="261" type="curve"/>
		</contour>
		<contour>
			<point x="605" y="175" type="line"/>
			<point x="686" y="232"/>
			<point x="799" y="249"/>
			<point x="988" y="249" type="curve"/>
			<point x="988" y="315" type="line"/>
			<point x="799" y="315"/>
			<point x="686" y="332"/>
			<point x="605" y="389" type="curve"/>
		</contour>
		<contour>
			<point x="300" y="57" type="line"/>
			<point x="367" y="105"/>
			<point x="448" y="131"/>
			<point x="593" y="131" type="curve"/>
			<point x="593" y="197" type="line"/>
			<point x="448" y="197"/>
			<point x="364" y="225"/>
			<point x="300" y="261" type="curve"/>
		</contour>
	</outline>
</glyph>
<glyph name="ugThanna" format="2">
	<unicode hex="10398"/>
	<advance width="359"/>
	<outline>
		<contour>
			<point x="143" y="34" type="curve"/>
			<point x="215" y="34" type="line"/>
			<point x="215" y="226"/>
			<point x="232" y="322"/>
			<point x="289" y="403" type="curve"/>
			<point x="70" y="403" type="line"/>
			<point x="127" y="322"/>
			<point x="143" y="226"/>
		</contour>
		<contour>
			<point x="70" y="162" type="curve"/>
			<point x="289" y="162" type="line"/>
			<point x="236" y="237"/>
			<point x="215" y="358"/>
			<point x="215" y="531" type="curve"/>
			<point x="143" y="531" type="line"/>
			<point x="143" y="358"/>
			<point x="123" y="237"/>
		</contour>
	</outline>
</glyph>
<glyph name="ugTo" format="2">
	<unicode hex="1039A"/>
	<advance width="740"/>
	<outline>
		<contour>
			<point x="44" y="175" type="line"/>
			<point x="165" y="249"/>
			<point x="381" y="249"/>
			<point x="713" y="249" type="curve"/>
			<point x="713" y="315" type="line"/>
			<point x="381" y="315"/>
			<point x="165" y="315"/>
			<point x="44" y="389" type="curve"/>
		</contour>
	</outline>
</glyph>
<glyph name="ugI" format="2">
	<unicode hex="1039B"/>
	<advance width="740"/>
	<outline>
		<contour>
			<point x="219" y="-259" type="curve"/>
			<point x="290" y="-259" type="line"/>
			<point x="290" y="-165"/>
			<point x="319" y="-90"/>
			<point x="364" y="-45" type="curve"/>
			<point x="145" y="-45" type="line"/>
			<point x="190" y="-90"/>
			<point x="219" y="-165"/>
		</contour>
		<component base="ugHo"/>
	</outline>
</glyph>
<glyph name="ugSsu" format="2">
	<unicode hex="1039D"/>
	<advance width="781"/>
	<outline>
		<contour>
			<point x="70" y="432" type="curve"/>
			<point x="289" y="432" type="line"/>
			<point x="234" y="496"/>
			<point x="205" y="579"/>
			<point x="205" y="621" type="curve"/>
			<point x="154" y="621" type="line"/>
			<point x="154" y="579"/>
			<point x="125" y="496"/>
		</contour>
		<contour>
			<point x="70" y="-57" type="curve"/>
			<point x="289" y="-57" type="line"/>
			<point x="234" y="8"/>
			<point x="205" y="89"/>
			<point x="205" y="130" type="curve"/>
			<point x="154" y="130" type="line"/>
			<point x="154" y="89"/>
			<point x="125" y="8"/>
		</contour>
		<contour>
			<point x="70" y="188" type="curve"/>
			<point x="289" y="188" type="line"/>
			<point x="234" y="253"/>
			<point x="205" y="334"/>
			<point x="205" y="374" type="curve"/>
			<point x="154" y="374" type="line"/>
			<point x="154" y="334"/>
			<point x="125" y="253"/>
		</contour>
		<contour>
			<point x="492" y="432" type="curve"/>
			<point x="711" y="432" type="line"/>
			<point x="657" y="496"/>
			<point x="627" y="579"/>
			<point x="627" y="621" type="curve"/>
			<point x="576" y="621" type="line"/>
			<point x="576" y="579"/>
			<point x="547" y="496"/>
		</contour>
		<contour>
			<point x="492" y="-57" type="curve"/>
			<point x="711" y="-57" type="line"/>
			<point x="657" y="8"/>
			<point x="627" y="89"/>
			<point x="627" y="130" type="curve"/>
			<point x="576" y="130" type="line"/>
			<point x="576" y="89"/>
			<point x="547" y="8"/>
		</contour>
		<contour>
			<point x="492" y="188" type="curve"/>
			<point x="711" y="188" type="line"/>
			<point x="657" y="253"/>
			<point x="627" y="334"/>
			<point x="627" y="374" type="curve"/>
			<point x="576" y="374" type="line"/>
			<point x="576" y="334"/>
			<point x="547" y="253"/>
		</contour>
		<component base="ugGamla" xOffset="211"/>
	</outline>
</glyph>
<glyph name="aiAleph" format="2">
	<unicode hex="10840"/>
	<advance width="628"/>
	<outline>
		<contour>
			<point x="483" y="-11" type="curve"/>
			<point x="642" y="33" type="line"/>
			<point x="486" y="173"/>
			<point x="292" y="388"/>
			<point x="204" y="571" type="curve"/>
			<point x="47" y="536" type="line"/>
			<point x="154" y="353"/>
			<point x="341" y="115"/>
		</contour>
		<contour>
			<point x="62" y="0" type="line"/>
			<point x="114" y="0" type="line" smooth="yes"/>
			<point x="433" y="0"/>
			<point x="583" y="294"/>
			<point x="583" y="500" type="curve" smooth="yes"/>
			<point x="583" y="523"/>
			<point x="583" y="541"/>
			<point x="581" y="564" type="curve"/>
			<point x="423" y="564" type="line"/>
			<point x="429" y="529"/>
			<point x="432" y="494"/>
			<point x="432" y="422" type="curve" smooth="yes"/>
			<point x="432" y="251"/>
			<point x="361" y="140"/>
			<point x="159" y="140" type="curve" smooth="yes"/>
			<point x="62" y="140" type="line"/>
		</contour>
	</outline>
</glyph>
<glyph name="aiBeth" format="2">
	<unicode hex="10841"/>
	<advance width="501"/>
	<outline>
		<contour>
			<point x="46" y="0" type="line"/>
			<point x="150" y="0" type="line" smooth="yes"/>
			<point x="342" y="0"/>
			<point x="468" y="145"/>
			<point x="468" y="343" type="curve" smooth="yes"/>
			<point x="468" y="497"/>
			<point x="397" y="564"/>
			<point x="253" y="564" type="curve" smooth="yes"/>
			<point x="232" y="564" type="line" smooth="yes"/>
			<point x="179" y="564"/>
			<point x="162" y="580"/>
			<point x="162" y="615" type="curve" smooth="yes"/>
			<point x="162" y="647"/>
			<point x="164" y="678"/>
			<point x="169" y="731" type="curve"/>
			<point x="49" y="720" type="line"/>
			<point x="38" y="665"/>
			<point x="35" y="611"/>
			<point x="35" y="564" type="curve" smooth="yes"/>
			<point x="35" y="470"/>
			<point x="94" y="417"/>
			<point x="185" y="417" type="curve" smooth="yes"/>
			<point x="203" y="417" type="line" smooth="yes"/>
			<point x="297" y="417"/>
			<point x="338" y="385"/>
			<point x="338" y="291" type="curve" smooth="yes"/>
			<point x="338" y="200"/>
			<point x="281" y="142"/>
			<point x="164" y="142" type="curve" smooth="yes"/>
			<point x="46" y="142" type="line"/>
		</contour>
	</outline>
</glyph>
<glyph name="aiGimel" format="2">
	<unicode hex="10842"/>
	<advance width="628"/>
	<outline>
		<contour>
			<point x="0" y="0" type="curve"/>
			<point x="155" y="0" type="line"/>
			<point x="214" y="115"/>
			<point x="300" y="315"/>
			<point x="365" y="505" type="curve"/>
			<point x="258" y="540" type="line"/>
			<point x="190" y="354"/>
			<point x="88" y="153"/>
		</contour>
		<contour>
			<point x="452" y="-11" type="curve"/>
			<point x="606" y="3" type="line"/>
			<point x="569" y="356"/>
			<point x="420" y="521"/>
			<point x="236" y="573" type="curve"/>
			<point x="106" y="501" type="line"/>
			<point x="310" y="428"/>
			<point x="430" y="291"/>
		</contour>
	</outline>
</glyph>
<glyph name="aiZayin" format="2">
	<unicode hex="10846"/>
	<advance width="302"/>
	<outline>
		<contour>
			<point x="98" y="0" type="line"/>
			<point x="224" y="0" type="line"/>
			<point x="224" y="564" type="line"/>
			<point x="98" y="564" type="line"/>
		</contour>
	</outline>
</glyph>
<glyph name="aiHeth" format="2">
	<unicode hex="10847"/>
	<advance width="673"/>
	<outline>
		<contour>
			<point x="469" y="0" type="line"/>
			<point x="596" y="0" type="line"/>
			<point x="596" y="352" type="line" smooth="yes"/>
			<point x="596" y="506"/>
			<point x="514" y="564"/>
			<point x="395" y="564" type="curve" smooth="yes"/>
			<point x="157" y="564" type="line"/>
			<point x="157" y="417" type="line"/>
			<point x="334" y="417" type="line" smooth="yes"/>
			<point x="417" y="417"/>
			<point x="469" y="387"/>
			<point x="469" y="283" type="curve" smooth="yes"/>
		</contour>
		<contour>
			<point x="98" y="0" type="line"/>
			<point x="224" y="0" type="line"/>
			<point x="224" y="724" type="line"/>
			<point x="98" y="724" type="line"/>
		</contour>
	</outline>
</glyph>
<glyph name="aiTeth" format="2">
	<unicode hex="10848"/>
	<advance width="618"/>
	<outline>
		<contour>
			<point x="325" y="-12" type="curve" smooth="yes"/>
			<point x="476" y="-12"/>
			<point x="585" y="138"/>
			<point x="585" y="313" type="curve" smooth="yes"/>
			<point x="585" y="451"/>
			<point x="541" y="509"/>
			<point x="420" y="509" type="curve" smooth="yes"/>
			<point x="361" y="509"/>
			<point x="271" y="493"/>
			<point x="155" y="467" type="curve"/>
			<point x="155" y="320" type="line"/>
			<point x="262" y="347"/>
			<point x="346" y="362"/>
			<point x="395" y="362" type="curve" smooth="yes"/>
			<point x="441" y="362"/>
			<point x="458" y="338"/>
			<point x="458" y="280" type="curve" smooth="yes"/>
			<point x="458" y="206"/>
			<point x="412" y="134"/>
			<point x="340" y="134" type="curve" smooth="yes"/>
			<point x="290" y="134"/>
			<point x="201" y="157"/>
			<point x="201" y="368" type="curve" smooth="yes"/>
			<point x="201" y="458"/>
			<point x="209" y="579"/>
			<point x="233" y="733" type="curve"/>
			<point x="87" y="719" type="line"/>
			<point x="65" y="590"/>
			<point x="53" y="481"/>
			<point x="53" y="387" type="curve" smooth="yes"/>
			<point x="53" y="70"/>
			<point x="211" y="-12"/>
		</contour>
	</outline>
</glyph>
<glyph name="aiLamedh" format="2">
	<unicode hex="1084B"/>
	<advance width="464"/>
	<outline>
		<contour>
			<point x="296" y="-12" type="curve" smooth="yes"/>
			<point x="345" y="-12"/>
			<point x="395" y="1"/>
			<point x="445" y="8" type="curve"/>
			<point x="445" y="155" type="line"/>
			<point x="399" y="148"/>
			<point x="355" y="135"/>
			<point x="310" y="135" type="curve" smooth="yes"/>
			<point x="222" y="135"/>
			<point x="188" y="166"/>
			<point x="188" y="274" type="curve" smooth="yes"/>
			<point x="188" y="385"/>
			<point x="240" y="597"/>
			<point x="281" y="733" type="curve"/>
			<point x="136" y="719" type="line"/>
			<point x="105" y="596"/>
			<point x="61" y="404"/>
			<point x="61" y="232" type="curve" smooth="yes"/>
			<point x="61" y="64"/>
			<point x="137" y="-12"/>
		</contour>
	</outline>
</glyph>
<glyph name="aiMem" format="2">
	<unicode hex="1084C"/>
	<advance width="573"/>
	<outline>
		<contour>
			<point x="137" y="172" type="line"/>
			<point x="318" y="286"/>
			<point x="376" y="480"/>
			<point x="376" y="633" type="curve" smooth="yes"/>
			<point x="376" y="668"/>
			<point x="375" y="695"/>
			<point x="373" y="731" type="curve"/>
			<point x="243" y="720" type="line"/>
			<point x="250" y="670"/>
			<point x="257" y="624"/>
			<point x="257" y="522" type="curve" smooth="yes"/>
			<point x="257" y="433"/>
			<point x="199" y="358"/>
			<point x="58" y="279" type="curve"/>
		</contour>
		<contour>
			<point x="182" y="-176" type="line"/>
			<point x="421" y="43"/>
			<point x="531" y="229"/>
			<point x="531" y="406" type="curve" smooth="yes"/>
			<point x="531" y="512"/>
			<point x="482" y="564"/>
			<point x="328" y="564" type="curve" smooth="yes"/>
			<point x="227" y="564" type="line" smooth="yes"/>
			<point x="174" y="564"/>
			<point x="157" y="580"/>
			<point x="157" y="615" type="curve" smooth="yes"/>
			<point x="157" y="647"/>
			<point x="158" y="678"/>
			<point x="164" y="731" type="curve"/>
			<point x="44" y="720" type="line"/>
			<point x="32" y="665"/>
			<point x="29" y="611"/>
			<point x="29" y="564" type="curve" smooth="yes"/>
			<point x="29" y="470"/>
			<point x="88" y="417"/>
			<point x="180" y="417" type="curve" smooth="yes"/>
			<point x="314" y="417" type="line" smooth="yes"/>
			<point x="379" y="417"/>
			<point x="405" y="404"/>
			<point x="405" y="355" type="curve" smooth="yes"/>
			<point x="405" y="255"/>
			<point x="320" y="107"/>
			<point x="100" y="-64" type="curve"/>
		</contour>
	</outline>
</glyph>
<glyph name="aiNun" format="2">
	<unicode hex="1084D"/>
	<advance width="350"/>
	<outline>
		<contour>
			<point x="54" y="-176" type="line"/>
			<point x="220" y="9"/>
			<point x="308" y="217"/>
			<point x="309" y="335" type="curve" smooth="yes"/>
			<point x="309" y="515"/>
			<point x="157" y="483"/>
			<point x="157" y="648" type="curve" smooth="yes"/>
			<point x="157" y="671"/>
			<point x="160" y="694"/>
			<point x="164" y="731" type="curve"/>
			<point x="44" y="720" type="line"/>
			<point x="34" y="677"/>
			<point x="29" y="634"/>
			<point x="29" y="597" type="curve" smooth="yes"/>
			<point x="29" y="430"/>
			<point x="182" y="460"/>
			<point x="182" y="284" type="curve" smooth="yes"/>
			<point x="182" y="185"/>
			<point x="105" y="75"/>
			<point x="-44" y="-73" type="curve"/>
		</contour>
	</outline>
</glyph>
<glyph name="aiSamekh" format="2">
	<unicode hex="1084E"/>
	<advance width="557"/>
	<outline>
		<contour>
			<point x="120" y="172" type="line"/>
			<point x="302" y="286"/>
			<point x="359" y="480"/>
			<point x="359" y="633" type="curve" smooth="yes"/>
			<point x="359" y="668"/>
			<point x="359" y="695"/>
			<point x="356" y="731" type="curve"/>
			<point x="226" y="720" type="line"/>
			<point x="234" y="670"/>
			<point x="240" y="624"/>
			<point x="240" y="522" type="curve" smooth="yes"/>
			<point x="240" y="433"/>
			<point x="183" y="358"/>
			<point x="42" y="279" type="curve"/>
		</contour>
		<contour>
			<point x="166" y="-176" type="line"/>
			<point x="404" y="43"/>
			<point x="515" y="229"/>
			<point x="515" y="406" type="curve" smooth="yes"/>
			<point x="515" y="512"/>
			<point x="465" y="564"/>
			<point x="312" y="564" type="curve" smooth="yes"/>
			<point x="12" y="564" type="line"/>
			<point x="12" y="417" type="line"/>
			<point x="298" y="417" type="line" smooth="yes"/>
			<point x="363" y="417"/>
			<point x="388" y="404"/>
			<point x="388" y="355" type="curve" smooth="yes"/>
			<point x="388" y="255"/>
			<point x="304" y="107"/>
			<point x="84" y="-64" type="curve"/>
		</contour>
	</outline>
</glyph>
<glyph name="aiAyin" format="2">
	<unicode hex="1084F"/>
	<advance width="544"/>
	<outline>
		<contour>
			<point x="273" y="207" type="curve" smooth="yes"/>
			<point x="416" y="207"/>
			<point x="520" y="319"/>
			<point x="521" y="564" type="curve"/>
			<point x="394" y="564" type="line"/>
			<point x="394" y="411"/>
			<point x="353" y="353"/>
			<point x="288" y="353" type="curve" smooth="yes"/>
			<point x="224" y="353"/>
			<point x="185" y="406"/>
			<point x="185" y="571" type="curve"/>
			<point x="31" y="558" type="line"/>
			<point x="32" y="301"/>
			<point x="136" y="207"/>
		</contour>
	</outline>
</glyph>
<glyph name="aiPe" format="2">
	<unicode hex="10850"/>
	<advance width="528"/>
	<outline>
		<contour>
			<point x="130" y="-176" type="line"/>
			<point x="379" y="20"/>
			<point x="494" y="192"/>
			<point x="494" y="356" type="curve" smooth="yes"/>
			<point x="494" y="480"/>
			<point x="437" y="576"/>
			<point x="296" y="576" type="curve" smooth="yes"/>
			<point x="153" y="576"/>
			<point x="46" y="484"/>
			<point x="48" y="268" type="curve"/>
			<point x="171" y="268" type="line"/>
			<point x="176" y="390"/>
			<point x="213" y="430"/>
			<point x="281" y="430" type="curve" smooth="yes"/>
			<point x="340" y="430"/>
			<point x="367" y="388"/>
			<point x="367" y="330" type="curve" smooth="yes"/>
			<point x="367" y="227"/>
			<point x="281" y="88"/>
			<point x="48" y="-64" type="curve"/>
		</contour>
	</outline>
</glyph>
<glyph name="aiSadhe" format="2">
	<unicode hex="10851"/>
	<advance width="556"/>
	<outline>
		<contour>
			<point x="360" y="88" type="line"/>
			<point x="469" y="201"/>
			<point x="514" y="300"/>
			<point x="514" y="406" type="curve" smooth="yes"/>
			<point x="514" y="511"/>
			<point x="464" y="564"/>
			<point x="311" y="564" type="curve" smooth="yes"/>
			<point x="161" y="564" type="line"/>
			<point x="131" y="417" type="line"/>
			<point x="297" y="417" type="line" smooth="yes"/>
			<point x="361" y="417"/>
			<point x="387" y="404"/>
			<point x="387" y="355" type="curve" smooth="yes"/>
			<point x="387" y="299"/>
			<point x="352" y="240"/>
			<point x="270" y="171" type="curve"/>
		</contour>
		<contour>
			<point x="98" y="-164" type="line"/>
			<point x="224" y="-164" type="line"/>
			<point x="224" y="724" type="line"/>
			<point x="98" y="724" type="line"/>
		</contour>
	</outline>
</glyph>
<glyph name="aiQoph" format="2">
	<unicode hex="10852"/>
	<advance width="581"/>
	<outline>
		<contour>
			<point x="385" y="88" type="line"/>
			<point x="494" y="201"/>
			<point x="539" y="300"/>
			<point x="539" y="406" type="curve" smooth="yes"/>
			<point x="539" y="511"/>
			<point x="490" y="564"/>
			<point x="336" y="564" type="curve" smooth="yes"/>
			<point x="210" y="564" type="line" smooth="yes"/>
			<point x="158" y="564"/>
			<point x="140" y="580"/>
			<point x="140" y="615" type="curve" smooth="yes"/>
			<point x="140" y="645"/>
			<point x="142" y="674"/>
			<point x="148" y="724" type="curve"/>
			<point x="27" y="724" type="line"/>
			<point x="16" y="668"/>
			<point x="13" y="611"/>
			<point x="13" y="564" type="curve" smooth="yes"/>
			<point x="13" y="470"/>
			<point x="72" y="417"/>
			<point x="163" y="417" type="curve" smooth="yes"/>
			<point x="322" y="417" type="line" smooth="yes"/>
			<point x="387" y="417"/>
			<point x="413" y="404"/>
			<point x="413" y="355" type="curve" smooth="yes"/>
			<point x="413" y="299"/>
			<point x="377" y="240"/>
			<point x="295" y="171" type="curve"/>
		</contour>
		<contour>
			<point x="124" y="-164" type="line"/>
			<point x="251" y="-164" type="line"/>
			<point x="251" y="562" type="line"/>
			<point x="145" y="562" type="line"/>
			<point x="133" y="522"/>
			<point x="124" y="479"/>
			<point x="124" y="423" type="curve" smooth="yes"/>
		</contour>
	</outline>
</glyph>
<glyph name="aiShin" format="2">
	<unicode hex="10854"/>
	<advance width="733"/>
	<outline>
		<contour>
			<point x="349" y="-12" type="curve" smooth="yes"/>
			<point x="546" y="-12"/>
			<point x="695" y="187"/>
			<point x="713" y="564" type="curve"/>
			<point x="577" y="564" type="line"/>
			<point x="573" y="261"/>
			<point x="489" y="133"/>
			<point x="367" y="133" type="curve" smooth="yes"/>
			<point x="270" y="133"/>
			<point x="184" y="221"/>
			<point x="185" y="571" type="curve"/>
			<point x="31" y="558" type="line"/>
			<point x="38" y="137"/>
			<point x="175" y="-12"/>
		</contour>
		<contour>
			<point x="242" y="149" type="line"/>
			<point x="396" y="261"/>
			<point x="453" y="349"/>
			<point x="459" y="571" type="curve"/>
			<point x="322" y="559" type="line"/>
			<point x="317" y="387"/>
			<point x="284" y="310"/>
			<point x="195" y="228" type="curve"/>
		</contour>
	</outline>
</glyph>
<glyph name="pmAleph" format="2">
	<unicode hex="10860"/>
	<advance width="633"/>
	<outline>
		<contour>
			<point x="208" y="0" type="curve" smooth="yes"/>
			<point x="288" y="0" type="line"/>
			<point x="288" y="147" type="line"/>
			<point x="263" y="147" type="line" smooth="yes"/>
			<point x="195" y="147"/>
			<point x="170" y="163"/>
			<point x="170" y="198" type="curve" smooth="yes"/>
			<point x="170" y="228"/>
			<point x="195" y="264"/>
			<point x="244" y="306" type="curve"/>
			<point x="186" y="378" type="line"/>
			<point x="83" y="291"/>
			<point x="44" y="229"/>
			<point x="44" y="136" type="curve" smooth="yes"/>
			<point x="44" y="40"/>
			<point x="94" y="0"/>
		</contour>
		<contour>
			<point x="480" y="188" type="line"/>
			<point x="542" y="265"/>
			<point x="583" y="386"/>
			<point x="583" y="517" type="curve" smooth="yes"/>
			<point x="583" y="533"/>
			<point x="583" y="547"/>
			<point x="581" y="564" type="curve"/>
			<point x="424" y="564" type="line"/>
			<point x="429" y="529"/>
			<point x="433" y="494"/>
			<point x="433" y="461" type="curve" smooth="yes"/>
			<point x="433" y="378"/>
			<point x="428" y="300"/>
			<point x="394" y="214" type="curve"/>
		</contour>
		<contour>
			<point x="499" y="-11" type="curve"/>
			<point x="659" y="33" type="line"/>
			<point x="503" y="173"/>
			<point x="309" y="388"/>
			<point x="220" y="571" type="curve"/>
			<point x="64" y="536" type="line"/>
			<point x="170" y="353"/>
			<point x="357" y="115"/>
		</contour>
	</outline>
</glyph>
<glyph name="pmGimel" format="2">
	<unicode hex="10862"/>
	<advance width="419"/>
	<outline>
		<contour>
			<point x="244" y="0" type="line"/>
			<point x="371" y="0" type="line"/>
			<point x="337" y="394" type="line" smooth="yes"/>
			<point x="327" y="505"/>
			<point x="278" y="564"/>
			<point x="157" y="564" type="curve" smooth="yes"/>
			<point x="82" y="564" type="line"/>
			<point x="82" y="417" type="line"/>
			<point x="133" y="417" type="line" smooth="yes"/>
			<point x="184" y="417"/>
			<point x="216" y="389"/>
			<point x="220" y="324" type="curve" smooth="yes"/>
		</contour>
		<contour>
			<point x="46" y="-8" type="line"/>
			<point x="156" y="-3"/>
			<point x="244" y="81"/>
			<point x="249" y="158" type="curve"/>
			<point x="231" y="260" type="line"/>
			<point x="218" y="187"/>
			<point x="141" y="148"/>
			<point x="46" y="142" type="curve"/>
		</contour>
	</outline>
</glyph>
<glyph name="pmDaleth" format="2">
	<unicode hex="10863"/>
	<advance width="526"/>
	<outline>
		<contour>
			<point x="12" y="417" type="line"/>
			<point x="490" y="417" type="line"/>
			<point x="490" y="564" type="line"/>
			<point x="12" y="564" type="line"/>
		</contour>
		<contour>
			<point x="271" y="0" type="line"/>
			<point x="398" y="0" type="line"/>
			<point x="398" y="417" type="line"/>
			<point x="292" y="417" type="line"/>
			<point x="279" y="376"/>
			<point x="271" y="333"/>
			<point x="271" y="278" type="curve" smooth="yes"/>
		</contour>
	</outline>
</glyph>
<glyph name="pmHe" format="2">
	<unicode hex="10864"/>
	<advance width="663"/>
	<outline>
		<contour>
			<point x="459" y="0" type="line"/>
			<point x="586" y="0" type="line"/>
			<point x="586" y="352" type="line" smooth="yes"/>
			<point x="586" y="506"/>
			<point x="505" y="564"/>
			<point x="385" y="564" type="curve" smooth="yes"/>
			<point x="69" y="564" type="line"/>
			<point x="69" y="417" type="line"/>
			<point x="325" y="417" type="line" smooth="yes"/>
			<point x="407" y="417"/>
			<point x="459" y="387"/>
			<point x="459" y="283" type="curve" smooth="yes"/>
		</contour>
		<contour>
			<point x="61" y="19" type="curve"/>
			<point x="216" y="-7" type="line"/>
			<point x="273" y="110"/>
			<point x="325" y="315"/>
			<point x="352" y="517" type="curve"/>
			<point x="244" y="547" type="line"/>
			<point x="219" y="363"/>
			<point x="139" y="164"/>
		</contour>
	</outline>
</glyph>
<glyph name="pmWaw" format="2">
	<unicode hex="10865"/>
	<advance width="342"/>
	<outline>
		<contour>
			<point x="138" y="0" type="line"/>
			<point x="265" y="0" type="line"/>
			<point x="265" y="375" type="line" smooth="yes"/>
			<point x="265" y="514"/>
			<point x="194" y="564"/>
			<point x="87" y="564" type="curve" smooth="yes"/>
			<point x="12" y="564" type="line"/>
			<point x="12" y="417" type="line"/>
			<point x="27" y="417" type="line" smooth="yes"/>
			<point x="97" y="417"/>
			<point x="138" y="394"/>
			<point x="138" y="307" type="curve" smooth="yes"/>
		</contour>
	</outline>
</glyph>
<glyph name="pmYodh" format="2">
	<unicode hex="10869"/>
	<advance width="592"/>
	<outline>
		<contour>
			<point x="31" y="218" type="curve"/>
			<point x="169" y="219" type="line"/>
			<point x="169" y="372"/>
			<point x="210" y="430"/>
			<point x="274" y="430" type="curve" smooth="yes"/>
			<point x="338" y="430"/>
			<point x="377" y="377"/>
			<point x="377" y="212" type="curve"/>
			<point x="531" y="226" type="line"/>
			<point x="530" y="482"/>
			<point x="426" y="576"/>
			<point x="289" y="576" type="curve" smooth="yes"/>
			<point x="140" y="576"/>
			<point x="32" y="464"/>
		</contour>
	</outline>
</glyph>
<glyph name="pmKaph" format="2">
	<unicode hex="1086A"/>
	<advance width="554"/>
	<outline>
		<contour>
			<point x="46" y="0" type="line"/>
			<point x="464" y="0" type="line"/>
			<point x="476" y="101"/>
			<point x="484" y="190"/>
			<point x="484" y="302" type="curve" smooth="yes"/>
			<point x="484" y="485"/>
			<point x="407" y="564"/>
			<point x="253" y="564" type="curve" smooth="yes"/>
			<point x="66" y="564" type="line"/>
			<point x="66" y="417" type="line"/>
			<point x="186" y="417" type="line" smooth="yes"/>
			<point x="315" y="417"/>
			<point x="357" y="365"/>
			<point x="357" y="217" type="curve" smooth="yes"/>
			<point x="357" y="189"/>
			<point x="355" y="167"/>
			<point x="352" y="142" type="curve"/>
			<point x="46" y="142" type="line"/>
		</contour>
	</outline>
</glyph>
<glyph name="pmLamedh" format="2">
	<unicode hex="1086B"/>
	<advance width="426"/>
	<outline>
		<contour>
			<point x="243" y="166" type="curve" smooth="yes"/>
			<point x="383" y="166" type="line"/>
			<point x="388" y="313" type="line"/>
			<point x="257" y="313" type="line" smooth="yes"/>
			<point x="192" y="313"/>
			<point x="167" y="326"/>
			<point x="167" y="375" type="curve" smooth="yes"/>
			<point x="167" y="448"/>
			<point x="249" y="562"/>
			<point x="386" y="647" type="curve"/>
			<point x="321" y="750" type="line"/>
			<point x="136" y="631"/>
			<point x="40" y="478"/>
			<point x="40" y="316" type="curve" smooth="yes"/>
			<point x="40" y="211"/>
			<point x="90" y="166"/>
		</contour>
	</outline>
</glyph>
<glyph name="pmNun" format="2">
	<unicode hex="1086E"/>
	<advance width="441"/>
	<outline>
		<contour>
			<point x="46" y="0" type="line"/>
			<point x="364" y="0" type="line"/>
			<point x="364" y="373" type="line" smooth="yes"/>
			<point x="364" y="514"/>
			<point x="290" y="564"/>
			<point x="177" y="564" type="curve" smooth="yes"/>
			<point x="82" y="564" type="line"/>
			<point x="82" y="417" type="line"/>
			<point x="125" y="417" type="line" smooth="yes"/>
			<point x="196" y="417"/>
			<point x="237" y="393"/>
			<point x="237" y="305" type="curve" smooth="yes"/>
			<point x="237" y="140" type="line"/>
			<point x="46" y="140" type="line"/>
		</contour>
	</outline>
</glyph>
<glyph name="pmSamekh" format="2">
	<unicode hex="1086F"/>
	<advance width="617"/>
	<outline>
		<contour>
			<point x="325" y="-12" type="curve" smooth="yes"/>
			<point x="476" y="-12"/>
			<point x="584" y="159"/>
			<point x="584" y="369" type="curve" smooth="yes"/>
			<point x="584" y="506"/>
			<point x="536" y="564"/>
			<point x="402" y="564" type="curve" smooth="yes"/>
			<point x="4" y="564" type="line"/>
			<point x="4" y="417" type="line"/>
			<point x="377" y="417" type="line" smooth="yes"/>
			<point x="435" y="417"/>
			<point x="457" y="392"/>
			<point x="457" y="336" type="curve" smooth="yes"/>
			<point x="457" y="228"/>
			<point x="410" y="134"/>
			<point x="340" y="134" type="curve" smooth="yes"/>
			<point x="255" y="134"/>
			<point x="204" y="179"/>
			<point x="201" y="484" type="curve"/>
			<point x="74" y="442" type="line"/>
			<point x="76" y="103"/>
			<point x="172" y="-12"/>
		</contour>
	</outline>
</glyph>
<glyph name="pmPe" format="2">
	<unicode hex="10871"/>
	<advance width="609"/>
	<outline>
		<contour>
			<point x="46" y="-10" type="line"/>
			<point x="519" y="-10" type="line"/>
			<point x="531" y="96"/>
			<point x="539" y="189"/>
			<point x="539" y="305" type="curve" smooth="yes"/>
			<point x="539" y="511"/>
			<point x="455" y="576"/>
			<point x="287" y="576" type="curve" smooth="yes"/>
			<point x="166" y="576"/>
			<point x="61" y="499"/>
			<point x="61" y="367" type="curve" smooth="yes"/>
			<point x="61" y="267"/>
			<point x="116" y="207"/>
			<point x="232" y="207" type="curve" smooth="yes"/>
			<point x="280" y="207" type="line"/>
			<point x="280" y="338" type="line"/>
			<point x="253" y="338" type="line" smooth="yes"/>
			<point x="209" y="338"/>
			<point x="188" y="350"/>
			<point x="188" y="380" type="curve" smooth="yes"/>
			<point x="188" y="410"/>
			<point x="214" y="429"/>
			<point x="256" y="429" type="curve" smooth="yes"/>
			<point x="373" y="429"/>
			<point x="412" y="379"/>
			<point x="412" y="237" type="curve" smooth="yes"/>
			<point x="412" y="203"/>
			<point x="410" y="161"/>
			<point x="407" y="130" type="curve"/>
			<point x="46" y="130" type="line"/>
		</contour>
	</outline>
</glyph>
<glyph name="pmSadhe" format="2">
	<unicode hex="10872"/>
	<advance width="571"/>
	<outline>
		<contour>
			<point x="46" y="0" type="line"/>
			<point x="516" y="0" type="line"/>
			<point x="542" y="140" type="line"/>
			<point x="46" y="140" type="line"/>
		</contour>
		<contour>
			<point x="448" y="83" type="curve"/>
			<point x="542" y="140" type="line"/>
			<point x="350" y="226"/>
			<point x="216" y="372"/>
			<point x="159" y="571" type="curve"/>
			<point x="4" y="544" type="line"/>
			<point x="79" y="299"/>
			<point x="231" y="173"/>
		</contour>
		<contour>
			<point x="387" y="192" type="line"/>
			<point x="496" y="276"/>
			<point x="538" y="354"/>
			<point x="538" y="428" type="curve" smooth="yes"/>
			<point x="538" y="523"/>
			<point x="489" y="564"/>
			<point x="374" y="564" type="curve" smooth="yes"/>
			<point x="304" y="564" type="line"/>
			<point x="304" y="417" type="line"/>
			<point x="319" y="417" type="line" smooth="yes"/>
			<point x="389" y="417"/>
			<point x="411" y="400"/>
			<point x="411" y="366" type="curve" smooth="yes"/>
			<point x="411" y="336"/>
			<point x="384" y="305"/>
			<point x="326" y="265" type="curve"/>
		</contour>
	</outline>
</glyph>
<glyph name="pmResh" format="2">
	<unicode hex="10874"/>
	<advance width="502"/>
	<outline>
		<contour>
			<point x="298" y="0" type="line"/>
			<point x="425" y="0" type="line"/>
			<point x="425" y="352" type="line" smooth="yes"/>
			<point x="425" y="506"/>
			<point x="343" y="564"/>
			<point x="224" y="564" type="curve" smooth="yes"/>
			<point x="12" y="564" type="line"/>
			<point x="12" y="417" type="line"/>
			<point x="163" y="417" type="line" smooth="yes"/>
			<point x="246" y="417"/>
			<point x="298" y="387"/>
			<point x="298" y="283" type="curve" smooth="yes"/>
		</contour>
	</outline>
</glyph>
<glyph name="hrAleph" format="2">
	<unicode hex="108E0"/>
	<advance width="663"/>
	<outline>
		<contour>
			<point x="69" y="0" type="line"/>
			<point x="385" y="0" type="line" smooth="yes"/>
			<point x="505" y="0"/>
			<point x="586" y="59"/>
			<point x="586" y="212" type="curve" smooth="yes"/>
			<point x="586" y="564" type="line"/>
			<point x="459" y="564" type="line"/>
			<point x="459" y="281" type="line" smooth="yes"/>
			<point x="459" y="177"/>
			<point x="407" y="147"/>
			<point x="325" y="147" type="curve" smooth="yes"/>
			<point x="69" y="147" type="line"/>
		</contour>
		<contour>
			<point x="243" y="18" type="curve"/>
			<point x="351" y="48" type="line"/>
			<point x="326" y="249"/>
			<point x="272" y="455"/>
			<point x="216" y="571" type="curve"/>
			<point x="61" y="544" type="line"/>
			<point x="138" y="399"/>
			<point x="219" y="201"/>
		</contour>
	</outline>
</glyph>
<glyph name="hrGimel" format="2">
	<unicode hex="108E2"/>
	<advance width="571"/>
	<outline>
		<contour>
			<point x="46" y="0" type="line"/>
			<point x="516" y="0" type="line"/>
			<point x="539" y="123" type="line"/>
			<point x="347" y="218"/>
			<point x="216" y="364"/>
			<point x="159" y="571" type="curve"/>
			<point x="4" y="549" type="line"/>
			<point x="63" y="343"/>
			<point x="165" y="226"/>
			<point x="323" y="125" type="curve"/>
			<point x="345" y="140" type="line"/>
			<point x="46" y="140" type="line"/>
		</contour>
	</outline>
	<anchor name="aboveHE" x="273" y="590"/>
	<anchor name="belowPrimaryHE" x="281" y="-23"/>
	<anchor name="centerHE" x="89" y="226"/>
	<anchor name="aboveLeftHE" x="0" y="590"/>
</glyph>
<glyph name="hrHe" format="2">
	<unicode hex="108E4"/>
	<advance width="628"/>
	<outline>
		<contour>
			<point x="64" y="0" type="curve"/>
			<point x="216" y="0" type="line"/>
			<point x="210" y="35"/>
			<point x="207" y="70"/>
			<point x="207" y="103" type="curve" smooth="yes"/>
			<point x="207" y="186"/>
			<point x="212" y="264"/>
			<point x="246" y="350" type="curve"/>
			<point x="164" y="376" type="line"/>
			<point x="104" y="299"/>
			<point x="62" y="178"/>
			<point x="62" y="48" type="curve" smooth="yes"/>
			<point x="62" y="31"/>
			<point x="62" y="17"/>
		</contour>
		<contour>
			<point x="466" y="-11" type="curve"/>
			<point x="626" y="28" type="line"/>
			<point x="469" y="174"/>
			<point x="277" y="386"/>
			<point x="187" y="571" type="curve"/>
			<point x="31" y="541" type="line"/>
			<point x="138" y="351"/>
			<point x="323" y="116"/>
		</contour>
		<component base="aiZayin" xOffset="385"/>
	</outline>
	<anchor name="aboveHE" x="326" y="590"/>
	<anchor name="belowPrimaryHE" x="312" y="-23"/>
	<anchor name="aboveLeftHE" x="24" y="590"/>
	<anchor name="centerHE" x="271" y="95"/>
</glyph>
<glyph name="hrWaw" format="2">
	<unicode hex="108E5"/>
	<advance width="439"/>
	<outline>
		<contour>
			<point x="205" y="-12" type="line"/>
			<point x="359" y="82"/>
			<point x="397" y="204"/>
			<point x="397" y="322" type="curve" smooth="yes"/>
			<point x="397" y="451"/>
			<point x="295" y="563"/>
			<point x="152" y="574" type="curve"/>
			<point x="118" y="427" type="line"/>
			<point x="194" y="418"/>
			<point x="270" y="376"/>
			<point x="270" y="288" type="curve" smooth="yes"/>
			<point x="270" y="231"/>
			<point x="244" y="168"/>
			<point x="129" y="106" type="curve"/>
		</contour>
	</outline>
</glyph>
<glyph name="hrTeth" format="2">
	<unicode hex="108E8"/>
	<advance width="609"/>
	<outline>
		<contour>
			<point x="322" y="-12" type="curve" smooth="yes"/>
			<point x="443" y="-12"/>
			<point x="548" y="66"/>
			<point x="548" y="197" type="curve" smooth="yes"/>
			<point x="548" y="297"/>
			<point x="492" y="357"/>
			<point x="376" y="357" type="curve" smooth="yes"/>
			<point x="328" y="357" type="line"/>
			<point x="328" y="226" type="line"/>
			<point x="356" y="226" type="line" smooth="yes"/>
			<point x="400" y="226"/>
			<point x="421" y="215"/>
			<point x="421" y="184" type="curve" smooth="yes"/>
			<point x="421" y="154"/>
			<point x="394" y="135"/>
			<point x="353" y="135" type="curve" smooth="yes"/>
			<point x="277" y="135"/>
			<point x="244" y="174"/>
			<point x="244" y="240" type="curve" smooth="yes"/>
			<point x="244" y="342"/>
			<point x="320" y="462"/>
			<point x="575" y="591" type="curve"/>
			<point x="495" y="703" type="line"/>
			<point x="224" y="533"/>
			<point x="117" y="378"/>
			<point x="117" y="213" type="curve" smooth="yes"/>
			<point x="117" y="80"/>
			<point x="177" y="-12"/>
		</contour>
	</outline>
</glyph>
<glyph name="hrYodh" format="2">
	<unicode hex="108E9"/>
	<advance width="487"/>
	<outline>
		<contour>
			<point x="404" y="-12" type="curve"/>
			<point x="419" y="107" type="line"/>
			<point x="292" y="107"/>
			<point x="187" y="197"/>
			<point x="187" y="306" type="curve" smooth="yes"/>
			<point x="187" y="397"/>
			<point x="239" y="455"/>
			<point x="315" y="455" type="curve" smooth="yes"/>
			<point x="347" y="455"/>
			<point x="370" y="446"/>
			<point x="390" y="430" type="curve"/>
			<point x="459" y="521" type="line"/>
			<point x="423" y="554"/>
			<point x="371" y="574"/>
			<point x="306" y="574" type="curve" smooth="yes"/>
			<point x="162" y="574"/>
			<point x="36" y="476"/>
			<point x="36" y="306" type="curve" smooth="yes"/>
			<point x="36" y="117"/>
			<point x="201" y="-12"/>
		</contour>
	</outline>
</glyph>
<glyph name="hrLamedh" format="2">
	<unicode hex="108EB"/>
	<advance width="402"/>
	<outline>
		<contour>
			<point x="110" y="-12" type="line"/>
			<point x="310" y="119"/>
			<point x="369" y="248"/>
			<point x="369" y="389" type="curve" smooth="yes"/>
			<point x="369" y="608"/>
			<point x="110" y="805"/>
			<point x="-243" y="819" type="curve"/>
			<point x="-278" y="672" type="line"/>
			<point x="-23" y="657"/>
			<point x="242" y="560"/>
			<point x="242" y="355" type="curve" smooth="yes"/>
			<point x="242" y="277"/>
			<point x="197" y="203"/>
			<point x="35" y="106" type="curve"/>
		</contour>
	</outline>
</glyph>
<glyph name="hrNun" format="2">
	<unicode hex="108ED"/>
	<advance width="342"/>
	<outline>
		<contour>
			<point x="4" y="-190" type="line"/>
			<point x="78" y="-190" type="line" smooth="yes"/>
			<point x="191" y="-190"/>
			<point x="265" y="-140"/>
			<point x="265" y="0" type="curve" smooth="yes"/>
			<point x="265" y="564" type="line"/>
			<point x="138" y="564" type="line"/>
			<point x="138" y="69" type="line" smooth="yes"/>
			<point x="138" y="-20"/>
			<point x="97" y="-43"/>
			<point x="25" y="-43" type="curve" smooth="yes"/>
			<point x="4" y="-43" type="line"/>
		</contour>
	</outline>
</glyph>
<glyph name="hrAyn" format="2">
	<unicode hex="108EF"/>
	<advance width="616"/>
	<outline>
		<contour>
			<point x="306" y="155" type="curve" smooth="yes"/>
			<point x="466" y="155"/>
			<point x="580" y="253"/>
			<point x="585" y="571" type="curve"/>
			<point x="431" y="544" type="line"/>
			<point x="431" y="333"/>
			<point x="389" y="301"/>
			<point x="320" y="301" type="curve" smooth="yes"/>
			<point x="252" y="301"/>
			<point x="210" y="336"/>
			<point x="210" y="571" type="curve"/>
			<point x="56" y="544" type="line"/>
			<point x="61" y="246"/>
			<point x="163" y="155"/>
		</contour>
	</outline>
</glyph>
<glyph name="hrPe" format="2">
	<unicode hex="108F0"/>
	<advance width="604"/>
	<outline>
		<contour>
			<point x="403" y="-164" type="line"/>
			<point x="530" y="-164" type="line"/>
			<point x="530" y="342" type="line" smooth="yes"/>
			<point x="530" y="520"/>
			<point x="437" y="576"/>
			<point x="301" y="576" type="curve" smooth="yes"/>
			<point x="183" y="576"/>
			<point x="77" y="495"/>
			<point x="77" y="349" type="curve" smooth="yes"/>
			<point x="77" y="239"/>
			<point x="133" y="172"/>
			<point x="249" y="172" type="curve" smooth="yes"/>
			<point x="297" y="172" type="line"/>
			<point x="297" y="320" type="line"/>
			<point x="269" y="320" type="line" smooth="yes"/>
			<point x="225" y="320"/>
			<point x="204" y="332"/>
			<point x="204" y="367" type="curve" smooth="yes"/>
			<point x="204" y="404"/>
			<point x="239" y="429"/>
			<point x="280" y="429" type="curve" smooth="yes"/>
			<point x="360" y="429"/>
			<point x="403" y="406"/>
			<point x="403" y="281" type="curve" smooth="yes"/>
		</contour>
	</outline>
</glyph>
<glyph name="pnAlf" format="2">
	<unicode hex="10900"/>
	<advance width="561"/>
	<outline>
		<contour>
			<point x="79" y="312" type="line"/>
			<point x="491" y="312" type="line"/>
			<point x="491" y="417" type="line"/>
			<point x="79" y="417" type="line"/>
		</contour>
		<contour>
			<point x="281" y="-12" type="curve" smooth="yes"/>
			<point x="438" y="-12"/>
			<point x="552" y="108"/>
			<point x="552" y="528" type="curve"/>
			<point x="399" y="528" type="line"/>
			<point x="399" y="175"/>
			<point x="362" y="116"/>
			<point x="296" y="116" type="curve" smooth="yes"/>
			<point x="230" y="116"/>
			<point x="193" y="177"/>
			<point x="193" y="535" type="curve"/>
			<point x="23" y="522" type="line"/>
			<point x="23" y="100"/>
			<point x="135" y="-12"/>
		</contour>
	</outline>
</glyph>
<glyph name="pnBet" format="2">
	<unicode hex="10901"/>
	<advance width="566"/>
	<outline>
		<contour>
			<point x="95" y="0" type="line"/>
			<point x="489" y="0" type="line"/>
			<point x="489" y="528" type="line"/>
			<point x="291" y="528" type="line" smooth="yes"/>
			<point x="167" y="528"/>
			<point x="59" y="484"/>
			<point x="59" y="359" type="curve" smooth="yes"/>
			<point x="59" y="236"/>
			<point x="169" y="204"/>
			<point x="294" y="204" type="curve" smooth="yes"/>
			<point x="362" y="204" type="line"/>
			<point x="362" y="127" type="line"/>
			<point x="95" y="127" type="line"/>
		</contour>
		<contour>
			<point x="277" y="303" type="line" smooth="yes"/>
			<point x="227" y="303"/>
			<point x="201" y="315"/>
			<point x="201" y="354" type="curve" smooth="yes"/>
			<point x="201" y="384"/>
			<point x="225" y="401"/>
			<point x="276" y="401" type="curve" smooth="yes"/>
			<point x="362" y="401" type="line"/>
			<point x="362" y="303" type="line"/>
		</contour>
	</outline>
</glyph>
<glyph name="pnGaml" format="2">
	<unicode hex="10902"/>
	<advance width="471"/>
	<outline>
		<contour>
			<point x="267" y="0" type="line"/>
			<point x="394" y="0" type="line"/>
			<point x="394" y="564" type="line"/>
			<point x="36" y="564" type="line"/>
			<point x="36" y="417" type="line"/>
			<point x="267" y="417" type="line"/>
		</contour>
	</outline>
</glyph>
<glyph name="pnDelt" format="2">
	<unicode hex="10903"/>
	<advance width="560"/>
	<outline>
		<contour>
			<point x="339" y="-12" type="curve" smooth="yes"/>
			<point x="483" y="-12" type="line"/>
			<point x="483" y="528" type="line"/>
			<point x="348" y="528" type="line" smooth="yes"/>
			<point x="174" y="528"/>
			<point x="49" y="452"/>
			<point x="49" y="262" type="curve" smooth="yes"/>
			<point x="49" y="69"/>
			<point x="175" y="-12"/>
		</contour>
		<contour>
			<point x="319" y="115" type="line" smooth="yes"/>
			<point x="234" y="115"/>
			<point x="187" y="162"/>
			<point x="187" y="262" type="curve" smooth="yes"/>
			<point x="187" y="358"/>
			<point x="234" y="401"/>
			<point x="319" y="401" type="curve" smooth="yes"/>
			<point x="337" y="401" type="line"/>
			<point x="337" y="115" type="line"/>
		</contour>
		<contour>
			<point x="337" y="-164" type="line"/>
			<point x="483" y="-164" type="line"/>
			<point x="483" y="-2" type="line"/>
			<point x="337" y="-2" type="line"/>
		</contour>
	</outline>
</glyph>
<glyph name="pnHe" format="2">
	<unicode hex="10904"/>
	<advance width="507"/>
	<outline>
		<contour>
			<point x="284" y="-164" type="line"/>
			<point x="430" y="-164" type="line"/>
			<point x="430" y="528" type="line"/>
			<point x="63" y="528" type="line"/>
			<point x="63" y="401" type="line"/>
			<point x="284" y="401" type="line"/>
			<point x="284" y="324" type="line"/>
			<point x="103" y="324" type="line"/>
			<point x="103" y="214" type="line"/>
			<point x="284" y="214" type="line"/>
			<point x="284" y="127" type="line"/>
			<point x="61" y="127" type="line"/>
			<point x="61" y="0" type="line"/>
			<point x="284" y="0" type="line"/>
		</contour>
	</outline>
</glyph>
<glyph name="pnHet" format="2">
	<unicode hex="10907"/>
	<advance width="648"/>
	<outline>
		<contour>
			<point x="444" y="-164" type="line"/>
			<point x="571" y="-164" type="line"/>
			<point x="571" y="528" type="line"/>
			<point x="220" y="528" type="line"/>
			<point x="220" y="688" type="line"/>
			<point x="93" y="688" type="line"/>
			<point x="93" y="0" type="line"/>
			<point x="444" y="0" type="line"/>
		</contour>
		<contour>
			<point x="220" y="324" type="line"/>
			<point x="220" y="398" type="line"/>
			<point x="444" y="398" type="line"/>
			<point x="444" y="324" type="line"/>
		</contour>
		<contour>
			<point x="220" y="131" type="line"/>
			<point x="220" y="210" type="line"/>
			<point x="444" y="210" type="line"/>
			<point x="444" y="131" type="line"/>
		</contour>
	</outline>
</glyph>
<glyph name="pnTet" format="2">
	<unicode hex="10908"/>
	<advance width="606"/>
	<outline>
		<contour>
			<point x="262" y="146" type="line"/>
			<point x="356" y="146" type="line"/>
			<point x="356" y="213" type="line"/>
			<point x="421" y="213" type="line"/>
			<point x="421" y="321" type="line"/>
			<point x="356" y="321" type="line"/>
			<point x="356" y="381" type="line"/>
			<point x="262" y="381" type="line"/>
			<point x="262" y="321" type="line"/>
			<point x="196" y="321" type="line"/>
			<point x="196" y="213" type="line"/>
			<point x="262" y="213" type="line"/>
		</contour>
		<contour>
			<point x="312" y="-12" type="curve" smooth="yes"/>
			<point x="466" y="-12"/>
			<point x="573" y="91"/>
			<point x="573" y="266" type="curve" smooth="yes"/>
			<point x="573" y="441"/>
			<point x="466" y="540"/>
			<point x="312" y="540" type="curve" smooth="yes"/>
			<point x="156" y="540"/>
			<point x="49" y="442"/>
			<point x="49" y="266" type="curve" smooth="yes"/>
			<point x="49" y="91"/>
			<point x="156" y="-12"/>
		</contour>
		<contour>
			<point x="312" y="119" type="curve" smooth="yes"/>
			<point x="222" y="119"/>
			<point x="168" y="175"/>
			<point x="168" y="266" type="curve" smooth="yes"/>
			<point x="168" y="358"/>
			<point x="222" y="409"/>
			<point x="312" y="409" type="curve" smooth="yes"/>
			<point x="400" y="409"/>
			<point x="454" y="358"/>
			<point x="454" y="266" type="curve" smooth="yes"/>
			<point x="454" y="175"/>
			<point x="400" y="119"/>
		</contour>
	</outline>
</glyph>
<glyph name="pnYod" format="2">
	<unicode hex="10909"/>
	<advance width="496"/>
	<outline>
		<contour>
			<point x="85" y="0" type="line"/>
			<point x="455" y="0" type="line"/>
			<point x="455" y="147" type="line"/>
			<point x="277" y="147" type="line"/>
			<point x="370" y="215"/>
			<point x="446" y="296"/>
			<point x="446" y="376" type="curve" smooth="yes"/>
			<point x="446" y="460"/>
			<point x="399" y="528"/>
			<point x="269" y="528" type="curve" smooth="yes"/>
			<point x="71" y="528" type="line"/>
			<point x="71" y="398" type="line"/>
			<point x="231" y="398" type="line" smooth="yes"/>
			<point x="295" y="398"/>
			<point x="318" y="374"/>
			<point x="318" y="332" type="curve" smooth="yes"/>
			<point x="318" y="281"/>
			<point x="228" y="219"/>
			<point x="68" y="122" type="curve"/>
		</contour>
		<contour>
			<point x="110" y="223" type="line"/>
			<point x="343" y="223" type="line"/>
			<point x="343" y="337" type="line"/>
			<point x="110" y="337" type="line"/>
		</contour>
	</outline>
</glyph>
<glyph name="pnKaf" format="2">
	<unicode hex="1090A"/>
	<advance width="508"/>
	<outline>
		<contour>
			<point x="293" y="-164" type="line"/>
			<point x="420" y="-164" type="line"/>
			<point x="420" y="528" type="line"/>
			<point x="293" y="528" type="line"/>
			<point x="293" y="443" type="line"/>
			<point x="314" y="453" type="line"/>
			<point x="266" y="513"/>
			<point x="179" y="540"/>
			<point x="61" y="540" type="curve"/>
			<point x="61" y="395" type="line"/>
			<point x="256" y="395"/>
			<point x="293" y="373"/>
			<point x="293" y="336" type="curve" smooth="yes"/>
			<point x="293" y="292"/>
			<point x="256" y="267"/>
			<point x="61" y="267" type="curve"/>
			<point x="61" y="122" type="line"/>
			<point x="196" y="122"/>
			<point x="269" y="149"/>
			<point x="316" y="201" type="curve"/>
			<point x="293" y="205" type="line"/>
		</contour>
	</outline>
</glyph>
<glyph name="pnLamd" format="2">
	<unicode hex="1090B"/>
	<advance width="471"/>
	<outline>
		<contour>
			<point x="77" y="0" type="line"/>
			<point x="434" y="0" type="line"/>
			<point x="434" y="147" type="line"/>
			<point x="204" y="147" type="line"/>
			<point x="204" y="564" type="line"/>
			<point x="77" y="564" type="line"/>
		</contour>
	</outline>
</glyph>
<glyph name="pnMem" format="2">
	<unicode hex="1090C"/>
	<advance width="826"/>
	<outline>
		<contour>
			<point x="622" y="-164" type="line"/>
			<point x="749" y="-164" type="line"/>
			<point x="749" y="528" type="line"/>
			<point x="628" y="528" type="line"/>
			<point x="627" y="389"/>
			<point x="588" y="268"/>
			<point x="530" y="268" type="curve" smooth="yes"/>
			<point x="488" y="268"/>
			<point x="462" y="307"/>
			<point x="462" y="534" type="curve"/>
			<point x="334" y="520" type="line"/>
			<point x="333" y="381"/>
			<point x="297" y="268"/>
			<point x="244" y="268" type="curve" smooth="yes"/>
			<point x="197" y="268"/>
			<point x="168" y="305"/>
			<point x="168" y="535" type="curve"/>
			<point x="31" y="522" type="line"/>
			<point x="31" y="203"/>
			<point x="115" y="122"/>
			<point x="221" y="122" type="curve" smooth="yes"/>
			<point x="286" y="122"/>
			<point x="351" y="166"/>
			<point x="389" y="264" type="curve"/>
			<point x="366" y="264" type="line"/>
			<point x="392" y="163"/>
			<point x="440" y="122"/>
			<point x="507" y="122" type="curve" smooth="yes"/>
			<point x="556" y="122"/>
			<point x="608" y="150"/>
			<point x="642" y="202" type="curve"/>
			<point x="640" y="225" type="line"/>
			<point x="624" y="129"/>
			<point x="622" y="75"/>
			<point x="622" y="22" type="curve" smooth="yes"/>
		</contour>
	</outline>
</glyph>
<glyph name="pnNun" format="2">
	<unicode hex="1090D"/>
	<advance width="592"/>
	<outline>
		<contour>
			<point x="388" y="-164" type="line"/>
			<point x="516" y="-164" type="line"/>
			<point x="516" y="528" type="line"/>
			<point x="394" y="528" type="line"/>
			<point x="393" y="388"/>
			<point x="342" y="268"/>
			<point x="268" y="268" type="curve" smooth="yes"/>
			<point x="207" y="268"/>
			<point x="168" y="305"/>
			<point x="168" y="535" type="curve"/>
			<point x="31" y="522" type="line"/>
			<point x="31" y="203"/>
			<point x="124" y="122"/>
			<point x="245" y="122" type="curve" smooth="yes"/>
			<point x="303" y="122"/>
			<point x="363" y="154"/>
			<point x="408" y="215" type="curve"/>
			<point x="406" y="238" type="line"/>
			<point x="390" y="142"/>
			<point x="388" y="88"/>
			<point x="388" y="35" type="curve" smooth="yes"/>
		</contour>
	</outline>
</glyph>
<glyph name="pnSemk" format="2">
	<unicode hex="1090E"/>
	<advance width="662"/>
	<outline>
		<contour>
			<point x="268" y="-120" type="line"/>
			<point x="395" y="-120" type="line"/>
			<point x="395" y="31" type="line"/>
			<point x="613" y="31" type="line"/>
			<point x="613" y="178" type="line"/>
			<point x="395" y="178" type="line"/>
			<point x="395" y="233" type="line"/>
			<point x="574" y="233" type="line"/>
			<point x="574" y="364" type="line"/>
			<point x="395" y="364" type="line"/>
			<point x="395" y="417" type="line"/>
			<point x="613" y="417" type="line"/>
			<point x="613" y="564" type="line"/>
			<point x="50" y="564" type="line"/>
			<point x="50" y="417" type="line"/>
			<point x="268" y="417" type="line"/>
			<point x="268" y="364" type="line"/>
			<point x="88" y="364" type="line"/>
			<point x="88" y="233" type="line"/>
			<point x="268" y="233" type="line"/>
			<point x="268" y="178" type="line"/>
			<point x="50" y="178" type="line"/>
			<point x="50" y="31" type="line"/>
			<point x="268" y="31" type="line"/>
		</contour>
	</outline>
</glyph>
<glyph name="pnAin" format="2">
	<unicode hex="1090F"/>
	<advance width="589"/>
	<outline>
		<contour>
			<point x="304" y="21" type="curve" smooth="yes"/>
			<point x="453" y="21"/>
			<point x="556" y="118"/>
			<point x="556" y="282" type="curve" smooth="yes"/>
			<point x="556" y="447"/>
			<point x="453" y="540"/>
			<point x="304" y="540" type="curve" smooth="yes"/>
			<point x="153" y="540"/>
			<point x="49" y="448"/>
			<point x="49" y="282" type="curve" smooth="yes"/>
			<point x="49" y="118"/>
			<point x="153" y="21"/>
		</contour>
		<contour>
			<point x="304" y="169" type="curve" smooth="yes"/>
			<point x="224" y="169"/>
			<point x="177" y="212"/>
			<point x="177" y="282" type="curve" smooth="yes"/>
			<point x="177" y="353"/>
			<point x="224" y="392"/>
			<point x="304" y="392" type="curve" smooth="yes"/>
			<point x="382" y="392"/>
			<point x="429" y="353"/>
			<point x="429" y="282" type="curve" smooth="yes"/>
			<point x="429" y="212"/>
			<point x="382" y="169"/>
		</contour>
	</outline>
</glyph>
<glyph name="pnPe" format="2">
	<unicode hex="10910"/>
	<advance width="641"/>
	<outline>
		<contour>
			<point x="372" y="-120" type="line"/>
			<point x="499" y="-120" type="line"/>
			<point x="499" y="356" type="line" smooth="yes"/>
			<point x="499" y="529"/>
			<point x="389" y="576"/>
			<point x="282" y="576" type="curve" smooth="yes"/>
			<point x="174" y="576"/>
			<point x="65" y="529"/>
			<point x="65" y="356" type="curve" smooth="yes"/>
			<point x="65" y="261" type="line"/>
			<point x="192" y="261" type="line"/>
			<point x="192" y="318" type="line" smooth="yes"/>
			<point x="192" y="404"/>
			<point x="234" y="428"/>
			<point x="282" y="428" type="curve" smooth="yes"/>
			<point x="329" y="428"/>
			<point x="372" y="404"/>
			<point x="372" y="318" type="curve" smooth="yes"/>
		</contour>
	</outline>
</glyph>
<glyph name="pnSade" format="2">
	<unicode hex="10911"/>
	<advance width="826"/>
	<outline>
		<contour>
			<point x="93" y="-164" type="line"/>
			<point x="221" y="-164" type="line"/>
			<point x="221" y="22" type="line" smooth="yes"/>
			<point x="221" y="62"/>
			<point x="217" y="101"/>
			<point x="205" y="184" type="curve"/>
			<point x="188" y="171" type="line"/>
			<point x="222" y="138"/>
			<point x="244" y="122"/>
			<point x="281" y="122" type="curve" smooth="yes"/>
			<point x="346" y="122"/>
			<point x="410" y="166"/>
			<point x="449" y="264" type="curve"/>
			<point x="426" y="264" type="line"/>
			<point x="452" y="163"/>
			<point x="500" y="122"/>
			<point x="567" y="122" type="curve" smooth="yes"/>
			<point x="704" y="122"/>
			<point x="808" y="296"/>
			<point x="809" y="528" type="curve"/>
			<point x="689" y="528" type="line"/>
			<point x="688" y="389"/>
			<point x="649" y="268"/>
			<point x="590" y="268" type="curve" smooth="yes"/>
			<point x="548" y="268"/>
			<point x="522" y="307"/>
			<point x="522" y="534" type="curve"/>
			<point x="393" y="520" type="line"/>
			<point x="393" y="381"/>
			<point x="357" y="268"/>
			<point x="304" y="268" type="curve" smooth="yes"/>
			<point x="256" y="268"/>
			<point x="227" y="305"/>
			<point x="227" y="535" type="curve"/>
			<point x="93" y="522" type="line"/>
		</contour>
	</outline>
</glyph>
<glyph name="pnRosh" format="2">
	<unicode hex="10913"/>
	<advance width="556"/>
	<outline>
		<contour>
			<point x="353" y="-164" type="line"/>
			<point x="480" y="-164" type="line"/>
			<point x="480" y="528" type="line"/>
			<point x="298" y="528" type="line" smooth="yes"/>
			<point x="157" y="528"/>
			<point x="49" y="476"/>
			<point x="49" y="326" type="curve" smooth="yes"/>
			<point x="49" y="176"/>
			<point x="158" y="122"/>
			<point x="290" y="122" type="curve" smooth="yes"/>
			<point x="353" y="122" type="line"/>
		</contour>
		<contour>
			<point x="283" y="267" type="line" smooth="yes"/>
			<point x="217" y="267"/>
			<point x="176" y="283"/>
			<point x="176" y="327" type="curve" smooth="yes"/>
			<point x="176" y="368"/>
			<point x="217" y="383"/>
			<point x="282" y="383" type="curve" smooth="yes"/>
			<point x="353" y="383" type="line"/>
			<point x="353" y="267" type="line"/>
		</contour>
	</outline>
</glyph>
<glyph name="pnShin" format="2">
	<unicode hex="10914"/>
	<advance width="766"/>
	<outline>
		<contour>
			<point x="221" y="122" type="curve" smooth="yes"/>
			<point x="286" y="122"/>
			<point x="351" y="166"/>
			<point x="389" y="264" type="curve"/>
			<point x="366" y="264" type="line"/>
			<point x="392" y="163"/>
			<point x="440" y="122"/>
			<point x="507" y="122" type="curve" smooth="yes"/>
			<point x="645" y="122"/>
			<point x="749" y="296"/>
			<point x="750" y="528" type="curve"/>
			<point x="629" y="528" type="line"/>
			<point x="629" y="389"/>
			<point x="589" y="268"/>
			<point x="530" y="268" type="curve" smooth="yes"/>
			<point x="488" y="268"/>
			<point x="462" y="307"/>
			<point x="462" y="534" type="curve"/>
			<point x="334" y="520" type="line"/>
			<point x="333" y="381"/>
			<point x="297" y="268"/>
			<point x="244" y="268" type="curve" smooth="yes"/>
			<point x="197" y="268"/>
			<point x="168" y="305"/>
			<point x="168" y="535" type="curve"/>
			<point x="31" y="522" type="line"/>
			<point x="31" y="203"/>
			<point x="115" y="122"/>
		</contour>
	</outline>
</glyph>
<glyph name="pnTau" format="2">
	<unicode hex="10915"/>
	<advance width="545"/>
	<outline>
		<contour>
			<point x="209" y="0" type="line"/>
			<point x="336" y="0" type="line"/>
			<point x="336" y="211" type="line"/>
			<point x="509" y="211" type="line"/>
			<point x="509" y="358" type="line"/>
			<point x="336" y="358" type="line"/>
			<point x="336" y="564" type="line"/>
			<point x="209" y="564" type="line"/>
			<point x="209" y="358" type="line"/>
			<point x="36" y="358" type="line"/>
			<point x="36" y="211" type="line"/>
			<point x="209" y="211" type="line"/>
		</contour>
	</outline>
</glyph>
<glyph name="acutecmb.cap" format="2">
	<outline>
		<contour>
			<point x="-10" y="680" type="line"/>
			<point x="173" y="799" type="line"/>
			<point x="95" y="894" type="line"/>
			<point x="-76" y="754" type="line"/>
		</contour>
	</outline>
	<anchor name="_aboveUC" x="0" y="672"/>
</glyph>
<glyph name="ampersand.S" format="2">
	<advance width="646"/>
	<outline>
		<contour>
			<point x="592" y="-12" type="curve"/>
			<point x="627" y="107" type="line"/>
			<point x="593" y="114"/>
			<point x="532" y="135"/>
			<point x="477" y="169" type="curve" smooth="yes"/>
			<point x="353" y="248"/>
			<point x="214" y="350"/>
			<point x="214" y="440" type="curve" smooth="yes"/>
			<point x="214" y="474"/>
			<point x="244" y="495"/>
			<point x="281" y="495" type="curve" smooth="yes"/>
			<point x="326" y="495"/>
			<point x="354" y="485"/>
			<point x="402" y="454" type="curve"/>
			<point x="453" y="557" type="line"/>
			<point x="396" y="599"/>
			<point x="352" y="616"/>
			<point x="281" y="616" type="curve" smooth="yes"/>
			<point x="169" y="616"/>
			<point x="98" y="538"/>
			<point x="98" y="446" type="curve" smooth="yes"/>
			<point x="98" y="330"/>
			<point x="236" y="177"/>
			<point x="389" y="76" type="curve" smooth="yes"/>
			<point x="456" y="32"/>
			<point x="527" y="1"/>
		</contour>
		<contour>
			<point x="245" y="-12" type="curve" smooth="yes"/>
			<point x="350" y="-12"/>
			<point x="418" y="35"/>
			<point x="476" y="100" type="curve" smooth="yes"/>
			<point x="544" y="179"/>
			<point x="588" y="270"/>
			<point x="615" y="365" type="curve"/>
			<point x="481" y="365" type="line"/>
			<point x="458" y="282"/>
			<point x="423" y="215"/>
			<point x="374" y="166" type="curve" smooth="yes"/>
			<point x="337" y="131"/>
			<point x="296" y="109"/>
			<point x="255" y="109" type="curve" smooth="yes"/>
			<point x="189" y="109"/>
			<point x="145" y="135"/>
			<point x="145" y="188" type="curve" smooth="yes"/>
			<point x="145" y="229"/>
			<point x="172" y="257"/>
			<point x="227" y="289" type="curve"/>
			<point x="175" y="375" type="line"/>
			<point x="94" y="333"/>
			<point x="25" y="271"/>
			<point x="25" y="172" type="curve" smooth="yes"/>
			<point x="25" y="62"/>
			<point x="108" y="-12"/>
		</contour>
	</outline>
</glyph>
<glyph name="cedi.S" format="2">
	<advance width="528"/>
	<outline>
		<contour>
			<point x="334" y="-12" type="curve" smooth="yes"/>
			<point x="398" y="-12"/>
			<point x="452" y="10"/>
			<point x="503" y="56" type="curve"/>
			<point x="445" y="159" type="line"/>
			<point x="410" y="131"/>
			<point x="376" y="117"/>
			<point x="339" y="117" type="curve" smooth="yes"/>
			<point x="243" y="117"/>
			<point x="180" y="181"/>
			<point x="180" y="283" type="curve" smooth="yes"/>
			<point x="180" y="384"/>
			<point x="242" y="447"/>
			<point x="336" y="447" type="curve" smooth="yes"/>
			<point x="371" y="447"/>
			<point x="400" y="435"/>
			<point x="434" y="411" type="curve"/>
			<point x="492" y="515" type="line"/>
			<point x="448" y="556"/>
			<point x="392" y="576"/>
			<point x="331" y="576" type="curve" smooth="yes"/>
			<point x="169" y="576"/>
			<point x="56" y="464"/>
			<point x="56" y="278" type="curve" smooth="yes"/>
			<point x="56" y="97"/>
			<point x="170" y="-12"/>
		</contour>
		<contour>
			<point x="279" y="-110" type="line"/>
			<point x="359" y="-110" type="line"/>
			<point x="359" y="664" type="line"/>
			<point x="279" y="664" type="line"/>
		</contour>
	</outline>
</glyph>
<glyph name="dong.S" format="2">
	<advance width="528"/>
	<outline>
		<contour>
			<point x="226" y="116" type="curve" smooth="yes"/>
			<point x="268" y="116"/>
			<point x="306" y="134"/>
			<point x="332" y="162" type="curve"/>
			<point x="335" y="162" type="line"/>
			<point x="344" y="126" type="line"/>
			<point x="443" y="126" type="line"/>
			<point x="443" y="673" type="line"/>
			<point x="323" y="673" type="line"/>
			<point x="323" y="539" type="line"/>
			<point x="327" y="461" type="line"/>
			<point x="299" y="486"/>
			<point x="274" y="500"/>
			<point x="230" y="500" type="curve" smooth="yes"/>
			<point x="149" y="500"/>
			<point x="65" y="437"/>
			<point x="65" y="313" type="curve" smooth="yes"/>
			<point x="65" y="180"/>
			<point x="129" y="116"/>
		</contour>
		<contour>
			<point x="256" y="227" type="curve" smooth="yes"/>
			<point x="215" y="227"/>
			<point x="189" y="254"/>
			<point x="189" y="308" type="curve" smooth="yes"/>
			<point x="189" y="359"/>
			<point x="224" y="387"/>
			<point x="260" y="387" type="curve" smooth="yes"/>
			<point x="284" y="387"/>
			<point x="303" y="380"/>
			<point x="323" y="362" type="curve"/>
			<point x="323" y="263" type="line"/>
			<point x="301" y="237"/>
			<point x="282" y="227"/>
		</contour>
		<contour>
			<point x="179" y="552" type="line"/>
			<point x="443" y="552" type="line"/>
			<point x="516" y="558" type="line"/>
			<point x="516" y="626" type="line"/>
			<point x="179" y="626" type="line"/>
		</contour>
		<contour>
			<point x="78" y="0" type="line"/>
			<point x="477" y="0" type="line"/>
			<point x="477" y="74" type="line"/>
			<point x="78" y="74" type="line"/>
		</contour>
	</outline>
</glyph>
<glyph name="eight.Dnom" format="2">
	<advance width="376"/>
	<outline>
		<contour>
			<point x="188" y="-12" type="curve" smooth="yes"/>
			<point x="274" y="-12"/>
			<point x="332" y="34"/>
			<point x="332" y="97" type="curve" smooth="yes"/>
			<point x="332" y="143"/>
			<point x="311" y="172"/>
			<point x="265" y="193" type="curve"/>
			<point x="265" y="197" type="line"/>
			<point x="302" y="216"/>
			<point x="319" y="246"/>
			<point x="319" y="280" type="curve" smooth="yes"/>
			<point x="319" y="341"/>
			<point x="261" y="378"/>
			<point x="188" y="378" type="curve" smooth="yes"/>
			<point x="116" y="378"/>
			<point x="57" y="339"/>
			<point x="57" y="279" type="curve" smooth="yes"/>
			<point x="57" y="240"/>
			<point x="75" y="213"/>
			<point x="111" y="192" type="curve"/>
			<point x="111" y="188" type="line"/>
			<point x="70" y="171"/>
			<point x="44" y="138"/>
			<point x="44" y="93" type="curve" smooth="yes"/>
			<point x="44" y="34"/>
			<point x="100" y="-12"/>
		</contour>
		<contour>
			<point x="209" y="221" type="curve"/>
			<point x="172" y="236"/>
			<point x="141" y="248"/>
			<point x="141" y="270" type="curve" smooth="yes"/>
			<point x="141" y="290"/>
			<point x="159" y="301"/>
			<point x="185" y="301" type="curve" smooth="yes"/>
			<point x="214" y="301"/>
			<point x="235" y="287"/>
			<point x="235" y="264" type="curve" smooth="yes"/>
			<point x="235" y="250"/>
			<point x="228" y="237"/>
		</contour>
		<contour>
			<point x="193" y="66" type="curve" smooth="yes"/>
			<point x="154" y="66"/>
			<point x="130" y="83"/>
			<point x="130" y="106" type="curve" smooth="yes"/>
			<point x="130" y="127"/>
			<point x="142" y="142"/>
			<point x="165" y="155" type="curve"/>
			<point x="209" y="134"/>
			<point x="246" y="127"/>
			<point x="246" y="100" type="curve" smooth="yes"/>
			<point x="246" y="80"/>
			<point x="225" y="66"/>
		</contour>
	</outline>
</glyph>
<glyph name="five.Dnom" format="2">
	<advance width="376"/>
	<outline>
		<contour>
			<point x="187" y="-12" type="curve" smooth="yes"/>
			<point x="270" y="-12"/>
			<point x="329" y="43"/>
			<point x="329" y="119" type="curve" smooth="yes"/>
			<point x="329" y="194"/>
			<point x="280" y="234"/>
			<point x="194" y="234" type="curve" smooth="yes"/>
			<point x="182" y="234"/>
			<point x="173" y="232"/>
			<point x="165" y="229" type="curve"/>
			<point x="170" y="269" type="line"/>
			<point x="314" y="269" type="line"/>
			<point x="314" y="366" type="line"/>
			<point x="85" y="366" type="line"/>
			<point x="69" y="181" type="line"/>
			<point x="115" y="156" type="line"/>
			<point x="136" y="163"/>
			<point x="151" y="168"/>
			<point x="177" y="168" type="curve" smooth="yes"/>
			<point x="214" y="168"/>
			<point x="239" y="155"/>
			<point x="239" y="125" type="curve" smooth="yes"/>
			<point x="239" y="99"/>
			<point x="217" y="79"/>
			<point x="179" y="79" type="curve" smooth="yes"/>
			<point x="144" y="79"/>
			<point x="121" y="85"/>
			<point x="92" y="107" type="curve"/>
			<point x="40" y="36" type="line"/>
			<point x="80" y="2"/>
			<point x="122" y="-12"/>
		</contour>
	</outline>
</glyph>
<glyph name="five.he" format="2">
	<advance width="528"/>
	<outline>
		<contour>
			<point x="247" y="-83" type="curve" smooth="yes"/>
			<point x="371" y="-83"/>
			<point x="480" y="-2"/>
			<point x="480" y="139" type="curve" smooth="yes"/>
			<point x="480" y="274"/>
			<point x="387" y="336"/>
			<point x="278" y="336" type="curve" smooth="yes"/>
			<point x="252" y="336"/>
			<point x="231" y="332"/>
			<point x="207" y="321" type="curve"/>
			<point x="218" y="441" type="line"/>
			<point x="451" y="441" type="line"/>
			<point x="451" y="564" type="line"/>
			<point x="91" y="564" type="line"/>
			<point x="73" y="243" type="line"/>
			<point x="139" y="201" type="line"/>
			<point x="177" y="225"/>
			<point x="196" y="234"/>
			<point x="233" y="234" type="curve" smooth="yes"/>
			<point x="292" y="234"/>
			<point x="333" y="199"/>
			<point x="333" y="135" type="curve" smooth="yes"/>
			<point x="333" y="70"/>
			<point x="291" y="36"/>
			<point x="226" y="36" type="curve" smooth="yes"/>
			<point x="172" y="36"/>
			<point x="127" y="64"/>
			<point x="89" y="99" type="curve"/>
			<point x="23" y="6" type="line"/>
			<point x="73" y="-44"/>
			<point x="143" y="-83"/>
		</contour>
	</outline>
</glyph>
<glyph name="four.Dnom" format="2">
	<advance width="376"/>
	<outline>
		<contour>
			<point x="209" y="0" type="line"/>
			<point x="301" y="0" type="line"/>
			<point x="301" y="390" type="line"/>
			<point x="167" y="390" type="line"/>
			<point x="27" y="159" type="line"/>
			<point x="27" y="80" type="line"/>
			<point x="359" y="80" type="line"/>
			<point x="359" y="174" type="line"/>
			<point x="126" y="174" type="line"/>
			<point x="164" y="238" type="line"/>
			<point x="211" y="320" type="line"/>
			<point x="215" y="320" type="line"/>
			<point x="209" y="203" type="line"/>
		</contour>
	</outline>
</glyph>
<glyph name="four.he" format="2">
	<advance width="528"/>
	<outline>
		<contour>
			<point x="294" y="-71" type="line"/>
			<point x="431" y="-71" type="line"/>
			<point x="431" y="564" type="line"/>
			<point x="251" y="564" type="line"/>
			<point x="19" y="182" type="line"/>
			<point x="19" y="81" type="line"/>
			<point x="504" y="81" type="line"/>
			<point x="504" y="193" type="line"/>
			<point x="160" y="193" type="line"/>
			<point x="244" y="331" type="line"/>
			<point x="262" y="367"/>
			<point x="280" y="403"/>
			<point x="296" y="439" type="curve"/>
			<point x="300" y="439" type="line"/>
			<point x="298" y="398"/>
			<point x="294" y="337"/>
			<point x="294" y="296" type="curve" smooth="yes"/>
		</contour>
	</outline>
</glyph>
<glyph name="franc.S" format="2">
	<advance width="528"/>
	<outline>
		<contour>
			<point x="122" y="0" type="line"/>
			<point x="260" y="0" type="line"/>
			<point x="260" y="220" type="line"/>
			<point x="454" y="220" type="line"/>
			<point x="454" y="344" type="line"/>
			<point x="260" y="344" type="line"/>
			<point x="260" y="434" type="line"/>
			<point x="495" y="434" type="line"/>
			<point x="495" y="564" type="line"/>
			<point x="122" y="564" type="line"/>
		</contour>
		<contour>
			<point x="46" y="68" type="line"/>
			<point x="400" y="68" type="line"/>
			<point x="400" y="159" type="line"/>
			<point x="124" y="159" type="line"/>
			<point x="46" y="154" type="line"/>
		</contour>
	</outline>
</glyph>
<glyph name="guarani.S" format="2">
	<advance width="528"/>
	<outline>
		<contour>
			<point x="309" y="-12" type="curve" smooth="yes"/>
			<point x="375" y="-12"/>
			<point x="439" y="7"/>
			<point x="485" y="44" type="curve"/>
			<point x="485" y="336" type="line"/>
			<point x="287" y="336" type="line"/>
			<point x="287" y="212" type="line"/>
			<point x="366" y="212" type="line"/>
			<point x="366" y="129" type="line"/>
			<point x="355" y="122"/>
			<point x="337" y="117"/>
			<point x="314" y="117" type="curve" smooth="yes"/>
			<point x="230" y="117"/>
			<point x="170" y="176"/>
			<point x="170" y="283" type="curve" smooth="yes"/>
			<point x="170" y="388"/>
			<point x="233" y="447"/>
			<point x="318" y="447" type="curve" smooth="yes"/>
			<point x="351" y="447"/>
			<point x="378" y="437"/>
			<point x="414" y="415" type="curve"/>
			<point x="472" y="519" type="line"/>
			<point x="426" y="558"/>
			<point x="373" y="576"/>
			<point x="313" y="576" type="curve" smooth="yes"/>
			<point x="159" y="576"/>
			<point x="46" y="470"/>
			<point x="46" y="278" type="curve" smooth="yes"/>
			<point x="46" y="91"/>
			<point x="156" y="-12"/>
		</contour>
		<contour>
			<point x="253" y="-110" type="line"/>
			<point x="351" y="-110" type="line"/>
			<point x="351" y="49" type="line"/>
			<point x="253" y="49" type="line"/>
		</contour>
		<contour>
			<point x="253" y="531" type="line"/>
			<point x="351" y="531" type="line"/>
			<point x="351" y="674" type="line"/>
			<point x="253" y="674" type="line"/>
		</contour>
	</outline>
</glyph>
<glyph name="heAyin.1" format="2">
	<advance width="578"/>
	<outline>
		<contour>
			<point x="46" y="0" type="line"/>
			<point x="97" y="0" type="line" smooth="yes"/>
			<point x="402" y="0"/>
			<point x="545" y="248"/>
			<point x="545" y="407" type="curve" smooth="yes"/>
			<point x="545" y="517"/>
			<point x="498" y="564"/>
			<point x="361" y="564" type="curve" smooth="yes"/>
			<point x="297" y="564" type="line"/>
			<point x="297" y="417" type="line"/>
			<point x="324" y="417" type="line" smooth="yes"/>
			<point x="393" y="417"/>
			<point x="418" y="396"/>
			<point x="418" y="349" type="curve" smooth="yes"/>
			<point x="418" y="273"/>
			<point x="329" y="140"/>
			<point x="143" y="140" type="curve" smooth="yes"/>
			<point x="46" y="140" type="line"/>
		</contour>
		<contour>
			<point x="169" y="132" type="curve"/>
			<point x="285" y="158" type="line"/>
			<point x="265" y="264"/>
			<point x="249" y="335"/>
			<point x="227" y="412" type="curve" smooth="yes"/>
			<point x="192" y="533"/>
			<point x="159" y="564"/>
			<point x="54" y="564" type="curve" smooth="yes"/>
			<point x="16" y="564" type="line"/>
			<point x="16" y="417" type="line"/>
			<point x="32" y="417" type="line" smooth="yes"/>
			<point x="75" y="417"/>
			<point x="84" y="403"/>
			<point x="115" y="313" type="curve" smooth="yes"/>
			<point x="131" y="266"/>
			<point x="149" y="209"/>
		</contour>
	</outline>
	<anchor name="aboveHE" x="244" y="541"/>
	<anchor name="belowPrimaryHE" x="287" y="-30"/>
	<anchor name="aboveLeftHE" x="-18" y="541"/>
</glyph>
<glyph name="heAyin.2" format="2">
	<advance width="578"/>
	<outline>
		<contour>
			<point x="46" y="0" type="line"/>
			<point x="97" y="0" type="line" smooth="yes"/>
			<point x="402" y="0"/>
			<point x="545" y="248"/>
			<point x="545" y="407" type="curve" smooth="yes"/>
			<point x="545" y="517"/>
			<point x="498" y="564"/>
			<point x="361" y="564" type="curve" smooth="yes"/>
			<point x="297" y="564" type="line"/>
			<point x="297" y="417" type="line"/>
			<point x="324" y="417" type="line" smooth="yes"/>
			<point x="393" y="417"/>
			<point x="418" y="396"/>
			<point x="418" y="349" type="curve" smooth="yes"/>
			<point x="418" y="273"/>
			<point x="329" y="140"/>
			<point x="143" y="140" type="curve" smooth="yes"/>
			<point x="46" y="140" type="line"/>
		</contour>
		<contour>
			<point x="169" y="132" type="curve"/>
			<point x="285" y="158" type="line"/>
			<point x="268" y="248"/>
			<point x="246" y="305"/>
			<point x="227" y="371" type="curve" smooth="yes"/>
			<point x="205" y="450"/>
			<point x="159" y="463"/>
			<point x="54" y="463" type="curve" smooth="yes"/>
			<point x="16" y="463" type="line"/>
			<point x="16" y="417" type="line"/>
			<point x="32" y="417" type="line" smooth="yes"/>
			<point x="75" y="417"/>
			<point x="84" y="403"/>
			<point x="115" y="313" type="curve" smooth="yes"/>
			<point x="131" y="266"/>
			<point x="149" y="209"/>
		</contour>
		<contour>
			<point x="16" y="417" type="line"/>
			<point x="250" y="417" type="line"/>
			<point x="250" y="564" type="line"/>
			<point x="16" y="564" type="line"/>
		</contour>
	</outline>
	<anchor name="aboveHE" x="244" y="541"/>
	<anchor name="belowPrimaryHE" x="287" y="-30"/>
	<anchor name="aboveLeftHE" x="-18" y="541"/>
</glyph>
<glyph name="heDagesh.shin" format="2">
	<outline>
		<contour>
			<point x="0" y="299" type="curve" smooth="yes"/>
			<point x="-22" y="299"/>
			<point x="-42" y="281"/>
			<point x="-42" y="256" type="curve" smooth="yes"/>
			<point x="-42" y="230"/>
			<point x="-22" y="214"/>
			<point x="0" y="214" type="curve" smooth="yes"/>
			<point x="22" y="214"/>
			<point x="42" y="230"/>
			<point x="42" y="256" type="curve" smooth="yes"/>
			<point x="42" y="281"/>
			<point x="22" y="299"/>
		</contour>
	</outline>
	<anchor name="_centerHE" x="0" y="256"/>
	<guideline y="285" identifier="0UuHlBomrk"/>
</glyph>
<glyph name="heQamats.kaf" format="2">
	<outline>
		<contour>
			<point x="83" y="-82" type="line"/>
			<point x="-85" y="-82" type="line"/>
			<point x="-85" y="-131" type="line"/>
			<point x="-21" y="-131" type="line"/>
			<point x="-30" y="-231" type="line"/>
			<point x="30" y="-231" type="line"/>
			<point x="21" y="-131" type="line"/>
			<point x="83" y="-131" type="line"/>
		</contour>
	</outline>
	<anchor name="_centerSecondaryHE" x="0" y="-30"/>
</glyph>
<glyph name="heQamats.short" format="2">
	<outline>
		<contour>
			<point x="83" y="-82" type="line"/>
			<point x="-85" y="-82" type="line"/>
			<point x="-85" y="-131" type="line"/>
			<point x="-21" y="-131" type="line"/>
			<point x="-30" y="-231" type="line"/>
			<point x="30" y="-231" type="line"/>
			<point x="21" y="-131" type="line"/>
			<point x="83" y="-131" type="line"/>
		</contour>
	</outline>
	<anchor name="_belowPrimaryHE" x="0" y="-30"/>
	<anchor name="_belowLeftHE" x="-83" y="-30"/>
	<anchor name="_belowRightHE" x="83" y="-30"/>
	<anchor name="belowPrimaryHE" x="-151" y="-30"/>
	<anchor name="_belowSecondaryHE" x="0" y="-30"/>
</glyph>
<glyph name="heQamatsQatan.short" format="2">
	<outline>
		<contour>
			<point x="83" y="-82" type="line"/>
			<point x="-85" y="-82" type="line"/>
			<point x="-85" y="-131" type="line"/>
			<point x="-22" y="-131" type="line"/>
			<point x="-27" y="-302" type="line"/>
			<point x="27" y="-302" type="line"/>
			<point x="22" y="-131" type="line"/>
			<point x="83" y="-131" type="line"/>
		</contour>
	</outline>
	<anchor name="_belowPrimaryHE" x="0" y="-30"/>
	<anchor name="_belowLeftHE" x="-83" y="-30"/>
	<anchor name="_belowRightHE" x="83" y="-30"/>
	<anchor name="belowPrimaryHE" x="-151" y="-30"/>
	<anchor name="_belowSecondaryHE" x="0" y="-30"/>
</glyph>
<glyph name="heSamekh.5" format="2">
	<advance width="638"/>
	<outline>
		<contour>
			<point x="326" y="-12" type="curve" smooth="yes"/>
			<point x="483" y="-12"/>
			<point x="597" y="131"/>
			<point x="597" y="369" type="curve" smooth="yes"/>
			<point x="597" y="506"/>
			<point x="554" y="564"/>
			<point x="431" y="564" type="curve" smooth="yes"/>
			<point x="24" y="564" type="line"/>
			<point x="24" y="417" type="line"/>
			<point x="394" y="417" type="line" smooth="yes"/>
			<point x="450" y="417"/>
			<point x="470" y="393"/>
			<point x="470" y="336" type="curve" smooth="yes"/>
			<point x="470" y="208"/>
			<point x="412" y="134"/>
			<point x="340" y="134" type="curve" smooth="yes"/>
			<point x="269" y="134"/>
			<point x="223" y="170"/>
			<point x="223" y="287" type="curve" smooth="yes"/>
			<point x="223" y="417" type="line"/>
			<point x="117" y="417" type="line"/>
			<point x="106" y="380"/>
			<point x="98" y="345"/>
			<point x="98" y="297" type="curve" smooth="yes"/>
			<point x="98" y="234" type="line" smooth="yes"/>
			<point x="98" y="59"/>
			<point x="192" y="-12"/>
		</contour>
	</outline>
	<anchor name="aboveHE" x="311" y="541"/>
	<anchor name="belowPrimaryHE" x="321" y="-30"/>
	<anchor name="centerHE" x="311" y="267"/>
	<anchor name="aboveLeftHE" x="12" y="541"/>
</glyph>
<glyph name="heSheva.kaf" format="2">
	<outline>
		<contour>
			<point x="0" y="-75" type="curve" smooth="yes"/>
			<point x="-22" y="-75"/>
			<point x="-42" y="-93"/>
			<point x="-42" y="-118" type="curve" smooth="yes"/>
			<point x="-42" y="-143"/>
			<point x="-22" y="-160"/>
			<point x="0" y="-160" type="curve" smooth="yes"/>
			<point x="22" y="-160"/>
			<point x="42" y="-144"/>
			<point x="42" y="-118" type="curve" smooth="yes"/>
			<point x="42" y="-93"/>
			<point x="22" y="-75"/>
		</contour>
		<contour>
			<point x="0" y="-200" type="curve" smooth="yes"/>
			<point x="-22" y="-200"/>
			<point x="-42" y="-218"/>
			<point x="-42" y="-243" type="curve" smooth="yes"/>
			<point x="-42" y="-268"/>
			<point x="-22" y="-285"/>
			<point x="0" y="-285" type="curve" smooth="yes"/>
			<point x="22" y="-285"/>
			<point x="42" y="-269"/>
			<point x="42" y="-243" type="curve" smooth="yes"/>
			<point x="42" y="-218"/>
			<point x="22" y="-200"/>
		</contour>
	</outline>
	<anchor name="_centerSecondaryHE" x="0" y="-30"/>
</glyph>
<glyph name="heShin.1" format="2">
	<advance width="754"/>
	<outline>
		<contour>
			<point x="357" y="-12" type="curve" smooth="yes"/>
			<point x="556" y="-12"/>
			<point x="713" y="166"/>
			<point x="713" y="397" type="curve" smooth="yes"/>
			<point x="713" y="529"/>
			<point x="667" y="564"/>
			<point x="547" y="564" type="curve" smooth="yes"/>
			<point x="506" y="564" type="line"/>
			<point x="506" y="417" type="line"/>
			<point x="526" y="417" type="line" smooth="yes"/>
			<point x="572" y="417"/>
			<point x="590" y="394"/>
			<point x="590" y="336" type="curve" smooth="yes"/>
			<point x="590" y="230"/>
			<point x="492" y="128"/>
			<point x="389" y="128" type="curve" smooth="yes"/>
			<point x="267" y="128"/>
			<point x="231" y="155"/>
			<point x="213" y="337" type="curve" smooth="yes"/>
			<point x="193" y="535"/>
			<point x="164" y="564"/>
			<point x="50" y="564" type="curve" smooth="yes"/>
			<point x="12" y="564" type="line"/>
			<point x="12" y="417" type="line"/>
			<point x="20" y="417" type="line" smooth="yes"/>
			<point x="69" y="417"/>
			<point x="77" y="399"/>
			<point x="86" y="284" type="curve" smooth="yes"/>
			<point x="104" y="67"/>
			<point x="203" y="-12"/>
		</contour>
		<contour>
			<point x="361" y="104" type="line"/>
			<point x="442" y="233"/>
			<point x="472" y="339"/>
			<point x="472" y="403" type="curve" smooth="yes"/>
			<point x="472" y="528"/>
			<point x="429" y="564"/>
			<point x="318" y="564" type="curve" smooth="yes"/>
			<point x="277" y="564" type="line"/>
			<point x="277" y="417" type="line"/>
			<point x="287" y="417" type="line" smooth="yes"/>
			<point x="335" y="417"/>
			<point x="348" y="396"/>
			<point x="348" y="350" type="curve" smooth="yes"/>
			<point x="348" y="306"/>
			<point x="326" y="241"/>
			<point x="265" y="146" type="curve"/>
		</contour>
	</outline>
	<anchor name="aboveHE" x="333" y="541"/>
	<anchor name="belowPrimaryHE" x="356" y="-30"/>
	<anchor name="sinHE" x="91" y="511"/>
	<anchor name="centerHE" x="421" y="259"/>
	<anchor name="shinHE" x="516" y="511"/>
	<anchor name="aboveLeftHE" x="-9" y="541"/>
</glyph>
<glyph name="heTet.1" format="2">
	<advance width="635"/>
	<outline>
		<contour>
			<point x="317" y="-12" type="curve" smooth="yes"/>
			<point x="478" y="-12"/>
			<point x="594" y="156"/>
			<point x="594" y="369" type="curve" smooth="yes"/>
			<point x="594" y="506"/>
			<point x="551" y="564"/>
			<point x="428" y="564" type="curve" smooth="yes"/>
			<point x="312" y="564" type="line"/>
			<point x="312" y="417" type="line"/>
			<point x="391" y="417" type="line" smooth="yes"/>
			<point x="446" y="417"/>
			<point x="467" y="392"/>
			<point x="467" y="336" type="curve" smooth="yes"/>
			<point x="467" y="225"/>
			<point x="413" y="134"/>
			<point x="332" y="134" type="curve" smooth="yes"/>
			<point x="272" y="134"/>
			<point x="231" y="160"/>
			<point x="214" y="337" type="curve" smooth="yes"/>
			<point x="196" y="535"/>
			<point x="166" y="564"/>
			<point x="50" y="564" type="curve" smooth="yes"/>
			<point x="12" y="564" type="line"/>
			<point x="12" y="417" type="line"/>
			<point x="20" y="417" type="line" smooth="yes"/>
			<point x="69" y="417"/>
			<point x="77" y="399"/>
			<point x="86" y="284" type="curve" smooth="yes"/>
			<point x="104" y="68"/>
			<point x="206" y="-12"/>
		</contour>
	</outline>
	<anchor name="aboveHE" x="311" y="541"/>
	<anchor name="belowPrimaryHE" x="321" y="-30"/>
	<anchor name="centerHE" x="311" y="267"/>
	<anchor name="aboveLeftHE" x="12" y="541"/>
</glyph>
<glyph name="heTet.2" format="2">
	<advance width="635"/>
	<outline>
		<contour>
			<point x="317" y="-12" type="curve" smooth="yes"/>
			<point x="478" y="-12"/>
			<point x="594" y="156"/>
			<point x="594" y="369" type="curve" smooth="yes"/>
			<point x="594" y="506"/>
			<point x="551" y="564"/>
			<point x="428" y="564" type="curve" smooth="yes"/>
			<point x="312" y="564" type="line"/>
			<point x="312" y="417" type="line"/>
			<point x="391" y="417" type="line" smooth="yes"/>
			<point x="446" y="417"/>
			<point x="467" y="392"/>
			<point x="467" y="336" type="curve" smooth="yes"/>
			<point x="467" y="225"/>
			<point x="413" y="134"/>
			<point x="332" y="134" type="curve" smooth="yes"/>
			<point x="274" y="134"/>
			<point x="234" y="161"/>
			<point x="218" y="304" type="curve" smooth="yes"/>
			<point x="203" y="434"/>
			<point x="168" y="463"/>
			<point x="50" y="463" type="curve" smooth="yes"/>
			<point x="12" y="463" type="line"/>
			<point x="12" y="417" type="line"/>
			<point x="20" y="417" type="line" smooth="yes"/>
			<point x="69" y="417"/>
			<point x="77" y="399"/>
			<point x="86" y="284" type="curve" smooth="yes"/>
			<point x="104" y="68"/>
			<point x="206" y="-12"/>
		</contour>
		<contour>
			<point x="12" y="417" type="line"/>
			<point x="250" y="417" type="line"/>
			<point x="250" y="564" type="line"/>
			<point x="12" y="564" type="line"/>
		</contour>
	</outline>
	<anchor name="aboveHE" x="311" y="541"/>
	<anchor name="belowPrimaryHE" x="321" y="-30"/>
	<anchor name="centerHE" x="311" y="267"/>
	<anchor name="aboveLeftHE" x="12" y="541"/>
</glyph>
